<svg width="20" height="20" viewBox="0 0 20 20" fill="none" xmlns="http://www.w3.org/2000/svg">
<g clip-path="url(#clip0_438_15)">
<path d="M15.4165 15.4167H19.9998M15.4165 15.4167V3.75H2.9165C2.9165 3.75 0.416504 7.5 0.416504 13.8467V15.4167H5.83317M15.4165 15.4167H9.99984M5.83317 15.4167C5.83317 15.9692 6.05266 16.4991 6.44337 16.8898C6.83407 17.2805 7.36397 17.5 7.9165 17.5C8.46904 17.5 8.99894 17.2805 9.38964 16.8898C9.78034 16.4991 9.99984 15.9692 9.99984 15.4167M5.83317 15.4167C5.83317 14.8641 6.05266 14.3342 6.44337 13.9435C6.83407 13.5528 7.36397 13.3333 7.9165 13.3333C8.46904 13.3333 8.99894 13.5528 9.38964 13.9435C9.78034 14.3342 9.99984 14.8641 9.99984 15.4167M17.4998 17.0833H19.9998M8.33317 6.25V9.58333M3.33317 9.58333C3.56144 8.446 3.88823 7.33068 4.30984 6.25H12.9165V9.58333H3.33317Z" stroke="#4B3C2F" stroke-opacity="0.5"/>
</g>
<defs>
<clipPath id="clip0_438_15">
<rect width="20" height="20" fill="white"/>
</clipPath>
</defs>
</svg>
