<svg width="24" height="24" viewBox="0 0 24 24" fill="none" xmlns="http://www.w3.org/2000/svg">
<path d="M5.14258 5.78571C5.14258 5.0469 5.43607 4.33834 5.95849 3.81592C6.48092 3.29349 7.18948 3 7.92829 3H16.0711C16.437 3 16.7992 3.07205 17.1372 3.21205C17.4752 3.35205 17.7823 3.55724 18.0409 3.81592C18.2996 4.07459 18.5048 4.38169 18.6448 4.71967C18.7848 5.05765 18.8569 5.41989 18.8569 5.78571V21.2143C18.8569 21.334 18.8235 21.4513 18.7605 21.553C18.6975 21.6548 18.6073 21.7369 18.5002 21.7902C18.393 21.8434 18.2731 21.8657 18.1539 21.8546C18.0348 21.8434 17.9211 21.7991 17.8257 21.7269L11.9997 17.3057L6.17372 21.726C6.0784 21.7982 5.96481 21.8425 5.84573 21.8537C5.72665 21.8649 5.6068 21.8427 5.49966 21.7895C5.39253 21.7363 5.30234 21.6543 5.23926 21.5527C5.17618 21.4511 5.1427 21.3339 5.14258 21.2143V5.78571ZM7.92829 4.28571C7.53047 4.28571 7.14894 4.44375 6.86763 4.72505C6.58633 5.00636 6.42829 5.38789 6.42829 5.78571V19.92L11.6114 15.9883C11.7232 15.9036 11.8595 15.8578 11.9997 15.8578C12.1399 15.8578 12.2763 15.9036 12.388 15.9883L17.5711 19.92V5.78571C17.5711 5.38789 17.4131 5.00636 17.1318 4.72505C16.8505 4.44375 16.469 4.28571 16.0711 4.28571H7.92829Z" fill="#4B3C2F"/>
</svg>
