<svg width="26" height="26" viewBox="0 0 26 26" fill="none" xmlns="http://www.w3.org/2000/svg">
<path fill-rule="evenodd" clip-rule="evenodd" d="M3.43617 3.43619C2.1665 4.70477 2.1665 6.74794 2.1665 10.8332V15.1665C2.1665 19.2518 2.1665 21.2949 3.43617 22.5635C4.70584 23.8321 6.74792 23.8332 10.8332 23.8332H15.1665C19.2518 23.8332 21.2949 23.8332 22.5635 22.5635C23.8321 21.2939 23.8332 19.2518 23.8332 15.1665V10.8332C23.8332 7.75652 23.8332 5.83902 23.2915 4.53794V18.4165C22.7765 18.4166 22.2665 18.3152 21.7906 18.1182C21.3148 17.9212 20.8824 17.6323 20.5182 17.2682L19.7035 16.4535C18.9213 15.6714 18.5313 15.2814 18.0883 15.1167C17.6012 14.9356 17.0652 14.9356 16.5781 15.1167C16.135 15.2814 15.7439 15.6714 14.9639 16.4535L14.8404 16.5759C14.2067 17.2097 13.8893 17.5271 13.5523 17.5856C13.2907 17.6317 13.0212 17.5801 12.7951 17.4404C12.5048 17.2606 12.3282 16.8479 11.9739 16.0234L11.9165 15.8891C11.104 13.9933 10.6988 13.0464 9.99034 12.6911C9.63355 12.5122 9.23428 12.4354 8.83659 12.469C8.04684 12.5362 7.31884 13.2653 5.86067 14.7224L3.7915 16.7915V3.12744C3.66584 3.22061 3.54739 3.32352 3.43617 3.43619Z" fill="#4B3C2F"/>
<path d="M3.25 10.8333C3.25 8.75983 3.25217 7.31358 3.3995 6.22267C3.54142 5.16317 3.8025 4.602 4.20117 4.20225C4.602 3.80142 5.16317 3.54142 6.22267 3.3995C7.31358 3.25217 8.75983 3.25 10.8333 3.25H15.1667C17.2402 3.25 18.6864 3.25217 19.7773 3.3995C20.8368 3.54142 21.398 3.8025 21.7978 4.20117C22.1986 4.602 22.4586 5.16317 22.6016 6.22267C22.7478 7.31358 22.75 8.75983 22.75 10.8333V15.1667C22.75 17.2402 22.7478 18.6864 22.6016 19.7773C22.4586 20.8368 22.1975 21.398 21.7978 21.7978C21.398 22.1986 20.8368 22.4586 19.7773 22.6016C18.6864 22.7478 17.2402 22.75 15.1667 22.75H10.8333C8.75983 22.75 7.31358 22.7478 6.22267 22.6016C5.16317 22.4586 4.602 22.1975 4.20225 21.7978C3.80142 21.398 3.54142 20.8368 3.3995 19.7773C3.25217 18.6864 3.25 17.2402 3.25 15.1667V10.8333Z" stroke="#4B3C2F" stroke-width="2"/>
<path d="M16.2497 11.9163C17.4463 11.9163 18.4163 10.9463 18.4163 9.74967C18.4163 8.55306 17.4463 7.58301 16.2497 7.58301C15.0531 7.58301 14.083 8.55306 14.083 9.74967C14.083 10.9463 15.0531 11.9163 16.2497 11.9163Z" fill="#4B3C2F"/>
</svg>
