<svg width="30" height="30" viewBox="0 0 30 30" fill="none" xmlns="http://www.w3.org/2000/svg">
<path d="M8 14H22V12H8V14ZM8 16V17.5C8 18.2223 8.14226 18.9375 8.41866 19.6048C8.69506 20.2721 9.10018 20.8784 9.6109 21.3891C10.1216 21.8998 10.7279 22.305 11.3952 22.5814C12.0625 22.8578 12.7777 23 13.5 23H16.5C17.2223 23 17.9375 22.8578 18.6048 22.5814C19.272 22.305 19.8784 21.8998 20.3891 21.3891C20.8998 20.8784 21.3049 20.2721 21.5813 19.6048C21.8577 18.9375 22 18.2223 22 17.5V16H8ZM6.99999 10H23C23.1313 10 23.2614 10.0259 23.3827 10.0761C23.504 10.1264 23.6143 10.2 23.7071 10.2929C23.8 10.3858 23.8736 10.496 23.9239 10.6173C23.9741 10.7387 24 10.8687 24 11V17.5C24 19.4891 23.2098 21.3968 21.8033 22.8033C20.3968 24.2098 18.4891 25 16.5 25H13.5C11.5109 25 9.60322 24.2098 8.19669 22.8033C6.79017 21.3968 6 19.4891 6 17.5V11C5.99999 10.8687 6.02585 10.7387 6.07611 10.6173C6.12636 10.496 6.20002 10.3858 6.29288 10.2929C6.38573 10.2 6.49597 10.1264 6.6173 10.0761C6.73863 10.0259 6.86866 10 6.99999 10ZM15 1C15.1313 1 15.2614 1.02587 15.3827 1.07612C15.504 1.12638 15.6142 1.20004 15.7071 1.2929C15.8 1.38576 15.8736 1.496 15.9239 1.61733C15.9741 1.73866 16 1.8687 16 2.00002V7C16 7.26521 15.8946 7.51956 15.7071 7.7071C15.5196 7.89463 15.2652 7.99999 15 7.99999C14.7348 7.99999 14.4804 7.89463 14.2929 7.7071C14.1054 7.51956 14 7.26521 14 7V2.00002C14 1.8687 14.0259 1.73866 14.0761 1.61733C14.1264 1.496 14.2 1.38576 14.2929 1.2929C14.3857 1.20004 14.496 1.12638 14.6173 1.07612C14.7386 1.02587 14.8687 1 15 1ZM11 3.00001C11.2652 3.00001 11.5196 3.10537 11.7071 3.2929C11.8946 3.48043 12 3.73479 12 4V7C12 7.26522 11.8946 7.51957 11.7071 7.70711C11.5196 7.89465 11.2652 8 11 8C10.7348 8 10.4804 7.89465 10.2929 7.70711C10.1053 7.51957 9.99999 7.26522 9.99999 7V4C9.99999 3.86868 10.0259 3.73864 10.0761 3.61731C10.1264 3.49599 10.2 3.38575 10.2929 3.29289C10.3857 3.20003 10.496 3.12637 10.6173 3.07612C10.7386 3.02587 10.8687 3.00001 11 3.00001ZM19 3.00001C19.1313 3.00001 19.2613 3.02587 19.3827 3.07612C19.504 3.12637 19.6142 3.20003 19.7071 3.29289C19.8 3.38575 19.8736 3.49599 19.9239 3.61731C19.9741 3.73864 20 3.86868 20 4V7C20 7.26522 19.8946 7.51957 19.7071 7.70711C19.5196 7.89465 19.2652 8 19 8C18.7348 8 18.4804 7.89465 18.2929 7.70711C18.1054 7.51957 18 7.26522 18 7V4C18 3.73479 18.1054 3.48043 18.2929 3.2929C18.4804 3.10537 18.7348 3.00001 19 3.00001ZM5.00001 27.002H25C25.2652 27.002 25.5196 27.1074 25.7071 27.2949C25.8946 27.4824 26 27.7368 26 28.002C26 28.2672 25.8946 28.5216 25.7071 28.7091C25.5196 28.8967 25.2652 29.002 25 29.002H5.00001C4.73479 29.002 4.48043 28.8967 4.2929 28.7091C4.10536 28.5216 4 28.2672 4 28.002C4 27.7368 4.10536 27.4824 4.2929 27.2949C4.48043 27.1074 4.73479 27.002 5.00001 27.002Z" fill="#4B3C2F"/>
</svg>
