<svg width="30" height="30" viewBox="0 0 30 30" fill="none" xmlns="http://www.w3.org/2000/svg">
<path d="M14.9997 26.25C14.1247 26.25 13.3851 25.9479 12.7809 25.3438C12.1768 24.7396 11.8747 24 11.8747 23.125C11.8747 22.25 12.1768 21.5104 12.7809 20.9062C13.3851 20.3021 14.1247 20 14.9997 20C15.8747 20 16.6143 20.3021 17.2184 20.9062C17.8226 21.5104 18.1247 22.25 18.1247 23.125C18.1247 24 17.8226 24.7396 17.2184 25.3438C16.6143 25.9479 15.8747 26.25 14.9997 26.25ZM14.9997 12.5C16.5622 12.5 18.0468 12.75 19.4534 13.25C20.8601 13.75 22.1359 14.4375 23.2809 15.3125C23.6976 15.625 23.9114 16.0367 23.9222 16.5475C23.933 17.0583 23.7505 17.5008 23.3747 17.875C23.0205 18.2292 22.583 18.4117 22.0622 18.4225C21.5414 18.4333 21.0726 18.2925 20.6559 18C19.8643 17.4583 18.9893 17.0312 18.0309 16.7188C17.0726 16.4062 16.0622 16.25 14.9997 16.25C13.9372 16.25 12.9268 16.4062 11.9684 16.7188C11.0101 17.0312 10.1351 17.4583 9.34344 18C8.92677 18.2917 8.45802 18.4271 7.93719 18.4062C7.41636 18.3854 6.97886 18.1979 6.62469 17.8438C6.27052 17.4687 6.09344 17.0263 6.09344 16.5163C6.09344 16.0063 6.30177 15.5946 6.71844 15.2812C7.86427 14.4063 9.14052 13.7238 10.5472 13.2337C11.9539 12.7438 13.438 12.4992 14.9997 12.5ZM14.9997 5C17.6039 5 20.0572 5.42708 22.3597 6.28125C24.6622 7.13542 26.7297 8.34375 28.5622 9.90625C28.9789 10.2604 29.1976 10.6979 29.2184 11.2188C29.2393 11.7396 29.0622 12.1875 28.6872 12.5625C28.333 12.9167 27.8955 13.0992 27.3747 13.11C26.8539 13.1208 26.3851 12.9592 25.9684 12.625C24.4684 11.3958 22.7864 10.4429 20.9222 9.76625C19.058 9.08958 17.0839 8.75083 14.9997 8.75C12.9155 8.74917 10.9418 9.08792 9.07844 9.76625C7.21511 10.4446 5.53261 11.3975 4.03094 12.625C3.61427 12.9583 3.14552 13.12 2.62469 13.11C2.10386 13.1 1.66636 12.9175 1.31219 12.5625C0.937192 12.1875 0.760108 11.7396 0.780942 11.2188C0.801775 10.6979 1.02052 10.2604 1.43719 9.90625C3.27052 8.34375 5.33844 7.13542 7.64094 6.28125C9.94344 5.42708 12.3964 5 14.9997 5Z" fill="#4B3C2F"/>
</svg>
