<svg width="14" height="13" viewBox="0 0 14 13" fill="none" xmlns="http://www.w3.org/2000/svg">
<path d="M6.61133 11.375C7.57551 11.375 8.51804 11.0891 9.31973 10.5534C10.1214 10.0177 10.7463 9.25637 11.1152 8.36558C11.4842 7.47479 11.5808 6.49459 11.3927 5.54894C11.2046 4.60328 10.7403 3.73464 10.0585 3.05286C9.37669 2.37108 8.50805 1.90678 7.56239 1.71867C6.61674 1.53057 5.63654 1.62711 4.74575 1.99609C3.85496 2.36507 3.09359 2.98991 2.55791 3.7916C2.02224 4.59329 1.73633 5.53582 1.73633 6.5C1.73633 7.306 1.93133 8.06596 2.27799 8.73546L1.73633 11.375L4.37587 10.8333C5.04537 11.18 5.80587 11.375 6.61133 11.375Z" stroke="white" stroke-width="1.44444" stroke-linecap="round" stroke-linejoin="round"/>
</svg>
