<svg width="13" height="13" viewBox="0 0 13 13" fill="none" xmlns="http://www.w3.org/2000/svg">
<path d="M8.12467 5.41658L7.4568 5.305C7.44059 5.40202 7.44571 5.5014 7.47181 5.59624C7.49791 5.69107 7.54436 5.77909 7.60792 5.85415C7.67149 5.92921 7.75065 5.98952 7.83989 6.03089C7.92913 6.07225 8.02631 6.09368 8.12467 6.09367V5.41658ZM2.16634 5.41658V4.7395C1.79259 4.7395 1.48926 5.04283 1.48926 5.41658H2.16634ZM3.24967 11.5103H9.40301V10.1562H3.24967V11.5103ZM10.053 4.7395H8.12467V6.09367H10.053V4.7395ZM8.79255 5.52817L9.22913 2.90867L7.89338 2.68604L7.4568 5.30554L8.79255 5.52817ZM8.02717 1.4895H7.91126V2.84367H8.02717V1.4895ZM5.99592 2.51488L4.63309 4.55859L5.75976 5.30988L7.12259 3.26563L5.99592 2.51488ZM4.29509 4.7395H2.16634V6.09367H4.29509V4.7395ZM1.48926 5.41658V9.74992H2.84342V5.41658H1.48926ZM11.1293 10.095L11.7793 6.84496L10.4517 6.57954L9.80167 9.82954L11.1293 10.095ZM4.63309 4.55859C4.596 4.61423 4.54574 4.65986 4.48677 4.69142C4.42781 4.72298 4.36197 4.7395 4.29509 4.7395V6.09367C4.58488 6.09367 4.87019 6.02213 5.12569 5.8854C5.38119 5.74867 5.59899 5.55098 5.75976 5.30988L4.63309 4.55859ZM9.22913 2.90867C9.25825 2.73404 9.24896 2.55517 9.20194 2.3845C9.15491 2.21382 9.07126 2.05544 8.95681 1.92037C8.84237 1.78531 8.69987 1.67679 8.53923 1.60238C8.37859 1.52797 8.20421 1.48945 8.02717 1.4895V2.84367C8.00754 2.84362 7.98761 2.8393 7.96981 2.83102C7.95201 2.82273 7.93623 2.81067 7.92355 2.79568C7.91087 2.78068 7.90161 2.76311 7.8964 2.74418C7.89119 2.72525 7.89016 2.70541 7.89338 2.68604L9.22913 2.90867ZM10.053 6.09367C10.1131 6.09362 10.1725 6.10693 10.2269 6.13262C10.2812 6.15831 10.3292 6.19574 10.3674 6.24223C10.4055 6.28871 10.4329 6.34308 10.4474 6.40141C10.462 6.45974 10.4635 6.52058 10.4517 6.57954L11.7793 6.84496C11.8303 6.58961 11.8241 6.32613 11.761 6.07349C11.6979 5.82085 11.5796 5.58534 11.4145 5.38395C11.2495 5.18256 11.0418 5.0203 10.8064 4.90886C10.5711 4.79742 10.3139 4.73958 10.0535 4.7395L10.053 6.09367ZM9.40301 11.5103C9.81001 11.5103 10.2044 11.3693 10.5192 11.1113C10.8339 10.8532 11.0495 10.4941 11.1293 10.095L9.80167 9.82954C9.78326 9.92169 9.73346 10.0046 9.66077 10.0642C9.58807 10.1237 9.49698 10.1562 9.40301 10.1562V11.5103ZM7.91126 1.4895C7.53227 1.48955 7.15915 1.58316 6.82503 1.76204C6.4909 1.94091 6.20611 2.19951 5.99592 2.51488L7.12259 3.26563C7.20917 3.13582 7.32645 3.02939 7.46403 2.95578C7.6016 2.88217 7.75523 2.84366 7.91126 2.84367V1.4895ZM3.24967 10.1562C3.14193 10.1562 3.0386 10.1134 2.96241 10.0372C2.88623 9.96099 2.84342 9.85766 2.84342 9.74992H1.48926C1.48926 10.2168 1.67473 10.6646 2.00487 10.9947C2.33501 11.3249 2.78278 11.5103 3.24967 11.5103V10.1562Z" fill="white"/>
<path d="M4.33301 5.41675V10.8334" stroke="white" stroke-width="1.08333"/>
</svg>
