<svg width="50" height="50" viewBox="0 0 50 50" fill="none" xmlns="http://www.w3.org/2000/svg">
<rect width="50" height="50" rx="25" fill="#2A2A2A"/>
<g clip-path="url(#clip0_279_8641)">
<path fill-rule="evenodd" clip-rule="evenodd" d="M20.8837 10.3064C21.0194 10.1944 21.1757 10.1102 21.3439 10.0586C21.5121 10.007 21.6888 9.9891 21.8639 10.0058C22.039 10.0225 22.2091 10.0736 22.3645 10.156C22.5199 10.2385 22.6575 10.3508 22.7695 10.4864L25.0002 13.1821L27.2309 10.4864C27.343 10.3508 27.4808 10.2386 27.6363 10.1562C27.7918 10.0738 27.962 10.0228 28.1372 10.0062C28.3124 9.98959 28.4892 10.0076 28.6574 10.0593C28.8256 10.111 28.982 10.1954 29.1177 10.3075C29.2533 10.4196 29.3655 10.5574 29.4479 10.7129C29.5303 10.8684 29.5813 11.0386 29.5979 11.2138C29.6145 11.389 29.5965 11.5658 29.5448 11.734C29.4931 11.9023 29.4087 12.0587 29.2966 12.1943L27.143 14.7936C30.8052 18.1686 36.6895 25.4864 39.3059 33.7C39.7923 35.2257 39.113 36.9464 37.5509 37.6064C35.0009 38.6864 30.4966 40 25.0002 40C19.5037 40 14.9995 38.6864 12.4473 37.6064C10.883 36.9464 10.2059 35.2257 10.6902 33.7C13.3109 25.4843 19.193 18.1686 22.8573 14.7936L20.7059 12.1921C20.5937 12.0567 20.5094 11.9004 20.4576 11.7323C20.4059 11.5642 20.3877 11.3876 20.4043 11.2125C20.4208 11.0373 20.4716 10.8672 20.5539 10.7118C20.6362 10.5563 20.7482 10.4186 20.8837 10.3064ZM25.0002 16.6236H24.9937C24.8771 16.6263 24.7657 16.6721 24.6809 16.7521C21.2587 19.9021 15.6852 26.8493 13.2445 34.5122C13.148 34.8164 13.2937 35.0564 13.4909 35.14C15.4752 35.9779 18.8973 37.0172 23.1252 37.2657V31.9643C23.1252 31.7181 23.1737 31.4742 23.2679 31.2468C23.3621 31.0193 23.5002 30.8126 23.6743 30.6385C23.8485 30.4644 24.0552 30.3262 24.2826 30.232C24.5101 30.1378 24.7539 30.0893 25.0002 30.0893C25.2464 30.0893 25.4902 30.1378 25.7177 30.232C25.9452 30.3262 26.1519 30.4644 26.326 30.6385C26.5001 30.8126 26.6382 31.0193 26.7324 31.2468C26.8267 31.4742 26.8752 31.7181 26.8752 31.9643V37.2679C31.103 37.0193 34.5252 35.9822 36.5095 35.1422C36.7066 35.0586 36.8523 34.8186 36.7559 34.5143C34.3152 26.8514 28.7416 19.9064 25.3195 16.7564C25.235 16.6756 25.1235 16.629 25.0066 16.6257L25.0002 16.6236Z" fill="white"/>
</g>
<defs>
<clipPath id="clip0_279_8641">
<rect width="30" height="30" fill="white" transform="translate(10 10)"/>
</clipPath>
</defs>
</svg>
