<svg width="50" height="50" viewBox="0 0 50 50" fill="none" xmlns="http://www.w3.org/2000/svg">
<rect width="50" height="50" rx="25" fill="#2A2A2A"/>
<path d="M12.7678 33.971V16.0803L15.7236 18.4469C17.2157 19.6396 19.0708 20.2902 20.9801 20.2902H27.4999L30.5454 14.1993C30.8959 13.501 31.4334 12.9137 32.0981 12.5029C32.7627 12.0922 33.5284 11.874 34.3097 11.8728H35.9173V17.1339L42.2321 19.2389V21.3438C42.2321 23.6679 40.3464 25.5513 38.0222 25.5513H33.8171V33.971C33.8286 34.3929 33.7555 34.8128 33.602 35.206C33.4485 35.5991 33.2177 35.9575 32.9234 36.26C32.6291 36.5625 32.2771 36.8029 31.8883 36.9671C31.4995 37.1313 31.0817 37.2159 30.6597 37.2159C30.2376 37.2159 29.8199 37.1313 29.431 36.9671C29.0422 36.8029 28.6903 36.5625 28.3959 36.26C28.1016 35.9575 27.8709 35.5991 27.7174 35.206C27.5639 34.8128 27.4908 34.3929 27.5023 33.971V32.9174C27.5023 31.7553 26.5594 30.8148 25.3974 30.8148H21.1851C20.0231 30.8148 19.0826 31.7577 19.0826 32.9174V33.971C19.0941 34.3929 19.021 34.8128 18.8675 35.206C18.714 35.5991 18.4832 35.9575 18.1889 36.26C17.8946 36.5625 17.5426 36.8029 17.1538 36.9671C16.765 37.1313 16.3472 37.2159 15.9252 37.2159C15.5031 37.2159 15.0854 37.1313 14.6965 36.9671C14.3077 36.8029 13.9558 36.5625 13.6614 36.26C13.3671 35.9575 13.1364 35.5991 12.9829 35.206C12.8294 34.8128 12.7563 34.3929 12.7678 33.971Z" stroke="white" stroke-width="2" stroke-linecap="round" stroke-linejoin="round"/>
<path d="M27.5283 20.0144C27.9408 21.7045 29.8855 25.1883 34.3522 25.6126" stroke="white" stroke-width="2" stroke-linecap="round" stroke-linejoin="round"/>
</svg>
