<svg width="21" height="21" viewBox="0 0 21 21" fill="none" xmlns="http://www.w3.org/2000/svg">
<rect width="21" height="21" rx="5" fill="#2A2A2A"/>
<path d="M13.6088 13.6088C14.1825 13.0352 14.6376 12.3541 14.948 11.6046C15.2585 10.855 15.4183 10.0517 15.4183 9.2404C15.4183 8.42911 15.2585 7.62576 14.948 6.87622C14.6376 6.12668 14.1825 5.44564 13.6088 4.87197C13.0352 4.29829 12.3541 3.84323 11.6046 3.53276C10.855 3.2223 10.0517 3.0625 9.2404 3.0625C8.42911 3.0625 7.62576 3.2223 6.87622 3.53276C6.12668 3.84323 5.44564 4.29829 4.87197 4.87197C3.71338 6.03055 3.0625 7.60192 3.0625 9.2404C3.0625 10.8789 3.71338 12.4503 4.87197 13.6088C6.03055 14.7674 7.60192 15.4183 9.2404 15.4183C10.8789 15.4183 12.4503 14.7674 13.6088 13.6088ZM13.6088 13.6088L17.5 17.5" stroke="white" stroke-opacity="0.5" stroke-width="1.5" stroke-linecap="round" stroke-linejoin="round"/>
</svg>
