<svg width="50" height="50" viewBox="0 0 50 50" fill="none" xmlns="http://www.w3.org/2000/svg">
<rect width="50" height="50" rx="25" fill="#2A2A2A"/>
<path d="M16.375 35.125C16.375 36.0533 16.7437 36.9435 17.4001 37.5999C18.0565 38.2562 18.9467 38.625 19.875 38.625C20.8033 38.625 21.6935 38.2562 22.3499 37.5999C23.0062 36.9435 23.375 36.0533 23.375 35.125C23.375 34.1967 23.0062 33.3065 22.3499 32.6501C21.6935 31.9937 20.8033 31.625 19.875 31.625C18.9467 31.625 18.0565 31.9937 17.4001 32.6501C16.7437 33.3065 16.375 34.1967 16.375 35.125Z" stroke="white" stroke-width="2" stroke-linecap="round" stroke-linejoin="round"/>
<path d="M23.375 35.125H35.625C36.5533 35.125 37.4435 34.7563 38.0999 34.0999C38.7563 33.4435 39.125 32.5533 39.125 31.625V19.375C39.125 18.4467 38.7563 17.5565 38.0999 16.9001C37.4435 16.2437 36.5533 15.875 35.625 15.875H19C16.4473 15.875 13.9991 16.8891 12.1941 18.6941C10.3891 20.4991 9.375 22.9473 9.375 25.5V31.625C9.375 32.5533 9.74375 33.4435 10.4001 34.0999C11.0565 34.7563 11.9467 35.125 12.875 35.125H16.375M18.125 15.875L30.375 10.625L32.125 15.875" stroke="white" stroke-width="2" stroke-linecap="round" stroke-linejoin="round"/>
<path d="M39.125 31.625H42.625M26.875 23.75C26.875 23.5179 26.9672 23.2954 27.1313 23.1313C27.2954 22.9672 27.5179 22.875 27.75 22.875H31.25C31.4821 22.875 31.7046 22.9672 31.8687 23.1313C32.0328 23.2954 32.125 23.5179 32.125 23.75V27.25C32.125 27.4821 32.0328 27.7046 31.8687 27.8687C31.7046 28.0328 31.4821 28.125 31.25 28.125H27.75C27.5179 28.125 27.2954 28.0328 27.1313 27.8687C26.9672 27.7046 26.875 27.4821 26.875 27.25V23.75Z" stroke="white" stroke-width="2" stroke-linecap="round" stroke-linejoin="round"/>
</svg>
