<svg width="30" height="30" viewBox="0 0 30 30" fill="none" xmlns="http://www.w3.org/2000/svg">
<path fill-rule="evenodd" clip-rule="evenodd" d="M23.33 18.8227C23.6304 18.7152 23.9605 18.7267 24.2527 18.8547C24.5449 18.9827 24.7771 19.2177 24.9017 19.5113C25.0263 19.805 25.034 20.1352 24.923 20.4343C24.8121 20.7334 24.591 20.9788 24.305 21.1202L24.17 21.1777L18.7163 23.1252L24.17 25.0727C24.4718 25.1787 24.7215 25.3964 24.8676 25.681C25.0138 25.9656 25.0452 26.2954 24.9555 26.6025C24.8658 26.9096 24.6618 27.1706 24.3854 27.3317C24.1091 27.4929 23.7815 27.542 23.47 27.4689L23.33 27.4277L15 24.4527L6.67002 27.4277C6.36964 27.5351 6.03955 27.5236 5.74735 27.3956C5.45515 27.2676 5.22296 27.0327 5.09834 26.739C4.97371 26.4453 4.96609 26.1151 5.07702 25.816C5.18795 25.5169 5.40905 25.2716 5.69502 25.1302L5.83002 25.0727L11.2838 23.1252L5.83002 21.1777C5.5282 21.0716 5.27852 20.8539 5.1324 20.5693C4.98628 20.2847 4.95483 19.9549 5.04453 19.6478C5.13424 19.3408 5.33827 19.0798 5.61461 18.9186C5.89095 18.7574 6.21857 18.7083 6.53002 18.7814L6.67002 18.8227L15 21.7977L23.33 18.8227ZM14.0375 3.61517L14.9213 3.04017L15.1963 2.87392C15.8088 2.52767 16.4838 2.29892 17.0675 2.80642C17.4175 3.10892 17.5338 3.53517 17.4713 3.96892L17.4213 4.22517L17.4025 4.40017C17.3942 4.50683 17.3975 4.63475 17.4125 4.78392C17.52 5.74767 18.1763 6.43642 18.8563 7.06017L19.4275 7.58017L19.855 7.98392C20.87 8.97392 21.99 10.3089 22.4613 12.1964C23.0288 14.4639 22.4688 16.4977 20.9838 17.9302C19.5513 19.3152 17.4013 20.0002 15 20.0002C11.0388 20.0002 7.50002 17.4352 7.50002 13.1252C7.50002 9.75517 9.72752 7.09392 11.6775 5.38767C12.4254 4.74573 13.2146 4.15362 14.04 3.61517M15.2775 11.5802L15 11.2502L14.7238 11.5802L14.4275 11.9564L14.1938 12.2714L13.9438 12.6264C13.2613 13.6252 12.5 14.9964 12.5 16.1464C12.5 17.5839 13.62 18.7502 15 18.7502C16.38 18.7502 17.5 17.5839 17.5 16.1464C17.5 14.9964 16.7388 13.6252 16.0563 12.6264L15.8063 12.2714L15.5725 11.9564L15.2775 11.5802Z" fill="#4B3C2F"/>
</svg>
