<svg width="30" height="30" viewBox="0 0 30 30" fill="none" xmlns="http://www.w3.org/2000/svg">
<path d="M14.4507 1.07678C13.7583 1.06781 13.0492 1.58115 12.7295 2.3915C12.336 3.38877 12.6797 4.45869 13.4967 4.78096C14.3137 5.10334 15.295 4.55701 15.6885 3.55969C16.082 2.56242 15.7383 1.4925 14.9213 1.17023C14.7715 1.11057 14.612 1.07889 14.4508 1.07678H14.4507ZM18.8306 2.01064C18.1878 2.01099 17.498 2.36361 17.0271 2.99935C16.3093 3.96814 16.3708 5.22943 17.1643 5.81736C17.9579 6.40535 19.1823 6.09592 19.8999 5.12713C20.6177 4.15834 20.5562 2.89705 19.7626 2.30912C19.4899 2.10697 19.1673 2.01047 18.8306 2.0107L18.8306 2.01064ZM22.771 4.20967C22.1654 4.20223 21.5088 4.45945 20.9857 4.96594C20.0558 5.8664 19.9002 7.21265 20.6378 7.97437C21.3754 8.73609 22.7273 8.62394 23.6572 7.72359C24.5871 6.82301 24.7427 5.47681 24.0051 4.7151C23.6824 4.3817 23.242 4.21547 22.7709 4.20967H22.771ZM13.6047 6.08836C12.2858 6.07195 11.0044 6.49224 9.88401 7.49461C6.30763 10.6942 2.82376 15.2938 1.65704 22.6741C0.294327 31.295 10.9135 29.7378 9.8621 25.1331C8.51901 19.251 11.8619 16.8649 16.1902 17.8583C18.1143 18.3001 20.0891 17.5712 21.2293 15.489C22.6005 12.9851 20.7941 9.23021 17.5452 7.30787C16.279 6.55846 14.9237 6.10471 13.6048 6.0883L13.6047 6.08836ZM26.3343 7.85168C25.7179 7.85297 25.0655 8.01691 24.4538 8.35705C22.8227 9.26408 22.1013 11.0822 22.8442 12.4184C23.5873 13.7544 25.5126 14.1018 27.1436 13.1947C28.7746 12.2877 29.4943 10.4695 28.7513 9.13342C28.2869 8.29834 27.3617 7.84963 26.3343 7.85168H26.3343Z" fill="#4B3C2F"/>
</svg>
