<svg width="30" height="30" viewBox="0 0 30 30" fill="none" xmlns="http://www.w3.org/2000/svg">
<g clip-path="url(#clip0_274_773)">
<path d="M15 4.6875V25.3125M0.9375 4.6875H29.0625V25.3125H0.9375V4.6875Z" stroke="#4B3C2F" stroke-width="2.5" stroke-linecap="round" stroke-linejoin="round"/>
<path d="M0.9375 10.3125H4.6875C5.18478 10.3125 5.66169 10.51 6.01333 10.8617C6.36496 11.2133 6.5625 11.6902 6.5625 12.1875V17.8125C6.5625 18.3098 6.36496 18.7867 6.01333 19.1383C5.66169 19.49 5.18478 19.6875 4.6875 19.6875H0.9375M29.0625 10.3125H25.3125C24.8152 10.3125 24.3383 10.51 23.9867 10.8617C23.635 11.2133 23.4375 11.6902 23.4375 12.1875V17.8125C23.4375 18.3098 23.635 18.7867 23.9867 19.1383C24.3383 19.49 24.8152 19.6875 25.3125 19.6875H29.0625M11.25 15C11.25 15.9946 11.6451 16.9484 12.3483 17.6517C13.0516 18.3549 14.0054 18.75 15 18.75C15.9946 18.75 16.9484 18.3549 17.6517 17.6517C18.3549 16.9484 18.75 15.9946 18.75 15C18.75 14.0054 18.3549 13.0516 17.6517 12.3483C16.9484 11.6451 15.9946 11.25 15 11.25C14.0054 11.25 13.0516 11.6451 12.3483 12.3483C11.6451 13.0516 11.25 14.0054 11.25 15Z" stroke="#4B3C2F" stroke-width="2.5" stroke-linecap="round" stroke-linejoin="round"/>
</g>
<defs>
<clipPath id="clip0_274_773">
<rect width="30" height="30" fill="white"/>
</clipPath>
</defs>
</svg>
