<svg width="30" height="30" viewBox="0 0 30 30" fill="none" xmlns="http://www.w3.org/2000/svg">
<path d="M23.3912 6.59735C22.2886 5.49185 20.9787 4.61465 19.5367 4.01597C18.0946 3.41729 16.5486 3.10888 14.9872 3.1084C13.4258 3.10791 11.8796 3.41536 10.4372 4.01315C8.99474 4.61093 7.68435 5.48731 6.581 6.59213C5.47766 7.69695 4.60304 9.00852 4.00719 10.4518C3.41134 11.895 3.10596 13.4416 3.10854 15.003C3.11111 16.5644 3.42159 18.11 4.0222 19.5512C4.62281 20.9925 5.50176 22.3012 6.60875 23.4024C8.83873 25.6206 11.8577 26.8636 15.0031 26.8584C18.1485 26.8532 21.1634 25.6003 23.386 23.3747C25.6087 21.149 26.8575 18.1325 26.8585 14.9871C26.8595 11.8417 25.6125 8.82436 23.3912 6.59735ZM23.3912 6.59735L18.7212 11.2686M23.3912 23.3811L18.7212 18.7099M11.2787 18.7099L6.60875 23.3811M11.2787 11.2686L6.60875 6.59735M15 20.2674C13.6002 20.2662 12.2581 19.709 11.2691 18.7183C10.2801 17.7277 9.72509 16.3847 9.72625 14.9849C9.72741 13.585 10.2846 12.243 11.2753 11.2539C12.2659 10.2649 13.6089 9.70994 15.0087 9.7111C16.4086 9.71226 17.7506 10.2695 18.7397 11.2601C19.7287 12.2508 20.2837 13.5938 20.2825 14.9936C20.2813 16.3934 19.7241 17.7355 18.7335 18.7245C17.7428 19.7135 16.3998 20.2685 15 20.2674Z" stroke="#4B3C2F" stroke-width="2.5" stroke-linecap="round" stroke-linejoin="round"/>
</svg>
