<svg width="30" height="30" viewBox="0 0 30 30" fill="none" xmlns="http://www.w3.org/2000/svg">
<path d="M4.6875 6.25H11.475C11.8865 6.25006 12.2916 6.14856 12.6545 5.95449C13.0173 5.76042 13.3266 5.47979 13.555 5.1375L14.57 3.6125C14.7984 3.27021 15.1077 2.98958 15.4705 2.79551C15.8334 2.60144 16.2385 2.49994 16.65 2.5H22.26C22.7849 2.49987 23.2965 2.66497 23.7224 2.97189C24.1482 3.27881 24.4666 3.71199 24.6325 4.21L25.3125 6.25M27.1875 6.25H10.9375" stroke="#4B3C2F" stroke-width="2.5" stroke-linecap="round" stroke-linejoin="round"/>
<path d="M25.3125 6.25L24.6875 14.375M6.5625 6.25L7.31875 19.42C7.51125 22.6325 7.60875 24.24 8.41125 25.395C8.8075 25.9675 9.31875 26.4487 9.91125 26.8112C10.6387 27.2562 11.5163 27.4313 12.8125 27.5M14.6875 19.3725L16.1075 21.205C16.3654 20.2422 16.9052 19.3785 17.6576 18.7247C18.41 18.0709 19.3406 17.6569 20.33 17.5358C21.3193 17.4148 22.3223 17.5922 23.2101 18.0453C24.0979 18.4984 24.8301 19.2065 25.3125 20.0787M27.1875 25.6225L25.7675 23.7925C25.5116 24.7478 24.9782 25.6058 24.2347 26.2579C23.4912 26.91 22.571 27.327 21.5905 27.4561C20.61 27.5853 19.6132 27.4207 18.7263 26.9833C17.8393 26.5459 17.102 25.8552 16.6075 24.9988" stroke="#4B3C2F" stroke-width="2.5" stroke-linecap="round" stroke-linejoin="round"/>
</svg>
