<svg width="30" height="30" viewBox="0 0 30 30" fill="none" xmlns="http://www.w3.org/2000/svg">
<path d="M15 26.25C14.125 26.25 13.3854 25.9479 12.7812 25.3437C12.1771 24.7396 11.875 24 11.875 23.125C11.875 22.25 12.1771 21.5104 12.7812 20.9063C13.3854 20.3021 14.125 20 15 20C15.875 20 16.6146 20.3021 17.2187 20.9063C17.8229 21.5104 18.125 22.25 18.125 23.125C18.125 24 17.8229 24.7396 17.2187 25.3437C16.6146 25.9479 15.875 26.25 15 26.25ZM15 12.5C16.5625 12.5 18.0471 12.75 19.4537 13.25C20.8604 13.75 22.1362 14.4375 23.2812 15.3125C23.6979 15.625 23.9117 16.0367 23.9225 16.5475C23.9333 17.0583 23.7508 17.5008 23.375 17.875C23.0208 18.2292 22.5833 18.4117 22.0625 18.4225C21.5417 18.4333 21.0729 18.2925 20.6562 18C19.8646 17.4583 18.9896 17.0312 18.0312 16.7188C17.0729 16.4062 16.0625 16.25 15 16.25C13.9375 16.25 12.9271 16.4062 11.9687 16.7188C11.0104 17.0312 10.1354 17.4583 9.34375 18C8.92708 18.2917 8.45833 18.4271 7.9375 18.4063C7.41666 18.3854 6.97916 18.1979 6.625 17.8437C6.27083 17.4687 6.09375 17.0263 6.09375 16.5163C6.09375 16.0063 6.30208 15.5946 6.71875 15.2813C7.86458 14.4063 9.14083 13.7237 10.5475 13.2337C11.9542 12.7437 13.4383 12.4992 15 12.5ZM15 5C17.6042 5 20.0575 5.42708 22.36 6.28125C24.6625 7.13542 26.73 8.34375 28.5625 9.90625C28.9792 10.2604 29.1979 10.6979 29.2187 11.2188C29.2396 11.7396 29.0625 12.1875 28.6875 12.5625C28.3333 12.9167 27.8958 13.0992 27.375 13.11C26.8542 13.1208 26.3854 12.9592 25.9687 12.625C24.4687 11.3958 22.7867 10.4429 20.9225 9.76625C19.0583 9.08958 17.0842 8.75083 15 8.75C12.9158 8.74917 10.9421 9.08792 9.07875 9.76625C7.21541 10.4446 5.53291 11.3975 4.03125 12.625C3.61458 12.9583 3.14583 13.12 2.625 13.11C2.10416 13.1 1.66666 12.9175 1.3125 12.5625C0.937497 12.1875 0.760413 11.7396 0.781247 11.2188C0.80208 10.6979 1.02083 10.2604 1.4375 9.90625C3.27083 8.34375 5.33875 7.13542 7.64125 6.28125C9.94375 5.42708 12.3967 5 15 5Z" fill="#4B3C2F"/>
</svg>
