<svg width="50" height="50" viewBox="0 0 50 50" fill="none" xmlns="http://www.w3.org/2000/svg">
<rect width="50" height="50" rx="25" fill="#2A2A2A"/>
<g clip-path="url(#clip0_442_4399)">
<path fill-rule="evenodd" clip-rule="evenodd" d="M20.8837 10.3067C21.0194 10.1947 21.1757 10.1105 21.3439 10.0589C21.5121 10.0073 21.6888 9.98935 21.8639 10.0061C22.039 10.0228 22.2091 10.0738 22.3645 10.1563C22.5199 10.2388 22.6575 10.351 22.7695 10.4867L25.0002 13.1824L27.2309 10.4867C27.343 10.351 27.4808 10.2388 27.6363 10.1564C27.7918 10.074 27.962 10.0231 28.1372 10.0064C28.3124 9.98983 28.4892 10.0079 28.6574 10.0596C28.8256 10.1113 28.982 10.1956 29.1177 10.3077C29.2533 10.4199 29.3655 10.5576 29.4479 10.7132C29.5303 10.8687 29.5813 11.0389 29.5979 11.2141C29.6145 11.3893 29.5965 11.566 29.5448 11.7343C29.4931 11.9025 29.4087 12.0589 29.2966 12.1945L27.143 14.7938C30.8052 18.1688 36.6895 25.4867 39.3059 33.7003C39.7923 35.226 39.113 36.9467 37.5509 37.6067C35.0009 38.6867 30.4966 40.0003 25.0002 40.0003C19.5037 40.0003 14.9995 38.6867 12.4473 37.6067C10.883 36.9467 10.2059 35.226 10.6902 33.7003C13.3109 25.4845 19.193 18.1688 22.8573 14.7938L20.7059 12.1924C20.5937 12.0569 20.5094 11.9006 20.4576 11.7325C20.4059 11.5644 20.3877 11.3878 20.4043 11.2127C20.4208 11.0376 20.4716 10.8675 20.5539 10.712C20.6362 10.5565 20.7482 10.4188 20.8837 10.3067ZM25.0002 16.6238H24.9937C24.8771 16.6265 24.7657 16.6723 24.6809 16.7524C21.2587 19.9024 15.6852 26.8495 13.2445 34.5124C13.148 34.8167 13.2937 35.0567 13.4909 35.1403C15.4752 35.9781 18.8973 37.0174 23.1252 37.266V31.9645C23.1252 31.7183 23.1737 31.4745 23.2679 31.247C23.3621 31.0195 23.5002 30.8128 23.6743 30.6387C23.8485 30.4646 24.0552 30.3265 24.2826 30.2323C24.5101 30.138 24.7539 30.0895 25.0002 30.0895C25.2464 30.0895 25.4902 30.138 25.7177 30.2323C25.9452 30.3265 26.1519 30.4646 26.326 30.6387C26.5001 30.8128 26.6382 31.0195 26.7324 31.247C26.8267 31.4745 26.8752 31.7183 26.8752 31.9645V37.2681C31.103 37.0195 34.5252 35.9824 36.5095 35.1424C36.7066 35.0588 36.8523 34.8188 36.7559 34.5145C34.3152 26.8517 28.7416 19.9067 25.3195 16.7567C25.235 16.6758 25.1235 16.6292 25.0066 16.626L25.0002 16.6238Z" fill="white"/>
</g>
<defs>
<clipPath id="clip0_442_4399">
<rect width="30" height="30" fill="white" transform="translate(10 10)"/>
</clipPath>
</defs>
</svg>
