<svg width="50" height="50" viewBox="0 0 50 50" fill="none" xmlns="http://www.w3.org/2000/svg">
<rect width="50" height="50" rx="25" fill="white"/>
<path d="M33.75 32.5C35.5175 32.5 36.4012 32.5 36.95 31.95C37.5 31.4012 37.5 30.5175 37.5 28.75C37.5 26.9825 37.5 26.0987 36.95 25.55C36.4025 25 35.5187 25 33.75 25M16.25 32.5C14.4825 32.5 13.5987 32.5 13.05 31.95C12.5 31.4025 12.5 30.5187 12.5 28.75C12.5 26.9812 12.5 26.0987 13.05 25.55C13.5975 25 14.4812 25 16.25 25M25 16.25C25.4973 16.25 25.9742 16.0525 26.3258 15.7008C26.6775 15.3492 26.875 14.8723 26.875 14.375C26.875 13.8777 26.6775 13.4008 26.3258 13.0492C25.9742 12.6975 25.4973 12.5 25 12.5C24.5027 12.5 24.0258 12.6975 23.6742 13.0492C23.3225 13.4008 23.125 13.8777 23.125 14.375C23.125 14.8723 23.3225 15.3492 23.6742 15.7008C24.0258 16.0525 24.5027 16.25 25 16.25ZM25 16.25V20M21.25 26.25V27.5M28.75 26.25V27.5M33.75 30V27.5C33.75 23.965 33.75 22.1962 32.6512 21.0987C31.5537 20 29.785 20 26.25 20H23.75C20.215 20 18.4462 20 17.3487 21.0987C16.25 22.1962 16.25 23.965 16.25 27.5V30C16.25 33.535 16.25 35.3037 17.3487 36.4012C18.4462 37.5 20.215 37.5 23.75 37.5H26.25C29.785 37.5 31.5537 37.5 32.6512 36.4012C33.75 35.3037 33.75 33.535 33.75 30Z" stroke="#4B3C2F" stroke-width="2" stroke-linecap="round" stroke-linejoin="round"/>
<path d="M22.5 31.875C22.5 31.875 23.3338 32.5 25 32.5C26.6663 32.5 27.5 31.875 27.5 31.875" stroke="#4B3C2F" stroke-width="1.5" stroke-linecap="round" stroke-linejoin="round"/>
</svg>
