<svg width="16" height="16" viewBox="0 0 16 16" fill="none" xmlns="http://www.w3.org/2000/svg">
<g clip-path="url(#clip0_216_4863)">
<path fill-rule="evenodd" clip-rule="evenodd" d="M15.6059 1.52591C15.7559 1.37587 15.8402 1.17238 15.8402 0.960197C15.8402 0.748013 15.7559 0.54452 15.6059 0.394483C15.4559 0.244446 15.2524 0.160156 15.0402 0.160156C14.828 0.160156 14.6245 0.244446 14.4745 0.394483L8.0002 6.86877L1.52591 0.394483C1.37587 0.244446 1.17238 0.160156 0.960197 0.160156C0.748013 0.160156 0.54452 0.244446 0.394483 0.394483C0.244446 0.54452 0.160156 0.748013 0.160156 0.960197C0.160156 1.17238 0.244446 1.37587 0.394483 1.52591L6.86877 8.0002L0.394483 14.4745C0.244446 14.6245 0.160156 14.828 0.160156 15.0402C0.160156 15.2524 0.244446 15.4559 0.394483 15.6059C0.54452 15.7559 0.748013 15.8402 0.960197 15.8402C1.17238 15.8402 1.37587 15.7559 1.52591 15.6059L8.0002 9.13163L14.4745 15.6059C14.6245 15.7559 14.828 15.8402 15.0402 15.8402C15.2524 15.8402 15.4559 15.7559 15.6059 15.6059C15.7559 15.4559 15.8402 15.2524 15.8402 15.0402C15.8402 14.828 15.7559 14.6245 15.6059 14.4745L9.13163 8.0002L15.6059 1.52591Z" fill="#A8AEB2"/>
</g>
<defs>
<clipPath id="clip0_216_4863">
<rect width="16" height="16" fill="white"/>
</clipPath>
</defs>
</svg>
