<svg width="20" height="20" viewBox="0 0 20 20" fill="none" xmlns="http://www.w3.org/2000/svg">
<g clip-path="url(#clip0_303_1144)">
<path fill-rule="evenodd" clip-rule="evenodd" d="M19.5074 1.90715C19.6949 1.7196 19.8003 1.46523 19.8003 1.2C19.8003 0.934772 19.6949 0.680405 19.5074 0.492859C19.3198 0.305313 19.0655 0.199951 18.8002 0.199951C18.535 0.199951 18.2806 0.305313 18.0931 0.492859L10.0002 8.58572L1.90739 0.492859C1.71984 0.305313 1.46548 0.199951 1.20025 0.199951C0.935016 0.199951 0.680649 0.305313 0.493103 0.492859C0.305558 0.680405 0.200195 0.934772 0.200195 1.2C0.200195 1.46523 0.305558 1.7196 0.493103 1.90715L8.58596 10L0.493103 18.0929C0.305558 18.2804 0.200195 18.5348 0.200195 18.8C0.200195 19.0652 0.305558 19.3196 0.493103 19.5071C0.680649 19.6947 0.935016 19.8001 1.20025 19.8001C1.46548 19.8001 1.71984 19.6947 1.90739 19.5071L10.0002 11.4143L18.0931 19.5071C18.2806 19.6947 18.535 19.8001 18.8002 19.8001C19.0655 19.8001 19.3198 19.6947 19.5074 19.5071C19.6949 19.3196 19.8003 19.0652 19.8003 18.8C19.8003 18.5348 19.6949 18.2804 19.5074 18.0929L11.4145 10L19.5074 1.90715Z" fill="#4B3C2F"/>
</g>
<defs>
<clipPath id="clip0_303_1144">
<rect width="20" height="20" fill="white"/>
</clipPath>
</defs>
</svg>
