<svg width="187" height="187" viewBox="0 0 187 187" fill="none" xmlns="http://www.w3.org/2000/svg">
<rect width="187" height="187" fill="#4B3C2F"/>
<path d="M19.9531 79.5586V72.8203H41.0957V79.5586H33.9668V107H27.082V79.5586H19.9531ZM43.6836 99.4316V86.6387C43.7161 85.0436 44.4486 83.4811 45.8809 81.9512C47.6387 80.1283 49.7871 79.2005 52.3262 79.168V85.3203C51.3822 85.3203 50.7311 85.7272 50.373 86.541C50.2754 86.7363 50.2266 86.9154 50.2266 87.0781V89.5195H57.502V87.127C57.4694 85.9225 56.623 85.3203 54.9629 85.3203V79.168C57.3392 79.168 59.4225 79.9818 61.2129 81.6094C62.7754 83.0417 63.5729 84.7018 63.6055 86.5898V95.8184H50.2266V99.4316C50.4544 100.376 51.1706 100.896 52.375 100.994V107C49.3151 107 46.89 105.747 45.0996 103.24C44.1556 101.906 43.6836 100.636 43.6836 99.4316ZM54.9629 107V101.043C56.7207 101.01 57.8438 100.18 58.332 98.5527L63.6543 100.555C63.166 102.638 61.929 104.314 59.9434 105.584C58.4134 106.528 56.7533 107 54.9629 107ZM67.3652 107V86.7363C67.3652 85.1087 68.0814 83.5299 69.5137 82C71.3366 80.112 73.5664 79.1517 76.2031 79.1191V85.6133C74.901 85.8086 74.1686 86.4596 74.0059 87.5664V107H67.3652ZM78.4492 85.6133V79.1191C80.6628 79.1517 82.5508 79.7539 84.1133 80.9258C85.6107 79.7214 87.4824 79.1191 89.7285 79.1191V85.6133C88.2311 85.6458 87.4661 86.2969 87.4336 87.5664V107H80.793V87.5664C80.7279 86.2969 79.9466 85.6458 78.4492 85.6133ZM91.9258 85.6133V79.1191C95.0833 79.1191 97.5736 80.3724 99.3965 82.8789C100.373 84.2461 100.861 85.5319 100.861 86.7363V107H94.2207V87.5664C94.1556 86.2969 93.3906 85.6458 91.9258 85.6133ZM104.768 107V72.0391H111.506V107H104.768ZM114.094 107V100.652H115.852C116.047 100.652 116.226 100.636 116.389 100.604C116.584 100.538 116.747 100.473 116.877 100.408C117.007 100.343 117.121 100.262 117.219 100.164C117.316 100.066 117.382 99.9688 117.414 99.8711C117.479 99.7734 117.528 99.6921 117.561 99.627C117.593 99.5293 117.626 99.4479 117.658 99.3828V99.334V86.834C117.658 86.4434 117.414 86.1016 116.926 85.8086C116.633 85.6458 116.291 85.5482 115.9 85.5156H114.094V79.168H115.852C118.781 79.168 121.076 80.4538 122.736 83.0254C123.55 84.2949 123.973 85.4993 124.006 86.6387V99.4316C124.006 100.896 123.371 102.41 122.102 103.973C120.441 105.958 118.358 106.967 115.852 107H114.094ZM127.326 99.4316V86.6387C127.359 85.0436 128.091 83.4811 129.523 81.9512C131.281 80.1283 133.43 79.2005 135.969 79.168V85.3203C135.025 85.3203 134.374 85.7272 134.016 86.541C133.918 86.7363 133.869 86.9154 133.869 87.0781V89.5195H141.145V87.127C141.112 85.9225 140.266 85.3203 138.605 85.3203V79.168C140.982 79.168 143.065 79.9818 144.855 81.6094C146.418 83.0417 147.215 84.7018 147.248 86.5898V95.8184H133.869V99.4316C134.097 100.376 134.813 100.896 136.018 100.994V107C132.958 107 130.533 105.747 128.742 103.24C127.798 101.906 127.326 100.636 127.326 99.4316ZM138.605 107V101.043C140.363 101.01 141.486 100.18 141.975 98.5527L147.297 100.555C146.809 102.638 145.572 104.314 143.586 105.584C142.056 106.528 140.396 107 138.605 107ZM151.203 107V79.168H157.844V82.2441C158.983 80.7793 160.529 79.7702 162.482 79.2168C163.166 79.0215 163.85 78.9238 164.533 78.9238H166.291L164.777 85.4668C162.727 85.4993 160.952 86.3945 159.455 88.1523C158.381 89.4219 157.844 90.7402 157.844 92.1074V107H151.203Z" fill="white"/>
</svg>
