<svg width="40" height="40" viewBox="0 0 40 40" fill="none" xmlns="http://www.w3.org/2000/svg">
<path d="M19.3887 7.354C19.5984 6.85469 20.2933 6.82326 20.5635 7.26025L20.6113 7.354L20.6123 7.35693L23.7627 14.7905L23.998 15.3462L24.5986 15.397L32.6484 16.0806H32.6543C33.1944 16.1238 33.4465 16.7663 33.1055 17.1675L33.0283 17.2446L26.9121 22.5444L26.4561 22.9399L26.5928 23.5278L28.4258 31.394C28.551 31.9337 28.0146 32.3615 27.5303 32.1606L27.4346 32.1118H27.4336L20.5176 27.9282L20.001 27.6157L19.4834 27.9272L12.5674 32.0942L12.5654 32.0952C12.0597 32.4012 11.4407 31.953 11.5742 31.3774L13.4072 23.5103L13.5439 22.9233L13.0879 22.5278L6.97168 17.228H6.9707C6.54889 16.8628 6.74094 16.2001 7.24121 16.0806L7.3457 16.064H7.35156L15.4014 15.3804L16.001 15.3296L16.2373 14.7749L19.3867 7.35791L19.3887 7.354Z" stroke="#FFCD29" stroke-width="2"/>
</svg>
