<svg width="24" height="24" viewBox="0 0 24 24" fill="none" xmlns="http://www.w3.org/2000/svg">
<path d="M19.5 7.5V7.929C19.5 11.264 20.788 12.144 23.5 13.5V18.5H21M19.5 7.5H21.5V7C21.5 7 20 6 19.5 4.5H0.5V18.5H2.5M19.5 7.5H14.5V11.5H20.519M21 18.5C21 19.163 20.7366 19.7989 20.2678 20.2678C19.7989 20.7366 19.163 21 18.5 21C17.837 21 17.2011 20.7366 16.7322 20.2678C16.2634 19.7989 16 19.163 16 18.5M21 18.5C21 17.837 20.7366 17.2011 20.2678 16.7322C19.7989 16.2634 19.163 16 18.5 16C17.837 16 17.2011 16.2634 16.7322 16.7322C16.2634 17.2011 16 17.837 16 18.5M2.5 18.5C2.5 19.163 2.76339 19.7989 3.23223 20.2678C3.70107 20.7366 4.33696 21 5 21C5.66304 21 6.29893 20.7366 6.76777 20.2678C7.23661 19.7989 7.5 19.163 7.5 18.5M2.5 18.5C2.5 17.837 2.76339 17.2011 3.23223 16.7322C3.70107 16.2634 4.33696 16 5 16C5.66304 16 6.29893 16.2634 6.76777 16.7322C7.23661 17.2011 7.5 17.837 7.5 18.5M16 18.5H7.5M11.5 11.5V7.5H3.5V11.5H11.5Z" stroke="#4B3C2F" stroke-opacity="0.5"/>
</svg>
