<svg width="24" height="24" viewBox="0 0 24 24" fill="none" xmlns="http://www.w3.org/2000/svg">
<path d="M7.92854 3C7.18972 3 6.48116 3.29349 5.95874 3.81592C5.43632 4.33834 5.14282 5.0469 5.14282 5.78571V21.2143C5.14278 21.334 5.17615 21.4513 5.23917 21.553C5.30219 21.6548 5.39236 21.7369 5.49953 21.7902C5.60669 21.8434 5.72661 21.8657 5.84576 21.8546C5.96492 21.8434 6.07858 21.7991 6.17397 21.7269L12 17.3057L17.826 21.726C17.9213 21.7982 18.0349 21.8425 18.154 21.8537C18.273 21.8649 18.3929 21.8427 18.5 21.7895C18.6072 21.7363 18.6973 21.6543 18.7604 21.5527C18.8235 21.4511 18.857 21.3339 18.8571 21.2143V5.78571C18.8571 5.41989 18.7851 5.05765 18.6451 4.71967C18.5051 4.38169 18.2999 4.07459 18.0412 3.81592C17.7825 3.55724 17.4754 3.35205 17.1374 3.21205C16.7995 3.07205 16.4372 3 16.0714 3H7.92854Z" fill="#4B3C2F"/>
</svg>
