<svg width="14" height="19" viewBox="0 0 14 19" fill="none" xmlns="http://www.w3.org/2000/svg">
<path d="M0.142822 2.78571C0.142822 2.0469 0.436316 1.33834 0.958739 0.815917C1.48116 0.293494 2.18972 0 2.92854 0H11.0714C11.4372 0 11.7995 0.0720546 12.1374 0.21205C12.4754 0.352045 12.7825 0.557239 13.0412 0.815917C13.2999 1.07459 13.5051 1.38169 13.6451 1.71967C13.7851 2.05765 13.8571 2.41989 13.8571 2.78571V18.2143C13.8572 18.334 13.8238 18.4513 13.7608 18.553C13.6977 18.6548 13.6076 18.7369 13.5004 18.7902C13.3932 18.8434 13.2733 18.8657 13.1542 18.8546C13.035 18.8434 12.9213 18.7991 12.826 18.7269L6.99997 14.3057L1.17397 18.726C1.07864 18.7982 0.965053 18.8425 0.845974 18.8537C0.726895 18.8649 0.607048 18.8427 0.499909 18.7895C0.39277 18.7363 0.302589 18.6543 0.239506 18.5527C0.176423 18.4511 0.14294 18.3339 0.142822 18.2143V2.78571ZM2.92854 1.28571C2.53071 1.28571 2.14918 1.44375 1.86788 1.72505C1.58657 2.00636 1.42854 2.38789 1.42854 2.78571V16.92L6.61168 12.9883C6.72341 12.9036 6.85977 12.8578 6.99997 12.8578C7.14016 12.8578 7.27652 12.9036 7.38825 12.9883L12.5714 16.92V2.78571C12.5714 2.38789 12.4134 2.00636 12.1321 1.72505C11.8507 1.44375 11.4692 1.28571 11.0714 1.28571H2.92854Z" fill="#4B3C2F"/>
</svg>
