<svg width="20" height="20" viewBox="0 0 20 20" fill="none" xmlns="http://www.w3.org/2000/svg">
<path d="M11.2584 2.61563C10.715 1.62812 9.28504 1.62812 8.74087 2.61563C8.02528 3.91595 7.43538 5.28158 6.97921 6.69396C6.95769 6.74922 6.91985 6.7966 6.87072 6.82981C6.82159 6.86301 6.7635 6.88044 6.70421 6.87979C5.48168 6.91157 4.26313 7.033 3.05837 7.24313C1.94421 7.43729 1.45337 8.77396 2.30004 9.60146C2.40671 9.7059 2.51448 9.80979 2.62337 9.91313C3.43905 10.6855 4.30272 11.4055 5.20921 12.069C5.25039 12.0963 5.28159 12.1363 5.29812 12.1828C5.31465 12.2294 5.31561 12.2801 5.30087 12.3273C4.84324 13.7004 4.51623 15.1136 4.32421 16.5481C4.16587 17.7348 5.42254 18.4631 6.40337 17.9598C7.59411 17.3495 8.73266 16.6424 9.80754 15.8456C9.86383 15.8058 9.93109 15.7844 10 15.7844C10.069 15.7844 10.1362 15.8058 10.1925 15.8456C11.2668 16.6434 12.4054 17.3505 13.5967 17.9598C14.5775 18.4631 15.8342 17.7348 15.6759 16.5481C15.4841 15.1136 15.1574 13.7004 14.7 12.3273C14.6853 12.2801 14.6863 12.2294 14.7028 12.1828C14.7193 12.1363 14.7505 12.0963 14.7917 12.069C15.8188 11.3172 16.7907 10.4929 17.7 9.60229C18.5467 8.77396 18.0559 7.43729 16.9417 7.24313C15.7367 7.03296 14.5178 6.91153 13.295 6.87979C13.2359 6.88027 13.178 6.86276 13.129 6.82957C13.0801 6.79638 13.0423 6.74908 13.0209 6.69396C12.5661 5.28104 11.9754 3.91527 11.2584 2.61563Z" fill="#FFCD29"/>
</svg>
