<svg width="24" height="24" viewBox="0 0 24 24" fill="none" xmlns="http://www.w3.org/2000/svg">
<path d="M1.28577 18.8878V5.87641L3.43548 7.59755C4.52063 8.46498 5.86977 8.93812 7.25834 8.93812H12.0001L14.2149 4.50841C14.4698 4.00054 14.8608 3.57344 15.3441 3.27469C15.8275 2.97594 16.3844 2.81729 16.9526 2.81641H18.1218V6.64269L22.7143 8.17355V9.70441C22.7143 11.3947 21.3429 12.7644 19.6526 12.7644H16.5943V18.8878C16.6027 19.1947 16.5495 19.5001 16.4379 19.786C16.3263 20.0719 16.1585 20.3326 15.9444 20.5526C15.7304 20.7726 15.4744 20.9474 15.1916 21.0668C14.9088 21.1862 14.605 21.2477 14.2981 21.2477C13.9911 21.2477 13.6873 21.1862 13.4045 21.0668C13.1217 20.9474 12.8658 20.7726 12.6517 20.5526C12.4376 20.3326 12.2698 20.0719 12.1582 19.786C12.0466 19.5001 11.9934 19.1947 12.0018 18.8878V18.1216C12.0018 17.2764 11.3161 16.5924 10.4709 16.5924H7.40748C6.56234 16.5924 5.87834 17.2781 5.87834 18.1216V18.8878C5.88672 19.1947 5.83353 19.5001 5.7219 19.786C5.61027 20.0719 5.44247 20.3326 5.22842 20.5526C5.01436 20.7726 4.75838 20.9474 4.47561 21.0668C4.19284 21.1862 3.889 21.2477 3.58206 21.2477C3.27511 21.2477 2.97128 21.1862 2.6885 21.0668C2.40573 20.9474 2.14975 20.7726 1.93569 20.5526C1.72164 20.3326 1.55384 20.0719 1.44221 19.786C1.33058 19.5001 1.27738 19.1947 1.28577 18.8878Z" stroke="#4B3C2F" stroke-linecap="round" stroke-linejoin="round"/>
<path d="M12.0206 8.7373C12.3206 9.96645 13.7349 12.5002 16.9835 12.8087" stroke="#4B3C2F" stroke-linecap="round" stroke-linejoin="round"/>
</svg>
