<svg width="24" height="24" viewBox="0 0 24 24" fill="none" xmlns="http://www.w3.org/2000/svg">
<path d="M18.5 18.5H24M18.5 18.5V4.5H3.5C3.5 4.5 0.5 9 0.5 16.616V18.5H7M18.5 18.5H12M7 18.5C7 19.163 7.26339 19.7989 7.73223 20.2678C8.20107 20.7366 8.83696 21 9.5 21C10.163 21 10.7989 20.7366 11.2678 20.2678C11.7366 19.7989 12 19.163 12 18.5M7 18.5C7 17.837 7.26339 17.2011 7.73223 16.7322C8.20107 16.2634 8.83696 16 9.5 16C10.163 16 10.7989 16.2634 11.2678 16.7322C11.7366 17.2011 12 17.837 12 18.5M21 20.5H24M10 7.5V11.5M4 11.5C4.27393 10.1352 4.66607 8.79682 5.172 7.5H15.5V11.5H4Z" stroke="#4B3C2F"/>
</svg>
