<svg width="50" height="50" viewBox="0 0 50 50" fill="none" xmlns="http://www.w3.org/2000/svg">
<rect width="50" height="50" rx="10" fill="#4B3C2F"/>
<path d="M22.5635 9.93577C22.6333 9.93262 22.6333 9.93262 22.7046 9.92941C23.0063 9.97528 23.2059 10.1195 23.3973 10.3473C23.4417 10.4127 23.4851 10.4788 23.5278 10.5453C23.5516 10.5809 23.5755 10.6166 23.6 10.6533C23.6766 10.7682 23.7519 10.8838 23.8273 10.9995C23.8799 11.0789 23.9326 11.1582 23.9853 11.2375C24.0889 11.3935 24.1921 11.5498 24.2948 11.7064C24.4423 11.9312 24.5917 12.1548 24.7414 12.3782C24.8403 12.5259 24.9388 12.674 25.0367 12.8224C25.0909 12.9037 25.1459 12.9846 25.2011 13.0652C25.2321 13.1106 25.2631 13.1561 25.295 13.2029C25.3237 13.2447 25.3524 13.2864 25.382 13.3294C25.4458 13.4359 25.4458 13.4359 25.4458 13.5483C25.6044 13.3981 25.727 13.2499 25.8427 13.0649C25.8743 13.0148 25.9059 12.9646 25.9384 12.913C25.9716 12.8596 26.0048 12.8063 26.0391 12.7514C26.1095 12.6394 26.18 12.5274 26.2506 12.4154C26.2854 12.3599 26.3203 12.3044 26.3562 12.2473C26.5215 11.9854 26.6898 11.7256 26.859 11.4663C26.9783 11.2833 27.0958 11.0996 27.2094 10.9131C27.6994 10.113 27.6994 10.113 28.0296 9.95333C28.3484 9.89395 28.6073 9.90687 28.9003 10.0481C29.164 10.2921 29.3082 10.4699 29.3391 10.8345C29.329 11.3312 28.9486 11.7609 28.6799 12.1569C28.5655 12.3255 28.452 12.4946 28.3386 12.6638C28.3164 12.6969 28.2942 12.73 28.2713 12.764C28.0762 13.0555 27.8882 13.3507 27.7056 13.6502C27.6042 13.816 27.5002 13.9776 27.3867 14.1355C27.344 14.1954 27.3013 14.2554 27.2573 14.3171C27.2193 14.3683 27.1814 14.4195 27.1423 14.4723C27.0591 14.6111 27.0591 14.6111 27.1048 14.7538C27.2013 14.9211 27.3075 15.0744 27.4223 15.2299C27.6714 15.5718 27.9116 15.919 28.149 16.2691C28.4459 16.7063 28.7454 17.1416 29.0477 17.5751C29.4717 18.183 29.8906 18.7942 30.3081 19.4066C30.6672 19.933 31.0284 20.4578 31.3929 20.9804C31.7966 21.5595 32.1949 22.142 32.5918 22.7257C33.0722 23.4316 33.5559 24.1353 34.04 24.8387C34.1406 24.985 34.2413 25.1313 34.3419 25.2775C34.38 25.333 34.38 25.333 34.4189 25.3895C34.5554 25.588 34.6916 25.7868 34.8275 25.9858C34.8868 26.0727 34.9461 26.1596 35.0054 26.2465C35.0356 26.2908 35.0659 26.3351 35.097 26.3807C35.301 26.6789 35.507 26.9755 35.7139 27.2715C36.1077 27.8348 36.4927 28.4031 36.8723 28.9759C37.1057 29.3273 37.3453 29.6721 37.5928 30.0137C37.8081 30.3139 38.0139 30.6206 38.2212 30.9263C38.2627 30.9875 38.3043 31.0488 38.3471 31.1119C38.4284 31.2318 38.5097 31.3517 38.591 31.4717C38.7373 31.6871 38.8845 31.9019 39.0322 32.1164C39.0686 32.1692 39.0686 32.1692 39.1057 32.2232C39.1534 32.2924 39.2011 32.3615 39.2487 32.4307C39.3733 32.6114 39.4976 32.7922 39.622 32.973C39.6598 33.028 39.6598 33.028 39.6984 33.0842C39.928 33.4182 40.157 33.7527 40.3856 34.0874C40.4439 34.1726 40.5034 34.257 40.5638 34.3407C40.6485 34.4702 40.715 34.5929 40.7825 34.7312C41.0142 35.1785 41.0142 35.1785 41.4217 35.4462C41.811 35.5144 42.2028 35.4896 42.5955 35.4691C42.7722 35.4636 42.9489 35.4593 43.1256 35.4561C43.235 35.4537 43.3444 35.4498 43.4536 35.4441C43.775 35.4325 43.9532 35.4606 44.207 35.6798C44.4423 35.9469 44.5053 36.0992 44.4997 36.4486C44.4746 36.7233 44.3527 36.8972 44.1508 37.0735C43.9434 37.2248 43.8077 37.2596 43.558 37.2598C43.5052 37.26 43.4523 37.2602 43.3978 37.2604C43.3395 37.2603 43.2812 37.2602 43.2211 37.2601C43.1591 37.2602 43.0971 37.2604 43.0332 37.2605C42.8232 37.2609 42.6132 37.2608 42.4033 37.2608C42.2521 37.261 42.1009 37.2612 41.9496 37.2615C41.5763 37.262 41.203 37.2622 40.8296 37.2623C40.3826 37.2625 39.9356 37.263 39.4886 37.2635C38.4081 37.2646 37.3277 37.2652 36.2472 37.2657C35.7363 37.266 35.2254 37.2663 34.7145 37.2665C32.9663 37.2676 31.2182 37.2684 29.47 37.2688C29.3602 37.2688 29.2505 37.2689 29.1407 37.2689C29.0862 37.2689 29.0318 37.2689 28.9757 37.2689C28.6999 37.269 28.4241 37.2691 28.1482 37.2691C28.0935 37.2692 28.0388 37.2692 27.9824 37.2692C26.2068 37.2696 24.4313 37.2709 22.6557 37.2728C20.7794 37.2747 18.9031 37.2758 17.0269 37.276C16.821 37.276 16.6152 37.276 16.4093 37.2761C16.3586 37.2761 16.308 37.2761 16.2557 37.2761C15.439 37.2762 14.6222 37.2771 13.8055 37.2782C12.985 37.2794 12.1646 37.2797 11.3442 37.2792C10.8564 37.2789 10.3686 37.2792 9.88084 37.2804C9.55527 37.2812 9.22972 37.2811 8.90415 37.2804C8.71848 37.28 8.53283 37.2801 8.34715 37.2809C8.14734 37.2818 7.94758 37.2812 7.74776 37.2804C7.68985 37.2809 7.63194 37.2815 7.57227 37.2821C7.23891 37.2789 7.05162 37.2482 6.79689 37.0279C6.55523 36.7601 6.49566 36.5539 6.50024 36.2011C6.53335 35.9325 6.69288 35.7781 6.88817 35.606C7.07122 35.476 7.16259 35.4481 7.38387 35.4487C7.46145 35.4487 7.46145 35.4487 7.5406 35.4487C7.62451 35.4491 7.62451 35.4491 7.71012 35.4496C7.79591 35.4497 7.79591 35.4497 7.88343 35.4498C8.06658 35.4502 8.24973 35.4509 8.43288 35.4516C8.55685 35.4518 8.68083 35.4521 8.8048 35.4523C9.10913 35.453 9.41347 35.4539 9.7178 35.4551C9.73402 35.4216 9.75025 35.3881 9.76696 35.3537C9.85741 35.1772 9.96879 35.0154 10.0794 34.8512C10.1043 34.8141 10.1293 34.7769 10.155 34.7386C10.621 34.0453 11.0989 33.3604 11.5762 32.6749C11.8705 32.2523 12.1629 31.8284 12.4541 31.4037C12.5279 31.2961 12.6018 31.1886 12.6758 31.0812C12.9566 30.6731 13.2368 30.2645 13.5164 29.8555C13.7586 29.5012 14.002 29.1479 14.2466 28.7953C14.4138 28.5537 14.5794 28.3111 14.7451 28.0686C15.0987 27.5514 15.4544 27.0358 15.813 26.5221C16.3359 25.7726 16.8518 25.0186 17.3649 24.2624C17.709 23.7559 18.0573 23.2525 18.4074 22.7502C18.8198 22.1585 19.2284 21.5643 19.634 20.9679C19.8792 20.6074 20.1263 20.2483 20.3736 19.8892C20.4473 19.7822 20.5208 19.675 20.5942 19.5678C20.8773 19.1547 21.1629 18.7433 21.4506 18.3334C21.7081 17.9664 21.9634 17.598 22.2159 17.2275C22.5006 16.8098 22.7893 16.395 23.0798 15.9813C23.3846 15.5468 23.6856 15.1097 23.9853 14.6717C23.8326 14.3985 23.6706 14.1358 23.496 13.8761C23.471 13.8387 23.446 13.8012 23.4202 13.7626C23.3395 13.642 23.2587 13.5214 23.1778 13.4008C23.1222 13.3177 23.0666 13.2345 23.011 13.1513C22.8742 12.9467 22.7373 12.7421 22.6003 12.5375C22.4193 12.2672 22.2386 11.9967 22.0579 11.7262C22.0096 11.6541 22.0096 11.6541 21.9603 11.5805C21.9313 11.5371 21.9024 11.4938 21.8725 11.4491C21.8477 11.4121 21.8229 11.375 21.7974 11.3369C21.649 11.1062 21.6578 10.8958 21.6823 10.6274C21.8217 10.2247 22.132 9.94833 22.5635 9.93577Z" fill="#FEFEFE"/>
<path d="M25.4461 24.6704C25.4832 24.6704 25.5203 24.6704 25.5585 24.6704C25.7629 25.0867 25.9673 25.5031 26.1716 25.9195C26.2052 25.9877 26.2387 26.056 26.2722 26.1243C26.734 27.0652 27.1943 28.0069 27.6523 28.9497C27.9706 29.6044 28.2939 30.2563 28.6208 30.9068C28.8666 31.3963 29.1069 31.8879 29.3407 32.3833C29.6917 33.1219 30.0631 33.8506 30.4306 34.5811C30.4708 34.6612 30.4708 34.6612 30.5119 34.743C30.5632 34.845 30.6145 34.947 30.6659 35.0489C30.6887 35.0943 30.7115 35.1396 30.7349 35.1864C30.755 35.2263 30.7751 35.2661 30.7958 35.3072C30.8386 35.3991 30.8386 35.3991 30.8386 35.4553C27.3166 35.4553 23.7947 35.4553 20.166 35.4553C20.7467 34.165 20.7467 34.165 21.0285 33.6061C21.0605 33.5422 21.0924 33.4784 21.1254 33.4126C21.1935 33.2764 21.2618 33.1403 21.3303 33.0043C21.4393 32.7876 21.5479 32.5707 21.6565 32.3538C21.8289 32.0097 22.0014 31.6658 22.1741 31.3219C22.4822 30.7083 22.79 30.0945 23.0975 29.4806C23.2048 29.2666 23.3122 29.0526 23.4197 28.8386C23.7987 28.0842 24.1717 27.3273 24.5335 26.5645C24.6832 26.249 24.8386 25.9367 24.9967 25.6253C25.1565 25.3105 25.3113 24.9968 25.4461 24.6704Z" fill="#43352B"/>
</svg>
