<svg width="50" height="50" viewBox="0 0 50 50" fill="none" xmlns="http://www.w3.org/2000/svg">
<rect width="50" height="50" rx="25" fill="white"/>
<g clip-path="url(#clip0_225_2700)">
<path fill-rule="evenodd" clip-rule="evenodd" d="M20.8836 10.3064C21.0192 10.1944 21.1756 10.1102 21.3438 10.0586C21.512 10.007 21.6886 9.9891 21.8638 10.0058C22.0389 10.0225 22.209 10.0736 22.3644 10.156C22.5197 10.2385 22.6573 10.3508 22.7693 10.4864L25 13.1821L27.2308 10.4864C27.3429 10.3508 27.4807 10.2386 27.6362 10.1562C27.7917 10.0738 27.9619 10.0228 28.1371 10.0062C28.3123 9.98959 28.4891 10.0076 28.6573 10.0593C28.8255 10.111 28.9819 10.1954 29.1175 10.3075C29.2532 10.4196 29.3654 10.5574 29.4478 10.7129C29.5302 10.8684 29.5812 11.0386 29.5978 11.2138C29.6144 11.389 29.5963 11.5658 29.5446 11.734C29.4929 11.9023 29.4086 12.0587 29.2965 12.1943L27.1429 14.7936C30.805 18.1686 36.6893 25.4864 39.3058 33.7C39.7922 35.2257 39.1129 36.9464 37.5508 37.6064C35.0008 38.6864 30.4965 40 25 40C19.5036 40 14.9993 38.6864 12.4472 37.6064C10.8829 36.9464 10.2058 35.2257 10.69 33.7C13.3108 25.4843 19.1929 18.1686 22.8572 14.7936L20.7058 12.1921C20.5936 12.0567 20.5093 11.9004 20.4575 11.7323C20.4058 11.5642 20.3876 11.3876 20.4041 11.2125C20.4206 11.0373 20.4715 10.8672 20.5538 10.7118C20.636 10.5563 20.7481 10.4186 20.8836 10.3064ZM25 16.6236H24.9936C24.877 16.6263 24.7656 16.6721 24.6808 16.7521C21.2586 19.9021 15.685 26.8493 13.2443 34.5122C13.1479 34.8164 13.2936 35.0564 13.4908 35.14C15.475 35.9779 18.8972 37.0172 23.125 37.2657V31.9643C23.125 31.7181 23.1735 31.4742 23.2678 31.2468C23.362 31.0193 23.5001 30.8126 23.6742 30.6385C23.8483 30.4644 24.055 30.3262 24.2825 30.232C24.51 30.1378 24.7538 30.0893 25 30.0893C25.2463 30.0893 25.4901 30.1378 25.7176 30.232C25.9451 30.3262 26.1518 30.4644 26.3259 30.6385C26.5 30.8126 26.6381 31.0193 26.7323 31.2468C26.8265 31.4742 26.875 31.7181 26.875 31.9643V37.2679C31.1029 37.0193 34.525 35.9822 36.5093 35.1422C36.7065 35.0586 36.8522 34.8186 36.7558 34.5143C34.315 26.8514 28.7415 19.9064 25.3193 16.7564C25.2349 16.6756 25.1234 16.629 25.0065 16.6257L25 16.6236Z" fill="#4B3C2F"/>
</g>
<defs>
<clipPath id="clip0_225_2700">
<rect width="30" height="30" fill="white" transform="translate(10 10)"/>
</clipPath>
</defs>
</svg>
