<svg width="50" height="50" viewBox="0 0 50 50" fill="none" xmlns="http://www.w3.org/2000/svg">
<rect width="50" height="50" rx="25" fill="white"/>
<path d="M12.7679 33.971V16.0803L15.7238 18.4469C17.2158 19.6396 19.0709 20.2902 20.9802 20.2902H27.5L30.5455 14.1993C30.896 13.501 31.4335 12.9137 32.0982 12.5029C32.7628 12.0922 33.5285 11.874 34.3098 11.8728H35.9174V17.1339L42.2322 19.2389V21.3438C42.2322 23.6679 40.3465 25.5513 38.0223 25.5513H33.8172V33.971C33.8287 34.3929 33.7556 34.8128 33.6021 35.206C33.4486 35.5991 33.2179 35.9575 32.9235 36.26C32.6292 36.5625 32.2772 36.8029 31.8884 36.9671C31.4996 37.1313 31.0818 37.2159 30.6598 37.2159C30.2377 37.2159 29.82 37.1313 29.4312 36.9671C29.0423 36.8029 28.6904 36.5625 28.3961 36.26C28.1017 35.9575 27.871 35.5991 27.7175 35.206C27.564 34.8128 27.4909 34.3929 27.5024 33.971V32.9174C27.5024 31.7553 26.5595 30.8148 25.3975 30.8148H21.1853C20.0232 30.8148 19.0827 31.7577 19.0827 32.9174V33.971C19.0942 34.3929 19.0211 34.8128 18.8676 35.206C18.7141 35.5991 18.4834 35.9575 18.189 36.26C17.8947 36.5625 17.5427 36.8029 17.1539 36.9671C16.7651 37.1313 16.3473 37.2159 15.9253 37.2159C15.5032 37.2159 15.0855 37.1313 14.6967 36.9671C14.3078 36.8029 13.9559 36.5625 13.6615 36.26C13.3672 35.9575 13.1365 35.5991 12.983 35.206C12.8295 34.8128 12.7564 34.3929 12.7679 33.971Z" stroke="#4B3C2F" stroke-width="2" stroke-linecap="round" stroke-linejoin="round"/>
<path d="M27.5283 20.0144C27.9408 21.7045 29.8855 25.1883 34.3522 25.6126" stroke="#4B3C2F" stroke-width="2" stroke-linecap="round" stroke-linejoin="round"/>
</svg>
