<svg width="21" height="21" viewBox="0 0 21 21" fill="none" xmlns="http://www.w3.org/2000/svg">
<path d="M13.6089 13.6088C14.1826 13.0352 14.6376 12.3541 14.9481 11.6046C15.2586 10.855 15.4184 10.0517 15.4184 9.2404C15.4184 8.42911 15.2586 7.62576 14.9481 6.87622C14.6376 6.12668 14.1826 5.44564 13.6089 4.87197C13.0352 4.29829 12.3542 3.84323 11.6046 3.53276C10.8551 3.2223 10.0518 3.0625 9.24046 3.0625C8.42917 3.0625 7.62582 3.2223 6.87628 3.53276C6.12675 3.84323 5.4457 4.29829 4.87203 4.87197C3.71345 6.03055 3.06256 7.60192 3.06256 9.2404C3.06256 10.8789 3.71345 12.4503 4.87203 13.6088C6.03061 14.7674 7.60198 15.4183 9.24046 15.4183C10.8789 15.4183 12.4503 14.7674 13.6089 13.6088ZM13.6089 13.6088L17.5 17.5" stroke="#A8AEB2" stroke-width="1.5" stroke-linecap="round" stroke-linejoin="round"/>
</svg>
