<svg width="50" height="50" viewBox="0 0 50 50" fill="none" xmlns="http://www.w3.org/2000/svg">
<rect width="50" height="50" rx="25" fill="white"/>
<path fill-rule="evenodd" clip-rule="evenodd" d="M33.33 28.8224C33.6304 28.715 33.9605 28.7264 34.2527 28.8545C34.5449 28.9825 34.7771 29.2174 34.9017 29.5111C35.0263 29.8047 35.034 30.1349 34.923 30.4341C34.8121 30.7332 34.591 30.9785 34.305 31.1199L34.17 31.1774L28.7163 33.1249L34.17 35.0724C34.4718 35.1785 34.7215 35.3962 34.8676 35.6808C35.0138 35.9654 35.0452 36.2952 34.9555 36.6022C34.8658 36.9093 34.6618 37.1703 34.3854 37.3315C34.1091 37.4927 33.7815 37.5418 33.47 37.4687L33.33 37.4274L25 34.4524L16.67 37.4274C16.3696 37.5349 16.0396 37.5234 15.7474 37.3954C15.4552 37.2673 15.223 37.0324 15.0983 36.7388C14.9737 36.4451 14.9661 36.1149 15.077 35.8158C15.188 35.5167 15.409 35.2713 15.695 35.1299L15.83 35.0724L21.2838 33.1249L15.83 31.1774C15.5282 31.0714 15.2785 30.8536 15.1324 30.569C14.9863 30.2845 14.9548 29.9547 15.0445 29.6476C15.1342 29.3405 15.3383 29.0795 15.6146 28.9183C15.891 28.7572 16.2186 28.7081 16.53 28.7812L16.67 28.8224L25 31.7974L33.33 28.8224ZM24.0375 13.6149L24.9213 13.0399L25.1963 12.8737C25.8088 12.5274 26.4838 12.2987 27.0675 12.8062C27.4175 13.1087 27.5338 13.5349 27.4713 13.9687L27.4213 14.2249L27.4025 14.3999C27.3942 14.5066 27.3975 14.6345 27.4125 14.7837C27.52 15.7474 28.1763 16.4362 28.8563 17.0599L29.4275 17.5799L29.855 17.9837C30.87 18.9737 31.99 20.3087 32.4613 22.1962C33.0288 24.4637 32.4688 26.4974 30.9838 27.9299C29.5513 29.3149 27.4013 29.9999 25 29.9999C21.0388 29.9999 17.5 27.4349 17.5 23.1249C17.5 19.7549 19.7275 17.0937 21.6775 15.3874C22.4254 14.7455 23.2146 14.1534 24.04 13.6149M25.2775 21.5799L25 21.2499L24.7238 21.5799L24.4275 21.9562L24.1938 22.2712L23.9438 22.6262C23.2613 23.6249 22.5 24.9962 22.5 26.1462C22.5 27.5837 23.62 28.7499 25 28.7499C26.38 28.7499 27.5 27.5837 27.5 26.1462C27.5 24.9962 26.7388 23.6249 26.0563 22.6262L25.8063 22.2712L25.5725 21.9562L25.2775 21.5799Z" fill="#4B3C2F"/>
</svg>
