<svg width="20" height="20" viewBox="0 0 20 20" fill="none" xmlns="http://www.w3.org/2000/svg">
<path fill-rule="evenodd" clip-rule="evenodd" d="M9.99984 1.6665C5.39734 1.6665 1.6665 5.39734 1.6665 9.99984C1.6665 14.6023 5.39734 18.3332 9.99984 18.3332C14.6023 18.3332 18.3332 14.6023 18.3332 9.99984C18.3332 5.39734 14.6023 1.6665 9.99984 1.6665ZM7.08317 7.9165C7.08317 7.53348 7.15861 7.15421 7.30519 6.80034C7.45177 6.44648 7.66661 6.12495 7.93744 5.85411C8.20828 5.58327 8.52981 5.36843 8.88368 5.22186C9.23754 5.07528 9.61682 4.99984 9.99984 4.99984C10.3829 4.99984 10.7621 5.07528 11.116 5.22186C11.4699 5.36843 11.7914 5.58327 12.0622 5.85411C12.3331 6.12495 12.5479 6.44648 12.6945 6.80034C12.8411 7.15421 12.9165 7.53348 12.9165 7.9165C12.9165 8.69005 12.6092 9.43192 12.0622 9.9789C11.5153 10.5259 10.7734 10.8332 9.99984 10.8332C9.22629 10.8332 8.48442 10.5259 7.93744 9.9789C7.39046 9.43192 7.08317 8.69005 7.08317 7.9165ZM15.2148 14.1532C14.5908 14.9376 13.7978 15.5711 12.8948 16.0063C11.9918 16.4414 11.0022 16.6671 9.99984 16.6665C8.99746 16.6671 8.00788 16.4414 7.1049 16.0063C6.20192 15.5711 5.40885 14.9376 4.78484 14.1532C6.13567 13.184 7.979 12.4998 9.99984 12.4998C12.0207 12.4998 13.864 13.184 15.2148 14.1532Z" fill="white"/>
</svg>
