<svg width="27" height="27" viewBox="0 0 27 27" fill="none" xmlns="http://www.w3.org/2000/svg">
<path d="M21.375 20.25C22.9657 20.25 23.7611 20.25 24.255 19.755C24.75 19.2611 24.75 18.4657 24.75 16.875C24.75 15.2842 24.75 14.4889 24.255 13.995C23.7622 13.5 22.9669 13.5 21.375 13.5M5.625 20.25C4.03425 20.25 3.23887 20.25 2.745 19.755C2.25 19.2622 2.25 18.4669 2.25 16.875C2.25 15.2831 2.25 14.4889 2.745 13.995C3.23775 13.5 4.03312 13.5 5.625 13.5M13.5 5.625C13.9476 5.625 14.3768 5.44721 14.6932 5.13074C15.0097 4.81427 15.1875 4.38505 15.1875 3.9375C15.1875 3.48995 15.0097 3.06072 14.6932 2.74426C14.3768 2.42779 13.9476 2.25 13.5 2.25C13.0524 2.25 12.6232 2.42779 12.3068 2.74426C11.9903 3.06072 11.8125 3.48995 11.8125 3.9375C11.8125 4.38505 11.9903 4.81427 12.3068 5.13074C12.6232 5.44721 13.0524 5.625 13.5 5.625ZM13.5 5.625V9M10.125 14.625V15.75M16.875 14.625V15.75M21.375 18V15.75C21.375 12.5685 21.375 10.9766 20.3861 9.98887C19.3984 9 17.8065 9 14.625 9H12.375C9.1935 9 7.60162 9 6.61387 9.98887C5.625 10.9766 5.625 12.5685 5.625 15.75V18C5.625 21.1815 5.625 22.7734 6.61387 23.7611C7.60162 24.75 9.1935 24.75 12.375 24.75H14.625C17.8065 24.75 19.3984 24.75 20.3861 23.7611C21.375 22.7734 21.375 21.1815 21.375 18Z" stroke="white" stroke-width="2" stroke-linecap="round" stroke-linejoin="round"/>
<path d="M11.25 19.6875C11.25 19.6875 12.0004 20.25 13.5 20.25C14.9996 20.25 15.75 19.6875 15.75 19.6875" stroke="white" stroke-width="1.5" stroke-linecap="round" stroke-linejoin="round"/>
</svg>
