<svg width="19" height="20" viewBox="0 0 19 20" fill="none" xmlns="http://www.w3.org/2000/svg">
<path fill-rule="evenodd" clip-rule="evenodd" d="M8.9693 4.47413C9.24898 4.05467 9.62792 3.71075 10.0725 3.47292C10.517 3.2351 11.0134 3.11072 11.5175 3.11084H11.6806C11.903 3.11081 12.1227 3.15923 12.3244 3.25272C12.5262 3.34621 12.7052 3.48253 12.8489 3.6522C12.9926 3.82187 13.0977 4.02082 13.1567 4.23521C13.2158 4.44959 13.2274 4.67427 13.1908 4.89361L12.7224 7.70363H14.5442C14.8839 7.70361 15.2195 7.77898 15.5266 7.92429C15.8337 8.06961 16.1047 8.28126 16.3201 8.54398C16.5355 8.8067 16.69 9.11395 16.7723 9.44357C16.8546 9.77319 16.8628 10.117 16.7962 10.4501L15.8776 15.0429C15.7736 15.5636 15.4923 16.0321 15.0817 16.3687C14.6711 16.7053 14.1566 16.8893 13.6256 16.8892H4.92994C4.3209 16.8892 3.7368 16.6473 3.30614 16.2166C2.87549 15.786 2.63354 15.2019 2.63354 14.5928V8.4691C2.63354 8.26608 2.71419 8.07139 2.85774 7.92783C3.0013 7.78428 3.196 7.70363 3.39901 7.70363H6.40729C6.53328 7.70365 6.65733 7.67257 6.76842 7.61315C6.87952 7.55373 6.97423 7.46781 7.04416 7.363L8.9693 4.47413ZM5.69541 9.23456H4.16448V14.5928C4.16448 14.7958 4.24512 14.9905 4.38868 15.1341C4.53223 15.2776 4.72693 15.3583 4.92994 15.3583H5.69541V9.23456Z" fill="#4B3C2F"/>
</svg>
