<svg width="18" height="18" viewBox="0 0 18 18" fill="none" xmlns="http://www.w3.org/2000/svg">
<path d="M11.25 7.5L10.3253 7.3455C10.3028 7.47983 10.3099 7.61744 10.346 7.74875C10.3822 7.88006 10.4465 8.00192 10.5345 8.10586C10.6225 8.20979 10.7321 8.2933 10.8557 8.35057C10.9792 8.40785 11.1138 8.43751 11.25 8.4375V7.5ZM3 7.5V6.5625C2.4825 6.5625 2.0625 6.9825 2.0625 7.5H3ZM4.5 15.9375H13.02V14.0625H4.5V15.9375ZM13.92 6.5625H11.25V8.4375H13.92V6.5625ZM12.1747 7.6545L12.7792 4.0275L10.9298 3.71925L10.3253 7.34625L12.1747 7.6545ZM11.115 2.0625H10.9545V3.9375H11.115V2.0625ZM8.3025 3.48225L6.4155 6.312L7.9755 7.35225L9.8625 4.52175L8.3025 3.48225ZM5.9475 6.5625H3V8.4375H5.9475V6.5625ZM2.0625 7.5V13.5H3.9375V7.5H2.0625ZM15.4103 13.9777L16.3102 9.47775L14.472 9.11025L13.572 13.6102L15.4103 13.9777ZM6.4155 6.312C6.36414 6.38905 6.29455 6.45223 6.21291 6.49593C6.13127 6.53963 6.0401 6.56249 5.9475 6.5625V8.4375C6.34874 8.4375 6.74378 8.33844 7.09756 8.14913C7.45133 7.95981 7.7529 7.68609 7.9755 7.35225L6.4155 6.312ZM12.7792 4.0275C12.8196 3.78571 12.8067 3.53804 12.7416 3.30172C12.6765 3.06541 12.5607 2.84611 12.4022 2.65909C12.2437 2.47207 12.0464 2.32182 11.824 2.2188C11.6016 2.11577 11.3601 2.06243 11.115 2.0625V3.9375C11.0878 3.93743 11.0602 3.93146 11.0356 3.91998C11.0109 3.90851 10.9891 3.89181 10.9715 3.87105C10.954 3.85029 10.9411 3.82596 10.9339 3.79975C10.9267 3.77353 10.9253 3.74607 10.9298 3.71925L12.7792 4.0275ZM13.92 8.4375C14.0033 8.43744 14.0855 8.45586 14.1608 8.49143C14.236 8.527 14.3025 8.57884 14.3553 8.6432C14.4081 8.70756 14.4459 8.78284 14.4661 8.8636C14.4863 8.94437 14.4883 9.02861 14.472 9.11025L16.3102 9.47775C16.3809 9.1242 16.3723 8.75937 16.2849 8.40956C16.1976 8.05975 16.0337 7.73367 15.8052 7.45482C15.5766 7.17597 15.2891 6.9513 14.9632 6.797C14.6373 6.6427 14.2813 6.56261 13.9208 6.5625L13.92 8.4375ZM13.02 15.9375C13.5835 15.9375 14.1297 15.7422 14.5655 15.3849C15.0013 15.0276 15.2998 14.5304 15.4103 13.9777L13.572 13.6102C13.5465 13.7378 13.4775 13.8527 13.3769 13.9351C13.2762 14.0176 13.1501 14.0626 13.02 14.0625V15.9375ZM10.9545 2.0625C10.4297 2.06257 9.91312 2.19219 9.45049 2.43986C8.98785 2.68753 8.59352 3.04559 8.3025 3.48225L9.8625 4.52175C9.98237 4.34201 10.1448 4.19465 10.3353 4.09273C10.5257 3.99081 10.7385 3.93749 10.9545 3.9375V2.0625ZM4.5 14.0625C4.35082 14.0625 4.20774 14.0032 4.10225 13.8977C3.99676 13.7923 3.9375 13.6492 3.9375 13.5H2.0625C2.0625 14.1465 2.31931 14.7665 2.77643 15.2236C3.23355 15.6807 3.85353 15.9375 4.5 15.9375V14.0625Z" fill="#4B3C2F"/>
<path d="M6 7.5V15" stroke="#4B3C2F" stroke-width="1.5"/>
</svg>
