<svg width="20" height="20" viewBox="0 0 20 20" fill="none" xmlns="http://www.w3.org/2000/svg">
<path d="M12.5013 8.33268L11.4738 8.16102C11.4489 8.31027 11.4567 8.46317 11.4969 8.60907C11.537 8.75497 11.6085 8.89038 11.7063 9.00586C11.8041 9.12134 11.9259 9.21412 12.0632 9.27776C12.2005 9.3414 12.35 9.37436 12.5013 9.37435V8.33268ZM3.33464 8.33268V7.29102C2.75964 7.29102 2.29297 7.75768 2.29297 8.33268H3.33464ZM5.0013 17.7077H14.468V15.6243H5.0013V17.7077ZM15.468 7.29102H12.5013V9.37435H15.468V7.29102ZM13.5288 8.50435L14.2005 4.47435L12.1455 4.13185L11.4738 8.16185L13.5288 8.50435ZM12.3513 2.29102H12.173V4.37435H12.3513V2.29102ZM9.2263 3.86852L7.12964 7.01268L8.86297 8.16852L10.9596 5.02352L9.2263 3.86852ZM6.60964 7.29102H3.33464V9.37435H6.60964V7.29102ZM2.29297 8.33268V14.9993H4.3763V8.33268H2.29297ZM17.1238 15.5302L18.1238 10.5302L16.0813 10.1218L15.0813 15.1218L17.1238 15.5302ZM7.12964 7.01268C7.07257 7.09829 6.99524 7.16849 6.90453 7.21705C6.81382 7.2656 6.71252 7.29101 6.60964 7.29102V9.37435C7.05546 9.37435 7.4944 9.26429 7.88748 9.05393C8.28056 8.84358 8.61564 8.53945 8.86297 8.16852L7.12964 7.01268ZM14.2005 4.47435C14.2453 4.20569 14.231 3.93051 14.1586 3.66793C14.0863 3.40535 13.9576 3.16169 13.7815 2.9539C13.6054 2.7461 13.3862 2.57915 13.1391 2.46468C12.8919 2.3502 12.6237 2.29094 12.3513 2.29102V4.37435C12.3211 4.37427 12.2904 4.36763 12.2631 4.35488C12.2357 4.34213 12.2114 4.32358 12.1919 4.30051C12.1724 4.27745 12.1581 4.25041 12.1501 4.22129C12.1421 4.19216 12.1405 4.16165 12.1455 4.13185L14.2005 4.47435ZM15.468 9.37435C15.5605 9.37428 15.6518 9.39475 15.7355 9.43427C15.8191 9.47379 15.8929 9.53139 15.9516 9.6029C16.0103 9.67441 16.0523 9.75806 16.0748 9.8478C16.0972 9.93754 16.0994 10.0311 16.0813 10.1218L18.1238 10.5302C18.2023 10.1373 18.1927 9.73198 18.0957 9.3433C17.9986 8.95462 17.8166 8.59231 17.5626 8.28248C17.3087 7.97265 16.9891 7.72302 16.6271 7.55157C16.265 7.38012 15.8694 7.29113 15.4688 7.29102L15.468 9.37435ZM14.468 17.7077C15.0941 17.7077 15.701 17.4907 16.1852 17.0937C16.6694 16.6967 17.0011 16.1442 17.1238 15.5302L15.0813 15.1218C15.053 15.2636 14.9764 15.3912 14.8645 15.4828C14.7527 15.5744 14.6125 15.6245 14.468 15.6243V17.7077ZM12.173 2.29102C11.5899 2.29109 11.0159 2.43511 10.5018 2.7103C9.98781 2.98549 9.54966 3.38333 9.2263 3.86852L10.9596 5.02352C11.0928 4.82381 11.2733 4.66007 11.4849 4.54682C11.6966 4.43358 11.9329 4.37434 12.173 4.37435V2.29102ZM5.0013 15.6243C4.83554 15.6243 4.67657 15.5585 4.55936 15.4413C4.44215 15.3241 4.3763 15.1651 4.3763 14.9993H2.29297C2.29297 15.7176 2.57831 16.4065 3.08622 16.9144C3.59413 17.4223 4.28301 17.7077 5.0013 17.7077V15.6243Z" fill="white"/>
<path d="M6.66797 8.33203V16.6654" stroke="white" stroke-width="1.5"/>
</svg>
