<svg width="19" height="3" viewBox="0 0 19 3" fill="none" xmlns="http://www.w3.org/2000/svg">
<path d="M1.58333 0C0.7125 0 0 0.675 0 1.5C0 2.325 0.7125 3 1.58333 3C2.45417 3 3.16667 2.325 3.16667 1.5C3.16667 0.675 2.45417 0 1.58333 0ZM17.4167 0C16.5458 0 15.8333 0.675 15.8333 1.5C15.8333 2.325 16.5458 3 17.4167 3C18.2875 3 19 2.325 19 1.5C19 0.675 18.2875 0 17.4167 0ZM9.5 0C8.62917 0 7.91667 0.675 7.91667 1.5C7.91667 2.325 8.62917 3 9.5 3C10.3708 3 11.0833 2.325 11.0833 1.5C11.0833 0.675 10.3708 0 9.5 0Z" fill="white"/>
</svg>
