<svg width="20" height="20" viewBox="0 0 20 20" fill="none" xmlns="http://www.w3.org/2000/svg">
<path d="M13.9668 16.333V17H5.5V16.333H13.9668ZM16.2666 15.8691C16.1411 16.129 15.9607 16.3614 15.7344 16.5469C15.5083 16.7321 15.2459 16.8634 14.9668 16.9355V16.2344C15.0905 16.1844 15.2077 16.117 15.3125 16.0312C15.4176 15.9452 15.5065 15.8433 15.5801 15.7314L16.2666 15.8691ZM3.76465 15.5C3.83108 15.6641 3.92999 15.8148 4.05762 15.9424C4.18515 16.0699 4.33601 16.1679 4.5 16.2344V16.9336C4.15726 16.845 3.84053 16.6687 3.58594 16.4141C3.33134 16.1595 3.15505 15.8427 3.06641 15.5H3.76465ZM17.0039 10.8164V10.8174L17.3291 10.8818L16.5254 14.9014L15.873 14.7705L16.6768 10.751L17.0039 10.8164ZM3.66699 9.66699V14.5H3V9.66699H3.66699ZM15.9668 8.06641C16.0885 8.09788 16.208 8.13829 16.3223 8.19238C16.5896 8.31899 16.8261 8.50362 17.0137 8.73242C17.2011 8.96118 17.3356 9.22868 17.4072 9.51562C17.4378 9.63792 17.4539 9.76259 17.4609 9.8877L17.2002 9.83594H17.1992L16.7744 9.75098C16.7697 9.72625 16.7668 9.70116 16.7607 9.67676C16.7129 9.48534 16.6232 9.30684 16.498 9.1543C16.373 9.00181 16.2154 8.87927 16.0371 8.79492C16.0142 8.78408 15.9902 8.77512 15.9668 8.76562V8.06641ZM14.9668 8V8.66699H13.7959L13.8154 8.55176L13.9072 8H14.9668ZM6.1084 8V8.66699H4.66699V8H6.1084ZM7.94141 8.15625C7.82317 8.26207 7.69271 8.35424 7.55176 8.42969C7.41085 8.50511 7.26198 8.56285 7.1084 8.60254V7.90137C7.15208 7.88368 7.19553 7.86511 7.2373 7.84277C7.27937 7.82027 7.319 7.79342 7.3584 7.7666L7.94141 8.15625ZM10.0918 5.04785L8.5498 7.36035L7.99512 6.99023L9.53613 4.67676L10.0918 5.04785ZM13.417 4.85059L13.0605 7H12.3848L12.7598 4.74219L13.417 4.85059ZM11.6719 3.72461C11.4906 3.7676 11.3149 3.83427 11.1494 3.92285C10.9838 4.01152 10.8312 4.12121 10.6953 4.24805L10.1279 3.87012C10.3332 3.65669 10.5719 3.47573 10.835 3.33496C11.0979 3.19429 11.3804 3.09618 11.6719 3.04395V3.72461ZM12.8496 3.11328C12.9994 3.1844 13.1321 3.28651 13.2393 3.41309C13.3462 3.53937 13.4252 3.6867 13.4707 3.8457L12.9248 3.75586L12.9404 3.66699H12.8496V3.11328Z" fill="white" stroke="white"/>
<path d="M6.66699 8.33398V16.6673" stroke="white" stroke-width="2"/>
</svg>
