<svg width="26" height="26" viewBox="0 0 26 26" fill="none" xmlns="http://www.w3.org/2000/svg">
<path fill-rule="evenodd" clip-rule="evenodd" d="M3.43617 3.4357C2.1665 4.70429 2.1665 6.74745 2.1665 10.8327V15.166C2.1665 19.2513 2.1665 21.2945 3.43617 22.563C4.70584 23.8316 6.74792 23.8327 10.8332 23.8327H15.1665C19.2518 23.8327 21.2949 23.8327 22.5635 22.563C23.8321 21.2934 23.8332 19.2513 23.8332 15.166V10.8327C23.8332 7.75604 23.8332 5.83854 23.2915 4.53745V18.416C22.7765 18.4161 22.2665 18.3147 21.7906 18.1177C21.3148 17.9207 20.8824 17.6318 20.5182 17.2677L19.7035 16.453C18.9213 15.6709 18.5313 15.2809 18.0883 15.1162C17.6012 14.9351 17.0652 14.9351 16.5781 15.1162C16.135 15.2809 15.7439 15.6709 14.9639 16.453L14.8404 16.5755C14.2067 17.2092 13.8893 17.5266 13.5523 17.5851C13.2907 17.6312 13.0212 17.5796 12.7951 17.44C12.5048 17.2601 12.3282 16.8474 11.9739 16.023L11.9165 15.8886C11.104 13.9928 10.6988 13.046 9.99034 12.6906C9.63355 12.5117 9.23428 12.4349 8.83659 12.4685C8.04684 12.5357 7.31884 13.2648 5.86067 14.7219L3.7915 16.791V3.12695C3.66584 3.22012 3.54739 3.32304 3.43617 3.4357Z" fill="white"/>
<path d="M3.25 10.8333C3.25 8.75983 3.25217 7.31358 3.3995 6.22267C3.54142 5.16317 3.8025 4.602 4.20117 4.20225C4.602 3.80142 5.16317 3.54142 6.22267 3.3995C7.31358 3.25217 8.75983 3.25 10.8333 3.25H15.1667C17.2402 3.25 18.6864 3.25217 19.7773 3.3995C20.8368 3.54142 21.398 3.8025 21.7978 4.20117C22.1986 4.602 22.4586 5.16317 22.6016 6.22267C22.7478 7.31358 22.75 8.75983 22.75 10.8333V15.1667C22.75 17.2402 22.7478 18.6864 22.6016 19.7773C22.4586 20.8368 22.1975 21.398 21.7978 21.7978C21.398 22.1986 20.8368 22.4586 19.7773 22.6016C18.6864 22.7478 17.2402 22.75 15.1667 22.75H10.8333C8.75983 22.75 7.31358 22.7478 6.22267 22.6016C5.16317 22.4586 4.602 22.1975 4.20225 21.7978C3.80142 21.398 3.54142 20.8368 3.3995 19.7773C3.25217 18.6864 3.25 17.2402 3.25 15.1667V10.8333Z" stroke="white" stroke-width="2"/>
<path d="M16.2497 11.9154C17.4463 11.9154 18.4163 10.9453 18.4163 9.7487C18.4163 8.55208 17.4463 7.58203 16.2497 7.58203C15.0531 7.58203 14.083 8.55208 14.083 9.7487C14.083 10.9453 15.0531 11.9154 16.2497 11.9154Z" fill="white"/>
</svg>
