<svg width="50" height="50" viewBox="0 0 50 50" fill="none" xmlns="http://www.w3.org/2000/svg">
<rect width="50" height="50" rx="25" fill="#2A2A2A"/>
<path fill-rule="evenodd" clip-rule="evenodd" d="M33.3298 28.8227C33.6302 28.7152 33.9602 28.7267 34.2524 28.8547C34.5446 28.9827 34.7768 29.2177 34.9015 29.5113C35.0261 29.805 35.0337 30.1352 34.9228 30.4343C34.8118 30.7334 34.5908 30.9788 34.3048 31.1202L34.1698 31.1777L28.716 33.1252L34.1698 35.0727C34.4716 35.1787 34.7213 35.3964 34.8674 35.681C35.0135 35.9656 35.045 36.2954 34.9553 36.6025C34.8656 36.9096 34.6615 37.1706 34.3852 37.3317C34.1088 37.4929 33.7812 37.542 33.4698 37.4689L33.3298 37.4277L24.9998 34.4527L16.6698 37.4277C16.3694 37.5351 16.0393 37.5236 15.7471 37.3956C15.4549 37.2676 15.2227 37.0327 15.0981 36.739C14.9735 36.4453 14.9658 36.1151 15.0768 35.816C15.1877 35.5169 15.4088 35.2716 15.6948 35.1302L15.8298 35.0727L21.2835 33.1252L15.8298 31.1777C15.528 31.0716 15.2783 30.8539 15.1322 30.5693C14.986 30.2847 14.9546 29.9549 15.0443 29.6478C15.134 29.3408 15.338 29.0798 15.6144 28.9186C15.8907 28.7574 16.2183 28.7083 16.5298 28.7814L16.6698 28.8227L24.9998 31.7977L33.3298 28.8227ZM24.0373 13.6152L24.921 13.0402L25.196 12.8739C25.8085 12.5277 26.4835 12.2989 27.0673 12.8064C27.4173 13.1089 27.5335 13.5352 27.471 13.9689L27.421 14.2252L27.4023 14.4002C27.3939 14.5068 27.3973 14.6347 27.4123 14.7839C27.5198 15.7477 28.176 16.4364 28.856 17.0602L29.4273 17.5802L29.8548 17.9839C30.8698 18.9739 31.9898 20.3089 32.461 22.1964C33.0285 24.4639 32.4685 26.4977 30.9835 27.9302C29.551 29.3152 27.401 30.0002 24.9998 30.0002C21.0385 30.0002 17.4998 27.4352 17.4998 23.1252C17.4998 19.7552 19.7273 17.0939 21.6773 15.3877C22.4251 14.7457 23.2143 14.1536 24.0398 13.6152M25.2773 21.5802L24.9998 21.2502L24.7235 21.5802L24.4273 21.9564L24.1935 22.2714L23.9435 22.6264C23.261 23.6252 22.4998 24.9964 22.4998 26.1464C22.4998 27.5839 23.6198 28.7502 24.9998 28.7502C26.3798 28.7502 27.4998 27.5839 27.4998 26.1464C27.4998 24.9964 26.7385 23.6252 26.056 22.6264L25.806 22.2714L25.5723 21.9564L25.2773 21.5802Z" fill="white"/>
</svg>
