<svg width="50" height="50" viewBox="0 0 50 50" fill="none" xmlns="http://www.w3.org/2000/svg">
<rect width="50" height="50" rx="25" fill="#2A2A2A"/>
<path d="M12.7678 33.9713V16.0805L15.7236 18.4471C17.2157 19.6398 19.0708 20.2904 20.9801 20.2904H27.4999L30.5454 14.1995C30.8959 13.5012 31.4334 12.914 32.0981 12.5032C32.7627 12.0924 33.5284 11.8743 34.3097 11.873H35.9173V17.1342L42.2321 19.2391V21.344C42.2321 23.6682 40.3464 25.5515 38.0222 25.5515H33.8171V33.9713C33.8286 34.3932 33.7555 34.8131 33.602 35.2062C33.4485 35.5994 33.2177 35.9578 32.9234 36.2603C32.6291 36.5628 32.2771 36.8032 31.8883 36.9674C31.4995 37.1315 31.0817 37.2161 30.6597 37.2161C30.2376 37.2161 29.8199 37.1315 29.431 36.9674C29.0422 36.8032 28.6903 36.5628 28.3959 36.2603C28.1016 35.9578 27.8709 35.5994 27.7174 35.2062C27.5639 34.8131 27.4908 34.3932 27.5023 33.9713V32.9176C27.5023 31.7555 26.5594 30.815 25.3974 30.815H21.1851C20.0231 30.815 19.0826 31.7579 19.0826 32.9176V33.9713C19.0941 34.3932 19.021 34.8131 18.8675 35.2062C18.714 35.5994 18.4832 35.9578 18.1889 36.2603C17.8946 36.5628 17.5426 36.8032 17.1538 36.9674C16.765 37.1315 16.3472 37.2161 15.9252 37.2161C15.5031 37.2161 15.0854 37.1315 14.6965 36.9674C14.3077 36.8032 13.9558 36.5628 13.6614 36.2603C13.3671 35.9578 13.1364 35.5994 12.9829 35.2062C12.8294 34.8131 12.7563 34.3932 12.7678 33.9713Z" stroke="white" stroke-width="2" stroke-linecap="round" stroke-linejoin="round"/>
<path d="M27.5283 20.0146C27.9408 21.7047 29.8855 25.1886 34.3522 25.6129" stroke="white" stroke-width="2" stroke-linecap="round" stroke-linejoin="round"/>
</svg>
