<svg width="20" height="20" viewBox="0 0 20 20" fill="none" xmlns="http://www.w3.org/2000/svg">
<path d="M1.07103 15.7395V4.89668L2.86246 6.33097C3.76674 7.05382 4.89103 7.44811 6.04817 7.44811H9.9996L11.8453 3.75668C12.0577 3.33346 12.3835 2.97754 12.7863 2.72858C13.1892 2.47963 13.6532 2.34742 14.1267 2.34668H15.101V5.53525L18.9282 6.81097V8.08668C18.9282 9.49525 17.7853 10.6367 16.3767 10.6367H13.8282V15.7395C13.8352 15.9952 13.7908 16.2497 13.6978 16.488C13.6048 16.7263 13.4649 16.9435 13.2866 17.1268C13.1082 17.3101 12.8949 17.4559 12.6592 17.5554C12.4236 17.6548 12.1704 17.7061 11.9146 17.7061C11.6588 17.7061 11.4056 17.6548 11.17 17.5554C10.9343 17.4559 10.721 17.3101 10.5426 17.1268C10.3642 16.9435 10.2244 16.7263 10.1314 16.488C10.0384 16.2497 9.99404 15.9952 10.001 15.7395V15.101C10.001 14.3967 9.4296 13.8267 8.72531 13.8267H6.17246C5.46817 13.8267 4.89817 14.3981 4.89817 15.101V15.7395C4.90516 15.9952 4.86083 16.2497 4.7678 16.488C4.67478 16.7263 4.53495 16.9435 4.35657 17.1268C4.17818 17.3101 3.96487 17.4559 3.72923 17.5554C3.49358 17.6548 3.24039 17.7061 2.9846 17.7061C2.72881 17.7061 2.47561 17.6548 2.23997 17.5554C2.00433 17.4559 1.79101 17.3101 1.61263 17.1268C1.43425 16.9435 1.29442 16.7263 1.20139 16.488C1.10837 16.2497 1.06404 15.9952 1.07103 15.7395Z" stroke="white" stroke-linecap="round" stroke-linejoin="round"/>
<path d="M10.0166 7.28125C10.2666 8.30554 11.4452 10.417 14.1523 10.6741" stroke="white" stroke-linecap="round" stroke-linejoin="round"/>
</svg>
