<svg width="60" height="60" viewBox="0 0 60 60" fill="none" xmlns="http://www.w3.org/2000/svg">
<rect width="60" height="60" rx="30" fill="#2A2A2A"/>
<path d="M39.6199 24.274C38.8377 23.5011 37.7837 23.0655 36.6841 23.0607H35.1457C34.9187 23.0603 34.7008 22.9708 34.5391 22.8115L33.2932 21.5657C32.827 21.1015 32.1961 20.8406 31.5382 20.8398H28.4616C27.8037 20.8406 27.1728 21.1015 26.7066 21.5657L25.4607 22.8115C25.299 22.9708 25.0811 23.0603 24.8541 23.0607H23.3157C22.7695 23.0592 22.2285 23.1659 21.7237 23.3746C21.2189 23.5833 20.7605 23.8898 20.3748 24.2766C19.9891 24.6633 19.6837 25.1225 19.4764 25.6278C19.269 26.1331 19.1637 26.6745 19.1666 27.2207V35.0098C19.1651 35.5551 19.2715 36.0953 19.4795 36.5994C19.6875 37.1034 19.9931 37.5614 20.3786 37.9469C20.7642 38.3325 21.2222 38.6381 21.7262 38.8461C22.2303 39.0541 22.7705 39.1604 23.3157 39.159H36.6841C37.7842 39.1565 38.839 38.7206 39.6199 37.9457C40.0055 37.5604 40.3113 37.1026 40.5195 36.5988C40.7277 36.095 40.8343 35.555 40.8332 35.0098V27.2207C40.8346 26.6739 40.7281 26.1322 40.5199 25.6266C40.3117 25.1209 40.0059 24.6613 39.6199 24.274ZM29.9566 34.544C29.1681 34.544 28.3973 34.3102 27.7417 33.8721C27.0861 33.4341 26.5751 32.8114 26.2734 32.083C25.9716 31.3545 25.8927 30.5529 26.0465 29.7796C26.2003 29.0062 26.58 28.2959 27.1376 27.7383C27.6951 27.1808 28.4055 26.8011 29.1788 26.6473C29.9521 26.4935 30.7537 26.5724 31.4822 26.8741C32.2107 27.1759 32.8333 27.6869 33.2714 28.3425C33.7094 28.9981 33.9432 29.7689 33.9432 30.5573C33.9404 31.6138 33.5194 32.6262 32.7724 33.3732C32.0254 34.1202 31.013 34.5412 29.9566 34.544Z" fill="white"/>
</svg>
