<svg width="20" height="20" viewBox="0 0 20 20" fill="none" xmlns="http://www.w3.org/2000/svg">
<g clip-path="url(#clip0_442_3877)">
<path d="M12.5003 8.33268L11.4728 8.16102C11.4479 8.31027 11.4558 8.46317 11.4959 8.60907C11.5361 8.75497 11.6075 8.89038 11.7053 9.00586C11.8031 9.12134 11.9249 9.21412 12.0622 9.27776C12.1995 9.3414 12.349 9.37436 12.5003 9.37435V8.33268ZM3.33366 8.33268V7.29102C2.75866 7.29102 2.29199 7.75768 2.29199 8.33268H3.33366ZM5.00033 17.7077H14.467V15.6243H5.00033V17.7077ZM15.467 7.29102H12.5003V9.37435H15.467V7.29102ZM13.5278 8.50435L14.1995 4.47435L12.1445 4.13185L11.4728 8.16185L13.5278 8.50435ZM12.3503 2.29102H12.172V4.37435H12.3503V2.29102ZM9.22533 3.86852L7.12866 7.01268L8.86199 8.16852L10.9587 5.02352L9.22533 3.86852ZM6.60866 7.29102H3.33366V9.37435H6.60866V7.29102ZM2.29199 8.33268V14.9993H4.37533V8.33268H2.29199ZM17.1228 15.5302L18.1228 10.5302L16.0803 10.1218L15.0803 15.1218L17.1228 15.5302ZM7.12866 7.01268C7.07159 7.09829 6.99427 7.16849 6.90356 7.21705C6.81284 7.2656 6.71155 7.29101 6.60866 7.29102V9.37435C7.05449 9.37435 7.49342 9.26429 7.8865 9.05393C8.27959 8.84358 8.61466 8.53945 8.86199 8.16852L7.12866 7.01268ZM14.1995 4.47435C14.2443 4.20569 14.23 3.93051 14.1577 3.66793C14.0853 3.40535 13.9566 3.16169 13.7805 2.9539C13.6045 2.7461 13.3852 2.57915 13.1381 2.46468C12.891 2.3502 12.6227 2.29094 12.3503 2.29102V4.37435C12.3201 4.37427 12.2895 4.36763 12.2621 4.35488C12.2347 4.34213 12.2104 4.32358 12.1909 4.30051C12.1714 4.27745 12.1572 4.25041 12.1491 4.22129C12.1411 4.19216 12.1395 4.16165 12.1445 4.13185L14.1995 4.47435ZM15.467 9.37435C15.5595 9.37428 15.6509 9.39475 15.7345 9.43427C15.8181 9.47379 15.8919 9.53139 15.9506 9.6029C16.0093 9.67441 16.0514 9.75806 16.0738 9.8478C16.0962 9.93754 16.0985 10.0311 16.0803 10.1218L18.1228 10.5302C18.2013 10.1373 18.1917 9.73198 18.0947 9.3433C17.9977 8.95462 17.8156 8.59231 17.5616 8.28248C17.3077 7.97265 16.9882 7.72302 16.6261 7.55157C16.264 7.38012 15.8684 7.29113 15.4678 7.29102L15.467 9.37435ZM14.467 17.7077C15.0932 17.7077 15.7 17.4907 16.1842 17.0937C16.6684 16.6967 17.0001 16.1442 17.1228 15.5302L15.0803 15.1218C15.052 15.2636 14.9754 15.3912 14.8635 15.4828C14.7517 15.5744 14.6116 15.6245 14.467 15.6243V17.7077ZM12.172 2.29102C11.5889 2.29109 11.0149 2.43511 10.5009 2.7103C9.98683 2.98549 9.54869 3.38333 9.22533 3.86852L10.9587 5.02352C11.0919 4.82381 11.2723 4.66007 11.4839 4.54682C11.6956 4.43358 11.9319 4.37434 12.172 4.37435V2.29102ZM5.00033 15.6243C4.83457 15.6243 4.67559 15.5585 4.55838 15.4413C4.44117 15.3241 4.37533 15.1651 4.37533 14.9993H2.29199C2.29199 15.7176 2.57733 16.4065 3.08524 16.9144C3.59316 17.4223 4.28203 17.7077 5.00033 17.7077V15.6243Z" fill="white"/>
<path d="M6.66699 8.33203V16.6654" stroke="white" stroke-width="1.5"/>
<path fill-rule="evenodd" clip-rule="evenodd" d="M9.3975 3.98417C9.70198 3.52751 10.1145 3.1531 10.5985 2.89419C11.0824 2.63528 11.6228 2.49987 12.1717 2.5H12.3492C12.5913 2.49997 12.8304 2.55268 13.0501 2.65446C13.2697 2.75624 13.4646 2.90465 13.6211 3.08936C13.7775 3.27408 13.8919 3.49066 13.9562 3.72406C14.0205 3.95745 14.0332 4.20205 13.9933 4.44083L13.4833 7.5H15.4667C15.8365 7.49998 16.2018 7.58202 16.5361 7.74022C16.8705 7.89843 17.1655 8.12884 17.4 8.41485C17.6346 8.70087 17.8027 9.03535 17.8923 9.3942C17.9819 9.75304 17.9908 10.1273 17.9183 10.49L16.9183 15.49C16.805 16.0568 16.4988 16.5668 16.0518 16.9333C15.6049 17.2998 15.0447 17.5 14.4667 17.5H5C4.33696 17.5 3.70107 17.2366 3.23223 16.7678C2.76339 16.2989 2.5 15.663 2.5 15V8.33333C2.5 8.11232 2.5878 7.90036 2.74408 7.74408C2.90036 7.5878 3.11232 7.5 3.33333 7.5H6.60833C6.74549 7.50002 6.88054 7.46619 7.00149 7.4015C7.12243 7.33681 7.22554 7.24326 7.30167 7.12917L9.3975 3.98417ZM5.83333 9.16667H4.16667V15C4.16667 15.221 4.25446 15.433 4.41074 15.5893C4.56702 15.7455 4.77899 15.8333 5 15.8333H5.83333V9.16667Z" fill="white"/>
</g>
<defs>
<clipPath id="clip0_442_3877">
<rect width="20" height="20" fill="white"/>
</clipPath>
</defs>
</svg>
