<svg width="60" height="60" viewBox="0 0 60 60" fill="none" xmlns="http://www.w3.org/2000/svg">
<rect width="60" height="60" rx="30" fill="#2A2A2A" fill-opacity="0.9"/>
<g clip-path="url(#clip0_442_3594)">
<path d="M20.9393 29.2336C20.7362 29.4368 20.6221 29.7123 20.6221 29.9995C20.6221 30.2868 20.7362 30.5623 20.9393 30.7655L27.0677 36.8939C27.1676 36.9973 27.2871 37.0799 27.4193 37.1367C27.5515 37.1934 27.6936 37.2233 27.8375 37.2246C27.9813 37.2258 28.124 37.1984 28.2571 37.1439C28.3903 37.0895 28.5112 37.009 28.6129 36.9073C28.7147 36.8056 28.7951 36.6846 28.8496 36.5515C28.904 36.4184 28.9314 36.2757 28.9302 36.1319C28.9289 35.988 28.8991 35.8459 28.8423 35.7137C28.7855 35.5815 28.703 35.462 28.5995 35.362L24.3203 31.0829H38.6669C38.9542 31.0829 39.2298 30.9687 39.433 30.7656C39.6361 30.5624 39.7503 30.2869 39.7503 29.9995C39.7503 29.7122 39.6361 29.4367 39.433 29.2335C39.2298 29.0304 38.9542 28.9162 38.6669 28.9162H24.3203L28.5995 24.637C28.7968 24.4327 28.906 24.1591 28.9036 23.875C28.9011 23.591 28.7872 23.3193 28.5863 23.1184C28.3855 22.9176 28.1137 22.8036 27.8297 22.8011C27.5456 22.7987 27.272 22.9079 27.0677 23.1052L20.9393 29.2336Z" fill="white" fill-opacity="0.8"/>
</g>
<defs>
<clipPath id="clip0_442_3594">
<rect x="17" y="43" width="26" height="26" rx="5" transform="rotate(-90 17 43)" fill="white"/>
</clipPath>
</defs>
</svg>
