<svg width="24" height="24" viewBox="0 0 24 24" fill="none" xmlns="http://www.w3.org/2000/svg">
<path d="M7.92829 3C7.18948 3 6.48092 3.29349 5.95849 3.81592C5.43607 4.33834 5.14258 5.0469 5.14258 5.78571V21.2143C5.14254 21.334 5.1759 21.4513 5.23892 21.553C5.30194 21.6548 5.39211 21.7369 5.49928 21.7902C5.60645 21.8434 5.72636 21.8657 5.84552 21.8546C5.96467 21.8434 6.07834 21.7991 6.17372 21.7269L11.9997 17.3057L17.8257 21.726C17.921 21.7982 18.0346 21.8425 18.1537 21.8537C18.2728 21.8649 18.3926 21.8427 18.4998 21.7895C18.6069 21.7363 18.6971 21.6543 18.7602 21.5527C18.8233 21.4511 18.8567 21.3339 18.8569 21.2143V5.78571C18.8569 5.41989 18.7848 5.05765 18.6448 4.71967C18.5048 4.38169 18.2996 4.07459 18.0409 3.81592C17.7823 3.55724 17.4752 3.35205 17.1372 3.21205C16.7992 3.07205 16.437 3 16.0711 3H7.92829Z" fill="white"/>
</svg>
