<svg width="20" height="20" viewBox="0 0 20 20" fill="none" xmlns="http://www.w3.org/2000/svg">
<path d="M13.889 15.8203C12.7378 16.5895 11.3845 17 10 17C8.84344 17 7.75144 16.72 6.79011 16.2222L3 17L3.77778 13.2099C3.28 12.2486 3 11.1573 3 10C3 8.61553 3.41054 7.26215 4.17971 6.11101C4.94888 4.95987 6.04213 4.06266 7.32121 3.53285C8.6003 3.00303 10.0078 2.86441 11.3656 3.13451C12.7235 3.4046 13.9708 4.07129 14.9497 5.05026C15.9287 6.02922 16.5954 7.2765 16.8655 8.63437C17.1356 9.99224 16.997 11.3997 16.4672 12.6788C15.9373 13.9579 15.0401 15.0511 13.889 15.8203Z" stroke="white" stroke-width="1.8" stroke-linecap="round" stroke-linejoin="round"/>
</svg>
