<svg width="16" height="16" viewBox="0 0 16 16" fill="none" xmlns="http://www.w3.org/2000/svg">
<g clip-path="url(#clip0_303_1086)">
<path fill-rule="evenodd" clip-rule="evenodd" d="M15.6059 1.52567C15.7559 1.37563 15.8402 1.17214 15.8402 0.959953C15.8402 0.747769 15.7559 0.544275 15.6059 0.394239C15.4559 0.244202 15.2524 0.159912 15.0402 0.159912C14.828 0.159912 14.6245 0.244202 14.4745 0.394239L8.0002 6.86853L1.52591 0.394239C1.37587 0.244202 1.17238 0.159912 0.960197 0.159912C0.748013 0.159912 0.54452 0.244202 0.394483 0.394239C0.244446 0.544275 0.160156 0.747769 0.160156 0.959953C0.160156 1.17214 0.244446 1.37563 0.394483 1.52567L6.86877 7.99995L0.394483 14.4742C0.244446 14.6243 0.160156 14.8278 0.160156 15.04C0.160156 15.2521 0.244446 15.4556 0.394483 15.6057C0.54452 15.7557 0.748013 15.84 0.960197 15.84C1.17238 15.84 1.37587 15.7557 1.52591 15.6057L8.0002 9.13138L14.4745 15.6057C14.6245 15.7557 14.828 15.84 15.0402 15.84C15.2524 15.84 15.4559 15.7557 15.6059 15.6057C15.7559 15.4556 15.8402 15.2521 15.8402 15.04C15.8402 14.8278 15.7559 14.6243 15.6059 14.4742L9.13163 7.99995L15.6059 1.52567Z" fill="white"/>
</g>
<defs>
<clipPath id="clip0_303_1086">
<rect width="16" height="16" fill="white"/>
</clipPath>
</defs>
</svg>
