<svg width="50" height="50" viewBox="0 0 50 50" fill="none" xmlns="http://www.w3.org/2000/svg">
<rect width="50" height="50" rx="25" fill="#2A2A2A" fill-opacity="0.9"/>
<g clip-path="url(#clip0_286_9556)">
<path d="M17.2723 24.1636C17.1036 24.3324 17.0088 24.5612 17.0088 24.7999C17.0088 25.0385 17.1036 25.2674 17.2723 25.4362L22.3636 30.5275C22.4466 30.6134 22.5459 30.682 22.6557 30.7292C22.7655 30.7763 22.8836 30.8012 23.0031 30.8022C23.1226 30.8033 23.2411 30.7805 23.3518 30.7352C23.4624 30.69 23.5628 30.6231 23.6474 30.5386C23.7319 30.4541 23.7987 30.3537 23.8439 30.243C23.8892 30.1324 23.912 30.0139 23.9109 29.8944C23.9099 29.7749 23.8851 29.6568 23.8379 29.547C23.7907 29.4372 23.7222 29.3379 23.6362 29.2549L20.0812 25.6999H31.9999C32.2386 25.6999 32.4675 25.6051 32.6363 25.4363C32.8051 25.2675 32.8999 25.0386 32.8999 24.7999C32.8999 24.5612 32.8051 24.3323 32.6363 24.1635C32.4675 23.9947 32.2386 23.8999 31.9999 23.8999H20.0812L23.6362 20.3449C23.8001 20.1751 23.8909 19.9478 23.8888 19.7118C23.8868 19.4759 23.7921 19.2501 23.6252 19.0833C23.4584 18.9164 23.2326 18.8217 22.9967 18.8197C22.7607 18.8176 22.5333 18.9083 22.3636 19.0723L17.2723 24.1636Z" fill="white" fill-opacity="0.8"/>
</g>
<defs>
<clipPath id="clip0_286_9556">
<rect x="14" y="35.6001" width="21.6" height="21.6" rx="5" transform="rotate(-90 14 35.6001)" fill="white"/>
</clipPath>
</defs>
</svg>
