<svg width="87" height="57" viewBox="0 0 87 57" fill="none" xmlns="http://www.w3.org/2000/svg">
<path d="M32.6875 6.25H39.475C39.8865 6.25006 40.2916 6.14856 40.6545 5.95449C41.0173 5.76042 41.3266 5.47979 41.555 5.1375L42.57 3.6125C42.7984 3.27021 43.1077 2.98958 43.4705 2.79551C43.8334 2.60144 44.2385 2.49994 44.65 2.5H50.26C50.7849 2.49987 51.2965 2.66497 51.7224 2.97189C52.1482 3.27881 52.4666 3.71199 52.6325 4.21L53.3125 6.25M55.1875 6.25H38.9375" stroke="white" stroke-width="2.5" stroke-linecap="round" stroke-linejoin="round"/>
<path d="M53.3125 6.25L52.6875 14.375M34.5625 6.25L35.3188 19.42C35.5113 22.6325 35.6088 24.24 36.4113 25.395C36.8075 25.9675 37.3187 26.4487 37.9112 26.8112C38.6387 27.2562 39.5163 27.4313 40.8125 27.5M42.6875 19.3725L44.1075 21.205C44.3654 20.2422 44.9052 19.3785 45.6576 18.7247C46.41 18.0709 47.3406 17.6569 48.33 17.5358C49.3193 17.4148 50.3223 17.5922 51.2101 18.0453C52.0979 18.4984 52.8301 19.2065 53.3125 20.0787M55.1875 25.6225L53.7675 23.7925C53.5116 24.7478 52.9782 25.6058 52.2347 26.2579C51.4912 26.91 50.571 27.327 49.5905 27.4561C48.61 27.5853 47.6132 27.4207 46.7263 26.9833C45.8393 26.5459 45.102 25.8552 44.6075 24.9988" stroke="white" stroke-width="2.5" stroke-linecap="round" stroke-linejoin="round"/>
<path d="M1.64027 47.76H2.64527C3.52527 47.76 4.29527 47.75 4.95527 47.73C5.62527 47.71 6.24527 47.67 6.81527 47.61C7.38527 47.54 7.96527 47.445 8.55527 47.325L8.69027 48.345C8.09027 48.465 7.49527 48.555 6.90527 48.615C6.31527 48.675 5.68027 48.72 5.00027 48.75C4.32027 48.78 3.53527 48.795 2.64527 48.795H1.64027V47.76ZM1.64027 42.48H7.82027V43.485H2.87027V48.135H1.64027V42.48ZM10.8203 41.595H12.0653V49.455H10.8203V41.595ZM7.02527 44.895H11.1653V45.915H7.02527V44.895ZM3.26027 50.13H12.0653V54.975H3.26027V50.13ZM10.8503 51.135H4.49027V53.955H10.8503V51.135ZM14.7041 52.38H27.0041V53.43H14.7041V52.38ZM15.7841 42.96H25.8491V43.98H15.7841V42.96ZM15.8141 48.675H25.8191V49.695H15.8141V48.675ZM17.8841 43.89H19.1291V48.795H17.8841V43.89ZM22.5041 43.89H23.7341V48.795H22.5041V43.89ZM37.8294 42.525H38.9244V43.575C38.9244 44.165 38.8194 44.725 38.6094 45.255C38.4094 45.785 38.1294 46.28 37.7694 46.74C37.4194 47.19 37.0094 47.595 36.5394 47.955C36.0794 48.315 35.5844 48.62 35.0544 48.87C34.5344 49.12 34.0044 49.31 33.4644 49.44L32.9094 48.405C33.3794 48.305 33.8494 48.15 34.3194 47.94C34.7994 47.73 35.2494 47.475 35.6694 47.175C36.0894 46.865 36.4594 46.52 36.7794 46.14C37.1094 45.76 37.3644 45.355 37.5444 44.925C37.7344 44.485 37.8294 44.035 37.8294 43.575V42.525ZM38.0694 42.525H39.1344V43.575C39.1344 44.035 39.2294 44.485 39.4194 44.925C39.6094 45.355 39.8644 45.76 40.1844 46.14C40.5144 46.52 40.8894 46.865 41.3094 47.175C41.7294 47.475 42.1744 47.735 42.6444 47.955C43.1244 48.165 43.6044 48.315 44.0844 48.405L43.5144 49.44C42.9744 49.31 42.4444 49.12 41.9244 48.87C41.4044 48.62 40.9094 48.315 40.4394 47.955C39.9794 47.595 39.5694 47.19 39.2094 46.74C38.8494 46.28 38.5694 45.785 38.3694 45.255C38.1694 44.725 38.0694 44.165 38.0694 43.575V42.525ZM32.3994 52.305H44.6994V53.34H32.3994V52.305ZM51.8382 46.74H54.3882V47.76H51.8382V46.74ZM46.7082 50.895H47.5632C48.2632 50.895 48.8832 50.885 49.4232 50.865C49.9632 50.845 50.4682 50.81 50.9382 50.76C51.4182 50.71 51.9032 50.635 52.3932 50.535L52.5132 51.555C52.0032 51.655 51.5032 51.73 51.0132 51.78C50.5232 51.83 50.0032 51.865 49.4532 51.885C48.9032 51.905 48.2732 51.915 47.5632 51.915H46.7082V50.895ZM46.7082 43.23H51.7332V44.235H47.8932V51.24H46.7082V43.23ZM47.5332 46.905H51.1032V47.88H47.5332V46.905ZM56.5182 41.595H57.7182V55.17H56.5182V41.595ZM53.7882 41.91H54.9582V54.465H53.7882V41.91ZM69.8521 41.595H71.0971V55.185H69.8521V41.595ZM63.9421 42.645C64.6121 42.645 65.2021 42.84 65.7121 43.23C66.2321 43.61 66.6371 44.155 66.9271 44.865C67.2271 45.575 67.3771 46.41 67.3771 47.37C67.3771 48.33 67.2271 49.165 66.9271 49.875C66.6371 50.585 66.2321 51.135 65.7121 51.525C65.2021 51.915 64.6121 52.11 63.9421 52.11C63.2721 52.11 62.6771 51.915 62.1571 51.525C61.6371 51.135 61.2271 50.585 60.9271 49.875C60.6371 49.165 60.4921 48.33 60.4921 47.37C60.4921 46.41 60.6371 45.575 60.9271 44.865C61.2271 44.155 61.6371 43.61 62.1571 43.23C62.6771 42.84 63.2721 42.645 63.9421 42.645ZM63.9421 43.755C63.4921 43.755 63.0971 43.905 62.7571 44.205C62.4271 44.495 62.1671 44.915 61.9771 45.465C61.7871 46.005 61.6921 46.64 61.6921 47.37C61.6921 48.1 61.7871 48.74 61.9771 49.29C62.1671 49.83 62.4271 50.25 62.7571 50.55C63.0971 50.85 63.4921 51 63.9421 51C64.3821 51 64.7671 50.85 65.0971 50.55C65.4371 50.25 65.7021 49.83 65.8921 49.29C66.0821 48.74 66.1771 48.1 66.1771 47.37C66.1771 46.64 66.0821 46.005 65.8921 45.465C65.7021 44.915 65.4371 44.495 65.0971 44.205C64.7671 43.905 64.3821 43.755 63.9421 43.755ZM80.9809 43.605H84.0259V44.625H80.9809V43.605ZM80.9809 46.38H84.0259V47.4H80.9809V46.38ZM77.2009 42.36H78.2059V44.085C78.2059 44.975 78.0509 45.81 77.7409 46.59C77.4309 47.36 76.9959 48.035 76.4359 48.615C75.8859 49.185 75.2359 49.625 74.4859 49.935L73.8259 48.945C74.3359 48.745 74.7959 48.485 75.2059 48.165C75.6159 47.835 75.9659 47.455 76.2559 47.025C76.5559 46.595 76.7859 46.135 76.9459 45.645C77.1159 45.145 77.2009 44.625 77.2009 44.085V42.36ZM77.4259 42.36H78.4309V44.085C78.4309 44.585 78.5059 45.07 78.6559 45.54C78.8159 46.01 79.0409 46.45 79.3309 46.86C79.6209 47.27 79.9659 47.635 80.3659 47.955C80.7759 48.275 81.2209 48.53 81.7009 48.72L81.0109 49.695C80.3009 49.405 79.6759 48.98 79.1359 48.42C78.5959 47.85 78.1759 47.195 77.8759 46.455C77.5759 45.715 77.4259 44.925 77.4259 44.085V42.36ZM83.7109 41.61H84.9559V51.735H83.7109V41.61ZM76.2409 53.85H85.2709V54.87H76.2409V53.85ZM76.2409 50.7H77.4859V54.39H76.2409V50.7Z" fill="white" fill-opacity="0.5"/>
</svg>
