<svg width="30" height="30" viewBox="0 0 30 30" fill="none" xmlns="http://www.w3.org/2000/svg">
<path d="M23.3911 6.59833C22.2885 5.49282 20.9786 4.61563 19.5365 4.01695C18.0945 3.41827 16.5485 3.10986 14.9871 3.10938C13.4257 3.10889 11.8795 3.41634 10.4371 4.01412C8.99462 4.61191 7.68422 5.48829 6.58088 6.59311C5.47754 7.69793 4.60292 9.0095 4.00706 10.4527C3.41121 11.896 3.10584 13.4426 3.10841 15.004C3.11099 16.5654 3.42147 18.1109 4.02208 19.5522C4.62269 20.9935 5.50164 22.3022 6.60862 23.4033C8.83861 25.6216 11.8576 26.8645 15.003 26.8594C18.1484 26.8542 21.1633 25.6013 23.3859 23.3756C25.6086 21.15 26.8574 18.1335 26.8584 14.9881C26.8594 11.8427 25.6124 8.82534 23.3911 6.59833ZM23.3911 6.59833L18.7211 11.2696M23.3911 23.3821L18.7211 18.7108M11.2786 18.7108L6.60862 23.3821M11.2786 11.2696L6.60862 6.59833M14.9999 20.2683C13.6 20.2672 12.258 19.71 11.269 18.7193C10.2799 17.7286 9.72496 16.3857 9.72612 14.9858C9.72728 13.586 10.2845 12.2439 11.2751 11.2549C12.2658 10.2659 13.6088 9.71092 15.0086 9.71208C16.4085 9.71324 17.7505 10.2704 18.7395 11.2611C19.7286 12.2518 20.2835 13.5947 20.2824 14.9946C20.2812 16.3944 19.724 17.7365 18.7334 18.7255C17.7427 19.7145 16.3997 20.2695 14.9999 20.2683Z" stroke="white" stroke-width="2.5" stroke-linecap="round" stroke-linejoin="round"/>
</svg>
