<svg width="30" height="30" viewBox="0 0 30 30" fill="none" xmlns="http://www.w3.org/2000/svg">
<path d="M19.375 11.25V18.75C19.375 19.3313 19.375 19.6212 19.4387 19.86C19.524 20.1777 19.6913 20.4673 19.9239 20.6999C20.1564 20.9325 20.4461 21.0998 20.7638 21.185C21.0025 21.25 21.2937 21.25 21.875 21.25C22.4563 21.25 22.7475 21.25 22.985 21.1862C23.3027 21.101 23.5923 20.9337 23.8249 20.7011C24.0575 20.4686 24.2248 20.1789 24.31 19.8612C24.375 19.6225 24.375 19.3313 24.375 18.75V11.25C24.375 10.6687 24.375 10.3788 24.3112 10.14C24.226 9.82234 24.0587 9.53268 23.8261 9.30011C23.5936 9.06754 23.3039 8.90024 22.9862 8.815C22.7462 8.75 22.455 8.75 21.875 8.75C21.295 8.75 21.0025 8.75 20.765 8.81375C20.4473 8.89899 20.1577 9.06629 19.9251 9.29886C19.6925 9.53143 19.5252 9.82108 19.44 10.1388C19.375 10.3788 19.375 10.6687 19.375 11.25ZM5.625 11.25V18.75C5.625 19.3313 5.625 19.6212 5.68875 19.86C5.77399 20.1777 5.94129 20.4673 6.17386 20.6999C6.40643 20.9325 6.69608 21.0998 7.01375 21.185C7.25375 21.25 7.54375 21.25 8.125 21.25C8.70625 21.25 8.99625 21.25 9.235 21.1862C9.55267 21.101 9.84232 20.9337 10.0749 20.7011C10.3075 20.4686 10.4748 20.1789 10.56 19.8612C10.625 19.6225 10.625 19.3313 10.625 18.75V11.25C10.625 10.6687 10.625 10.3788 10.5613 10.14C10.476 9.82234 10.3087 9.53268 10.0761 9.30011C9.84357 9.06754 9.55392 8.90024 9.23625 8.815C8.995 8.75 8.705 8.75 8.125 8.75C7.545 8.75 7.25375 8.75 7.015 8.81375C6.69733 8.89899 6.40768 9.06629 6.17511 9.29886C5.94254 9.53143 5.77524 9.82108 5.69 10.1388C5.625 10.38 5.625 10.67 5.625 11.25Z" stroke="white" stroke-width="2.5"/>
<path d="M6.25 12.5H5C4.33696 12.5 3.70107 12.7634 3.23223 13.2322C2.76339 13.7011 2.5 14.337 2.5 15C2.5 15.663 2.76339 16.2989 3.23223 16.7678C3.70107 17.2366 4.33696 17.5 5 17.5H6.25M11.25 15H18.75M23.75 17.5H25C25.663 17.5 26.2989 17.2366 26.7678 16.7678C27.2366 16.2989 27.5 15.663 27.5 15C27.5 14.337 27.2366 13.7011 26.7678 13.2322C26.2989 12.7634 25.663 12.5 25 12.5H23.75" stroke="white" stroke-width="2.5"/>
</svg>
