<svg width="30" height="30" viewBox="0 0 30 30" fill="none" xmlns="http://www.w3.org/2000/svg">
<path d="M14.4508 1.07629C13.7584 1.06732 13.0493 1.58066 12.7296 2.39101C12.3361 3.38828 12.6798 4.4582 13.4968 4.78047C14.3138 5.10285 15.2951 4.55652 15.6886 3.5592C16.0821 2.56193 15.7384 1.49201 14.9214 1.16974C14.7716 1.11008 14.6121 1.0784 14.4508 1.07629H14.4508ZM18.8307 2.01015C18.1879 2.01051 17.4981 2.36312 17.0272 2.99887C16.3094 3.96765 16.3709 5.22894 17.1644 5.81687C17.958 6.40486 19.1823 6.09543 19.9 5.12664C20.6178 4.15785 20.5563 2.89656 19.7627 2.30863C19.49 2.10648 19.1673 2.00998 18.8307 2.01021L18.8307 2.01015ZM22.7711 4.20918C22.1655 4.20174 21.5089 4.45896 20.9857 4.96545C20.0559 5.86592 19.9003 7.21217 20.6379 7.97388C21.3755 8.7356 22.7274 8.62345 23.6573 7.7231C24.5872 6.82252 24.7428 5.47633 24.0052 4.71461C23.6825 4.38121 23.2421 4.21498 22.771 4.20918H22.7711ZM13.6048 6.08787C12.2859 6.07146 11.0045 6.49176 9.88411 7.49412C6.30772 10.6937 2.82385 15.2933 1.65713 22.6737C0.294418 31.2946 10.9136 29.7373 9.86219 25.1326C8.51911 19.2505 11.862 16.8644 16.1903 17.8578C18.1144 18.2996 20.0891 17.5707 21.2294 15.4885C22.6006 12.9846 20.7941 9.22972 17.5453 7.30738C16.2791 6.55797 14.9238 6.10422 13.6049 6.08781L13.6048 6.08787ZM26.3344 7.85119C25.718 7.85248 25.0656 8.01642 24.4539 8.35656C22.8228 9.26359 22.1014 11.0818 22.8443 12.4179C23.5874 13.7539 25.5127 14.1013 27.1437 13.1942C28.7747 12.2872 29.4944 10.469 28.7514 9.13293C28.287 8.29785 27.3617 7.84914 26.3344 7.85119H26.3344Z" fill="white"/>
</svg>
