<svg width="30" height="30" viewBox="0 0 30 30" fill="none" xmlns="http://www.w3.org/2000/svg">
<path d="M23.935 3.71375C23.7121 3.34457 23.3979 3.03899 23.0226 2.82641C22.6474 2.61383 22.2238 2.50142 21.7925 2.5H8.2075C7.335 2.5 6.51375 2.965 6.065 3.71375L2.67875 9.35625C2.56186 9.55064 2.50007 9.77317 2.5 10C2.50499 11.2065 2.94937 12.3699 3.75 13.2725V23.75C3.75 25.1288 4.87125 26.25 6.25 26.25H23.75C25.1288 26.25 26.25 25.1288 26.25 23.75V13.2725C27.0506 12.3699 27.495 11.2065 27.5 10C27.4999 9.77317 27.4381 9.55064 27.3213 9.35625L23.935 3.71375ZM24.98 10.3138C24.9036 10.9176 24.6096 11.4728 24.153 11.8753C23.6964 12.2778 23.1087 12.4999 22.5 12.5C21.1212 12.5 20 11.3788 20 10C20 9.915 19.9688 9.84 19.9513 9.76L19.9762 9.755L19.025 5H21.7925L24.98 10.3138ZM13.5238 5H16.475L17.4913 10.0812C17.4475 11.4212 16.35 12.5 15 12.5C13.65 12.5 12.5525 11.4212 12.5087 10.0812L13.5238 5ZM8.2075 5H10.975L10.025 9.755L10.05 9.76C10.0312 9.84 10 9.915 10 10C10 11.3788 8.87875 12.5 7.5 12.5C6.89134 12.4999 6.3036 12.2778 5.84702 11.8753C5.39045 11.4728 5.09639 10.9176 5.02 10.3138L8.2075 5ZM12.5 23.75V20H17.5V23.75H12.5ZM20 23.75V20C20 18.6212 18.8788 17.5 17.5 17.5H12.5C11.1212 17.5 10 18.6212 10 20V23.75H6.25V14.8225C6.65125 14.9262 7.065 15 7.5 15C8.20964 14.9996 8.91106 14.8481 9.55763 14.5556C10.2042 14.2632 10.7811 13.8364 11.25 13.3037C12.1662 14.3437 13.5088 15 15 15C16.4912 15 17.8338 14.3437 18.75 13.3037C19.2189 13.8364 19.7958 14.2632 20.4424 14.5556C21.0889 14.8481 21.7904 14.9996 22.5 15C22.935 15 23.3487 14.9262 23.75 14.8225V23.75H20Z" fill="white"/>
</svg>
