<svg width="50" height="50" viewBox="0 0 50 50" fill="none" xmlns="http://www.w3.org/2000/svg">
<rect width="50" height="50" rx="25" fill="#4B3C2F" fill-opacity="0.9"/>
<g clip-path="url(#clip0_188_226)">
<path d="M17.2724 24.1636C17.1037 24.3324 17.0089 24.5612 17.0089 24.7999C17.0089 25.0385 17.1037 25.2674 17.2724 25.4362L22.3637 30.5275C22.4467 30.6134 22.5461 30.682 22.6559 30.7292C22.7657 30.7763 22.8838 30.8012 23.0033 30.8022C23.1228 30.8033 23.2413 30.7805 23.3519 30.7352C23.4625 30.69 23.563 30.6231 23.6475 30.5386C23.732 30.4541 23.7988 30.3537 23.8441 30.243C23.8893 30.1324 23.9121 30.0139 23.911 29.8944C23.91 29.7749 23.8852 29.6568 23.838 29.547C23.7908 29.4372 23.7223 29.3379 23.6363 29.2549L20.0813 25.6999H32C32.2387 25.6999 32.4676 25.6051 32.6364 25.4363C32.8052 25.2675 32.9 25.0386 32.9 24.7999C32.9 24.5612 32.8052 24.3323 32.6364 24.1635C32.4676 23.9947 32.2387 23.8999 32 23.8999H20.0813L23.6363 20.3449C23.8003 20.1751 23.891 19.9478 23.8889 19.7118C23.8869 19.4759 23.7922 19.2501 23.6254 19.0833C23.4585 18.9164 23.2328 18.8217 22.9968 18.8197C22.7608 18.8176 22.5335 18.9083 22.3637 19.0723L17.2724 24.1636Z" fill="white" fill-opacity="0.8"/>
</g>
<defs>
<clipPath id="clip0_188_226">
<rect x="14" y="35.6001" width="21.6" height="21.6" rx="5" transform="rotate(-90 14 35.6001)" fill="white"/>
</clipPath>
</defs>
</svg>
