<svg width="107" height="54" viewBox="0 0 107 54" fill="none" xmlns="http://www.w3.org/2000/svg">
<path d="M18.4395 29.5352V25.4922H31.125V29.5352H26.8477V46H22.7168V29.5352H18.4395ZM32.6777 41.459V33.7832C32.6973 32.8262 33.1367 31.8887 33.9961 30.9707C35.0508 29.877 36.3398 29.3203 37.8633 29.3008V32.9922C37.2969 32.9922 36.9062 33.2363 36.6914 33.7246C36.6328 33.8418 36.6035 33.9492 36.6035 34.0469V35.5117H40.9688V34.0762C40.9492 33.3535 40.4414 32.9922 39.4453 32.9922V29.3008C40.8711 29.3008 42.1211 29.7891 43.1953 30.7656C44.1328 31.625 44.6113 32.6211 44.6309 33.7539V39.291H36.6035V41.459C36.7402 42.0254 37.1699 42.3379 37.8926 42.3965V46C36.0566 46 34.6016 45.248 33.5273 43.7441C32.9609 42.9434 32.6777 42.1816 32.6777 41.459ZM39.4453 46V42.4258C40.5 42.4062 41.1738 41.9082 41.4668 40.9316L44.6602 42.1328C44.3672 43.3828 43.625 44.3887 42.4336 45.1504C41.5156 45.7168 40.5195 46 39.4453 46ZM46.8867 46V33.8418C46.8867 32.8652 47.3164 31.918 48.1758 31C49.2695 29.8672 50.6074 29.291 52.1895 29.2715V33.168C51.4082 33.2852 50.9688 33.6758 50.8711 34.3398V46H46.8867ZM53.5371 33.168V29.2715C54.8652 29.291 55.998 29.6523 56.9355 30.3555C57.834 29.6328 58.957 29.2715 60.3047 29.2715V33.168C59.4062 33.1875 58.9473 33.5781 58.9277 34.3398V46H54.9434V34.3398C54.9043 33.5781 54.4355 33.1875 53.5371 33.168ZM61.623 33.168V29.2715C63.5176 29.2715 65.0117 30.0234 66.1055 31.5273C66.6914 32.3477 66.9844 33.1191 66.9844 33.8418V46H63V34.3398C62.9609 33.5781 62.502 33.1875 61.623 33.168ZM69.3281 46V25.0234H73.3711V46H69.3281ZM74.9238 46V42.1914H75.9785C76.0957 42.1914 76.2031 42.1816 76.3008 42.1621C76.418 42.123 76.5156 42.084 76.5938 42.0449C76.6719 42.0059 76.7402 41.957 76.7988 41.8984C76.8574 41.8398 76.8965 41.7812 76.916 41.7227C76.9551 41.6641 76.9844 41.6152 77.0039 41.5762C77.0234 41.5176 77.043 41.4688 77.0625 41.4297V41.4004V33.9004C77.0625 33.666 76.916 33.4609 76.623 33.2852C76.4473 33.1875 76.2422 33.1289 76.0078 33.1094H74.9238V29.3008H75.9785C77.7363 29.3008 79.1133 30.0723 80.1094 31.6152C80.5977 32.377 80.8516 33.0996 80.8711 33.7832V41.459C80.8711 42.3379 80.4902 43.2461 79.7285 44.1836C78.7324 45.375 77.4824 45.9805 75.9785 46H74.9238ZM82.8633 41.459V33.7832C82.8828 32.8262 83.3223 31.8887 84.1816 30.9707C85.2363 29.877 86.5254 29.3203 88.0488 29.3008V32.9922C87.4824 32.9922 87.0918 33.2363 86.877 33.7246C86.8184 33.8418 86.7891 33.9492 86.7891 34.0469V35.5117H91.1543V34.0762C91.1348 33.3535 90.627 32.9922 89.6309 32.9922V29.3008C91.0566 29.3008 92.3066 29.7891 93.3809 30.7656C94.3184 31.625 94.7969 32.6211 94.8164 33.7539V39.291H86.7891V41.459C86.9258 42.0254 87.3555 42.3379 88.0781 42.3965V46C86.2422 46 84.7871 45.248 83.7129 43.7441C83.1465 42.9434 82.8633 42.1816 82.8633 41.459ZM89.6309 46V42.4258C90.6855 42.4062 91.3594 41.9082 91.6523 40.9316L94.8457 42.1328C94.5527 43.3828 93.8105 44.3887 92.6191 45.1504C91.7012 45.7168 90.7051 46 89.6309 46ZM97.1895 46V29.3008H101.174V31.1465C101.857 30.2676 102.785 29.6621 103.957 29.3301C104.367 29.2129 104.777 29.1543 105.188 29.1543H106.242L105.334 33.0801C104.104 33.0996 103.039 33.6367 102.141 34.6914C101.496 35.4531 101.174 36.2441 101.174 37.0645V46H97.1895Z" fill="#4B3C2F"/>
<path d="M1 41C1.17188 39.8911 1.86458 37.6679 5.32552 33.6782C7.29891 31.4034 7.77083 29.3097 8.28906 26.8022C9.04465 23.1463 10.5417 20.9515 12.3646 18.7199C14.9112 15.6023 18.3542 11.4789 19.6589 9.24728C20.8756 7.16612 22 4.79237 23.4766 2.74462C24.1394 1.82543 25.474 1.62741 26.513 1.16214C28.5156 0.265409 30.6771 3.2879 32.1589 5.33008C33.5658 7.26915 34.8438 9.78499 37.362 12.2952C39.1558 14.0834 41.6146 14.9894 43.2682 17.0315C45.0832 19.273 46.1354 21.4864 47.8672 23.1636C48.3906 23.537 48.9063 23.9047 49.3438 24.37C49.7813 24.8353 50.125 25.3869 51 25.9553" stroke="#4B3C2F" stroke-width="2" stroke-linecap="round"/>
<path d="M49 18.3663C49.9222 17.1611 51.7667 15.1443 53.6222 12.8248C55.9928 9.86145 58.0667 8.08274 60.1028 7.16219C62.4379 6.10646 64.1778 10.481 66.2139 12.3039C68.2053 14.0869 70.6556 14.9263 72.8806 16.5433C75.1056 18.1603 76.7722 19.3716 77.6972 20.277C78.0722 20.7827 78.2556 21.3823 79 22" stroke="#4B3C2F" stroke-width="2" stroke-linecap="round"/>
</svg>
