<svg width="50" height="50" viewBox="0 0 50 50" fill="none" xmlns="http://www.w3.org/2000/svg">
<rect width="50" height="50" rx="25" fill="white"/>
<path fill-rule="evenodd" clip-rule="evenodd" d="M33.3298 28.8224C33.6302 28.715 33.9602 28.7264 34.2524 28.8545C34.5446 28.9825 34.7768 29.2174 34.9015 29.5111C35.0261 29.8047 35.0337 30.1349 34.9228 30.4341C34.8118 30.7332 34.5908 30.9785 34.3048 31.1199L34.1698 31.1774L28.716 33.1249L34.1698 35.0724C34.4716 35.1785 34.7213 35.3962 34.8674 35.6808C35.0135 35.9654 35.045 36.2952 34.9553 36.6022C34.8656 36.9093 34.6615 37.1703 34.3852 37.3315C34.1088 37.4927 33.7812 37.5418 33.4698 37.4687L33.3298 37.4274L24.9998 34.4524L16.6698 37.4274C16.3694 37.5349 16.0393 37.5234 15.7471 37.3954C15.4549 37.2673 15.2227 37.0324 15.0981 36.7388C14.9735 36.4451 14.9658 36.1149 15.0768 35.8158C15.1877 35.5167 15.4088 35.2713 15.6948 35.1299L15.8298 35.0724L21.2835 33.1249L15.8298 31.1774C15.528 31.0714 15.2783 30.8536 15.1322 30.569C14.986 30.2845 14.9546 29.9547 15.0443 29.6476C15.134 29.3405 15.338 29.0795 15.6144 28.9183C15.8907 28.7572 16.2183 28.7081 16.5298 28.7812L16.6698 28.8224L24.9998 31.7974L33.3298 28.8224ZM24.0373 13.6149L24.921 13.0399L25.196 12.8737C25.8085 12.5274 26.4835 12.2987 27.0673 12.8062C27.4173 13.1087 27.5335 13.5349 27.471 13.9687L27.421 14.2249L27.4023 14.3999C27.3939 14.5066 27.3973 14.6345 27.4123 14.7837C27.5198 15.7474 28.176 16.4362 28.856 17.0599L29.4273 17.5799L29.8548 17.9837C30.8698 18.9737 31.9898 20.3087 32.461 22.1962C33.0285 24.4637 32.4685 26.4974 30.9835 27.9299C29.551 29.3149 27.401 29.9999 24.9998 29.9999C21.0385 29.9999 17.4998 27.4349 17.4998 23.1249C17.4998 19.7549 19.7273 17.0937 21.6773 15.3874C22.4251 14.7455 23.2143 14.1534 24.0398 13.6149M25.2773 21.5799L24.9998 21.2499L24.7235 21.5799L24.4273 21.9562L24.1935 22.2712L23.9435 22.6262C23.261 23.6249 22.4998 24.9962 22.4998 26.1462C22.4998 27.5837 23.6198 28.7499 24.9998 28.7499C26.3798 28.7499 27.4998 27.5837 27.4998 26.1462C27.4998 24.9962 26.7385 23.6249 26.056 22.6262L25.806 22.2712L25.5723 21.9562L25.2773 21.5799Z" fill="#4B3C2F"/>
</svg>
