<svg width="20" height="20" viewBox="0 0 20 20" fill="none" xmlns="http://www.w3.org/2000/svg">
<path d="M12.4993 8.33268L11.4718 8.16102C11.4469 8.31027 11.4548 8.46317 11.4949 8.60907C11.5351 8.75497 11.6066 8.89038 11.7043 9.00586C11.8021 9.12134 11.9239 9.21412 12.0612 9.27776C12.1985 9.3414 12.348 9.37436 12.4993 9.37435V8.33268ZM3.33268 8.33268V7.29102C2.75768 7.29102 2.29102 7.75768 2.29102 8.33268H3.33268ZM4.99935 17.7077H14.466V15.6243H4.99935V17.7077ZM15.466 7.29102H12.4993V9.37435H15.466V7.29102ZM13.5268 8.50435L14.1985 4.47435L12.1435 4.13185L11.4718 8.16185L13.5268 8.50435ZM12.3493 2.29102H12.171V4.37435H12.3493V2.29102ZM9.22435 3.86852L7.12768 7.01268L8.86102 8.16852L10.9577 5.02352L9.22435 3.86852ZM6.60768 7.29102H3.33268V9.37435H6.60768V7.29102ZM2.29102 8.33268V14.9993H4.37435V8.33268H2.29102ZM17.1219 15.5302L18.1219 10.5302L16.0794 10.1218L15.0794 15.1218L17.1219 15.5302ZM7.12768 7.01268C7.07061 7.09829 6.99329 7.16849 6.90258 7.21705C6.81187 7.2656 6.71057 7.29101 6.60768 7.29102V9.37435C7.05351 9.37435 7.49244 9.26429 7.88553 9.05393C8.27861 8.84358 8.61368 8.53945 8.86102 8.16852L7.12768 7.01268ZM14.1985 4.47435C14.2433 4.20569 14.229 3.93051 14.1567 3.66793C14.0843 3.40535 13.9556 3.16169 13.7796 2.9539C13.6035 2.7461 13.3843 2.57915 13.1371 2.46468C12.89 2.3502 12.6217 2.29094 12.3493 2.29102V4.37435C12.3191 4.37427 12.2885 4.36763 12.2611 4.35488C12.2337 4.34213 12.2094 4.32358 12.1899 4.30051C12.1704 4.27745 12.1562 4.25041 12.1482 4.22129C12.1401 4.19216 12.1386 4.16165 12.1435 4.13185L14.1985 4.47435ZM15.466 9.37435C15.5585 9.37428 15.6499 9.39475 15.7335 9.43427C15.8172 9.47379 15.891 9.53139 15.9496 9.6029C16.0083 9.67441 16.0504 9.75806 16.0728 9.8478C16.0953 9.93754 16.0975 10.0311 16.0794 10.1218L18.1219 10.5302C18.2004 10.1373 18.1908 9.73198 18.0937 9.3433C17.9967 8.95462 17.8146 8.59231 17.5607 8.28248C17.3067 7.97265 16.9872 7.72302 16.6251 7.55157C16.2631 7.38012 15.8675 7.29113 15.4669 7.29102L15.466 9.37435ZM14.466 17.7077C15.0922 17.7077 15.699 17.4907 16.1832 17.0937C16.6674 16.6967 16.9991 16.1442 17.1219 15.5302L15.0794 15.1218C15.051 15.2636 14.9744 15.3912 14.8626 15.4828C14.7507 15.5744 14.6106 15.6245 14.466 15.6243V17.7077ZM12.171 2.29102C11.588 2.29109 11.0139 2.43511 10.4999 2.7103C9.98585 2.98549 9.54771 3.38333 9.22435 3.86852L10.9577 5.02352C11.0909 4.82381 11.2713 4.66007 11.483 4.54682C11.6946 4.43358 11.931 4.37434 12.171 4.37435V2.29102ZM4.99935 15.6243C4.83359 15.6243 4.67462 15.5585 4.55741 15.4413C4.4402 15.3241 4.37435 15.1651 4.37435 14.9993H2.29102C2.29102 15.7176 2.57636 16.4065 3.08427 16.9144C3.59218 17.4223 4.28105 17.7077 4.99935 17.7077V15.6243Z" fill="#4B3C2F"/>
<path d="M6.66602 8.33203V16.6654" stroke="#4B3C2F" stroke-width="1.5"/>
</svg>
