<svg width="60" height="60" viewBox="0 0 60 60" fill="none" xmlns="http://www.w3.org/2000/svg">
<rect width="60" height="60" rx="30" fill="#4B3C2F"/>
<path fill-rule="evenodd" clip-rule="evenodd" d="M36.5 32.1667C36.7873 32.1667 37.0629 32.2808 37.266 32.484C37.4692 32.6871 37.5833 32.9627 37.5833 33.25V35.4167H39.75C40.0373 35.4167 40.3129 35.5308 40.516 35.734C40.7192 35.9371 40.8333 36.2127 40.8333 36.5C40.8333 36.7873 40.7192 37.0629 40.516 37.266C40.3129 37.4692 40.0373 37.5833 39.75 37.5833H37.5833V39.75C37.5833 40.0373 37.4692 40.3129 37.266 40.516C37.0629 40.7192 36.7873 40.8333 36.5 40.8333C36.2127 40.8333 35.9371 40.7192 35.734 40.516C35.5308 40.3129 35.4167 40.0373 35.4167 39.75V37.5833H33.25C32.9627 37.5833 32.6871 37.4692 32.484 37.266C32.2808 37.0629 32.1667 36.7873 32.1667 36.5C32.1667 36.2127 32.2808 35.9371 32.484 35.734C32.6871 35.5308 32.9627 35.4167 33.25 35.4167H35.4167V33.25C35.4167 32.9627 35.5308 32.6871 35.734 32.484C35.9371 32.2808 36.2127 32.1667 36.5 32.1667ZM34.3333 20.25C34.6207 20.25 34.8962 20.3641 35.0994 20.5673C35.3025 20.7705 35.4167 21.046 35.4167 21.3333V22.4167H37.5833C38.158 22.4167 38.7091 22.6449 39.1154 23.0513C39.5217 23.4576 39.75 24.0087 39.75 24.5833V28.9167C39.75 29.204 39.6359 29.4795 39.4327 29.6827C39.2295 29.8859 38.954 30 38.6667 30H22.4167V37.5833H28.9167C29.204 37.5833 29.4795 37.6975 29.6827 37.9006C29.8859 38.1038 30 38.3793 30 38.6667C30 38.954 29.8859 39.2295 29.6827 39.4327C29.4795 39.6359 29.204 39.75 28.9167 39.75H22.4167C21.842 39.75 21.2909 39.5217 20.8846 39.1154C20.4783 38.7091 20.25 38.158 20.25 37.5833V24.5833C20.25 24.0087 20.4783 23.4576 20.8846 23.0513C21.2909 22.6449 21.842 22.4167 22.4167 22.4167H24.5833V21.3333C24.5833 21.046 24.6975 20.7705 24.9006 20.5673C25.1038 20.3641 25.3793 20.25 25.6667 20.25C25.954 20.25 26.2295 20.3641 26.4327 20.5673C26.6359 20.7705 26.75 21.046 26.75 21.3333V22.4167H33.25V21.3333C33.25 21.046 33.3641 20.7705 33.5673 20.5673C33.7705 20.3641 34.046 20.25 34.3333 20.25ZM37.5833 24.5833H22.4167V27.8333H37.5833V24.5833Z" fill="white"/>
</svg>
