<svg width="20" height="20" viewBox="0 0 20 20" fill="none" xmlns="http://www.w3.org/2000/svg">
<g clip-path="url(#clip0_438_13)">
<path d="M16.2503 6.25V6.6075C16.2503 9.38667 17.3237 10.12 19.5837 11.25V15.4167H17.5003M16.2503 6.25H17.917V5.83333C17.917 5.83333 16.667 5 16.2503 3.75H0.416992V15.4167H2.08366M16.2503 6.25H12.0837V9.58333H17.0995M17.5003 15.4167C17.5003 15.9692 17.2808 16.4991 16.8901 16.8898C16.4994 17.2805 15.9695 17.5 15.417 17.5C14.8645 17.5 14.3346 17.2805 13.9439 16.8898C13.5532 16.4991 13.3337 15.9692 13.3337 15.4167M17.5003 15.4167C17.5003 14.8641 17.2808 14.3342 16.8901 13.9435C16.4994 13.5528 15.9695 13.3333 15.417 13.3333C14.8645 13.3333 14.3346 13.5528 13.9439 13.9435C13.5532 14.3342 13.3337 14.8641 13.3337 15.4167M2.08366 15.4167C2.08366 15.9692 2.30315 16.4991 2.69385 16.8898C3.08455 17.2805 3.61446 17.5 4.16699 17.5C4.71953 17.5 5.24943 17.2805 5.64013 16.8898C6.03083 16.4991 6.25033 15.9692 6.25033 15.4167M2.08366 15.4167C2.08366 14.8641 2.30315 14.3342 2.69385 13.9435C3.08455 13.5528 3.61446 13.3333 4.16699 13.3333C4.71953 13.3333 5.24943 13.5528 5.64013 13.9435C6.03083 14.3342 6.25033 14.8641 6.25033 15.4167M13.3337 15.4167H6.25033M9.58366 9.58333V6.25H2.91699V9.58333H9.58366Z" stroke="#4B3C2F" stroke-opacity="0.5"/>
</g>
<defs>
<clipPath id="clip0_438_13">
<rect width="20" height="20" fill="white"/>
</clipPath>
</defs>
</svg>
