<svg width="60" height="60" viewBox="0 0 60 60" fill="none" xmlns="http://www.w3.org/2000/svg">
<rect width="60" height="60" rx="30" fill="#4B3C2F"/>
<path d="M39.6199 24.275C38.8377 23.5021 37.7837 23.0665 36.6841 23.0617H35.1457C34.9187 23.0613 34.7008 22.9718 34.5391 22.8125L33.2932 21.5667C32.827 21.1025 32.1961 20.8416 31.5382 20.8408H28.4616C27.8037 20.8416 27.1728 21.1025 26.7066 21.5667L25.4607 22.8125C25.299 22.9718 25.0811 23.0613 24.8541 23.0617H23.3157C22.7695 23.0602 22.2285 23.1669 21.7237 23.3756C21.2189 23.5843 20.7605 23.8908 20.3748 24.2775C19.9891 24.6643 19.6837 25.1235 19.4764 25.6288C19.269 26.1341 19.1637 26.6755 19.1666 27.2217V35.0108C19.1651 35.5561 19.2715 36.0963 19.4795 36.6003C19.6875 37.1044 19.9931 37.5623 20.3786 37.9479C20.7642 38.3335 21.2222 38.6391 21.7262 38.8471C22.2303 39.0551 22.7705 39.1614 23.3157 39.16H36.6841C37.7842 39.1575 38.839 38.7215 39.6199 37.9467C40.0055 37.5613 40.3113 37.1036 40.5195 36.5998C40.7277 36.096 40.8343 35.556 40.8332 35.0108V27.2217C40.8346 26.6749 40.7281 26.1332 40.5199 25.6275C40.3117 25.1219 40.0059 24.6623 39.6199 24.275ZM29.9566 34.545C29.1681 34.545 28.3973 34.3112 27.7417 33.8731C27.0861 33.4351 26.5751 32.8124 26.2734 32.084C25.9716 31.3555 25.8927 30.5539 26.0465 29.7806C26.2003 29.0072 26.58 28.2969 27.1376 27.7393C27.6951 27.1818 28.4055 26.8021 29.1788 26.6483C29.9521 26.4944 30.7537 26.5734 31.4822 26.8751C32.2107 27.1769 32.8333 27.6878 33.2714 28.3434C33.7094 28.9991 33.9432 29.7698 33.9432 30.5583C33.9404 31.6148 33.5194 32.6271 32.7724 33.3742C32.0254 34.1212 31.013 34.5421 29.9566 34.545Z" fill="white"/>
</svg>
