<svg width="266" height="164" viewBox="0 0 266 164" fill="none" xmlns="http://www.w3.org/2000/svg">
<path d="M83.5625 76.9062V66.75L98.4062 41.2812V60.9688L94.8125 66.75H98.4062V76.9062H83.5625ZM102.859 88V33.2344H113.797V66.75H118.016V76.9062H113.797V88H102.859ZM137.703 88C130.255 88 125.568 82.8177 123.641 72.4531C123.016 69.0156 122.703 65.0833 122.703 60.6562C122.703 43.9896 126.948 34.9271 135.438 33.4688C136.167 33.3646 136.922 33.3125 137.703 33.3125V43.7812C135.047 44.4062 133.589 48.1823 133.328 55.1094C133.276 56.3073 133.25 57.8698 133.25 59.7969V61.5156C133.25 68.7031 133.875 73.3385 135.125 75.4219C135.802 76.5677 136.661 77.2708 137.703 77.5312V88ZM142 88V77.5312C144.656 76.9062 146.115 73.1302 146.375 66.2031C146.427 65.0052 146.453 63.4427 146.453 61.5156V59.7969C146.453 52.6094 145.828 47.974 144.578 45.8906C143.901 44.7448 143.042 44.0417 142 43.7812V33.3125C149.448 33.3125 154.135 38.4948 156.062 48.8594C156.688 52.2969 157 56.2292 157 60.6562C157 77.3229 152.755 86.3854 144.266 87.8438C143.536 87.9479 142.781 88 142 88ZM160.906 76.9062V66.75L175.75 41.2812V60.9688L172.156 66.75H175.75V76.9062H160.906ZM180.203 88V33.2344H191.141V66.75H195.359V76.9062H191.141V88H180.203Z" fill="#4B3C2F"/>
<path d="M68 46C68.2097 44.7803 69.0548 42.3347 73.2771 37.9461C75.6847 35.4437 76.2604 33.1407 76.8927 30.3825C77.8145 26.361 79.6408 23.9467 81.8648 21.4919C84.9717 18.0625 89.1721 13.5268 90.7638 11.072C92.2482 8.78273 93.62 6.17161 95.4214 3.91908C96.23 2.90798 97.8582 2.69015 99.1259 2.17835C101.569 1.19195 104.206 4.51669 106.014 6.76309C107.73 8.89606 109.289 11.6635 112.362 14.4248C114.55 16.3917 117.55 17.3883 119.567 19.6347C121.782 22.1003 123.065 24.5351 125.178 26.38C125.817 26.7907 126.446 27.1952 126.979 27.707C127.513 28.2188 127.933 28.8256 129 29.4508" stroke="#4B3C2F" stroke-width="3.5" stroke-linecap="round"/>
<path d="M126 20.124C127.014 18.8385 129.043 16.6873 131.084 14.2131C133.692 11.0522 135.973 9.15492 138.213 8.173C140.782 7.04689 142.696 11.7131 144.935 13.6575C147.126 15.5593 149.821 16.4547 152.269 18.1795C154.716 19.9044 156.549 21.1964 157.567 22.1621C157.979 22.7015 158.181 23.3411 159 24" stroke="#4B3C2F" stroke-width="3.5" stroke-linecap="round"/>
<path d="M1.8457 152V121.238H8.04199V152H1.8457ZM10.415 137.981V131.917H11.8652C13.125 131.917 13.8574 131.36 14.0625 130.247C14.0918 130.071 14.1064 129.881 14.1064 129.676C13.9307 128.24 13.1836 127.464 11.8652 127.347H10.415V121.238H12.041C17.5195 121.443 20.3027 124.197 20.3906 129.5C20.3906 133.426 19.2627 135.96 17.0068 137.103C15.7471 137.718 14.0918 138.011 12.041 137.981C11.9531 137.981 11.4111 137.981 10.415 137.981ZM22.1484 146.199V143.958C22.1777 142.083 22.9688 140.633 24.5215 139.607C24.9023 139.402 26.4404 138.831 29.1357 137.894C32.2705 136.839 33.8379 135.901 33.8379 135.081V134.07C33.8086 133.016 33.1641 132.444 31.9043 132.356V126.951C34.1016 126.951 35.9473 127.698 37.4414 129.192C38.7891 130.569 39.4629 132.063 39.4629 133.675V145.145C39.4922 146.023 39.9023 146.492 40.6934 146.551V152C38.9062 152 37.4707 151.531 36.3867 150.594C35.2441 151.502 33.7646 151.971 31.9482 152V146.595C32.1826 146.595 32.4023 146.565 32.6074 146.507C33.4277 146.272 33.8379 145.716 33.8379 144.837V141.233C33.0469 141.702 31.5088 142.259 29.2236 142.903C28.2861 143.138 27.7441 143.299 27.5977 143.387C27.2461 143.562 27.0557 143.899 27.0264 144.397V145.013C27.0264 145.188 27.041 145.364 27.0703 145.54C27.2461 146.243 28.0811 146.595 29.5752 146.595V152C27.6123 152 25.9424 151.502 24.5654 150.506C22.9541 149.334 22.1484 147.898 22.1484 146.199ZM22.4561 133.235C22.4854 131.741 23.1006 130.379 24.3018 129.148C25.8252 127.684 27.5977 126.951 29.6191 126.951V132.356C28.2715 132.386 27.583 133.323 27.5537 135.169L22.4561 133.235ZM42.6709 160.35L44.0332 154.944H52.7344C53.6719 154.915 54.2725 154.49 54.5361 153.67C54.5654 153.611 54.5801 153.567 54.5801 153.538V151.473C53.9648 151.59 53.3057 151.648 52.6025 151.648V146.199C53.8623 146.141 54.5215 145.657 54.5801 144.749V133.543C54.5801 133.133 54.3164 132.767 53.7891 132.444C53.4375 132.239 53.042 132.137 52.6025 132.137V126.644C53.3057 126.644 53.9648 126.731 54.5801 126.907V126.644H60.2051V153.538C60.2051 154.827 59.6338 156.16 58.4912 157.537C56.9678 159.383 55.0781 160.32 52.8223 160.35H42.6709ZM43.1104 144.881V133.323C43.1396 131.917 43.7695 130.54 45 129.192C46.5234 127.522 48.4277 126.673 50.7129 126.644V132.137C49.6582 132.137 48.9844 132.518 48.6914 133.279C48.6621 133.367 48.6475 133.426 48.6475 133.455V144.837C48.6475 145.511 49.0723 145.936 49.9219 146.111C50.1562 146.17 50.4199 146.199 50.7129 146.199V151.648C47.959 151.648 45.8203 150.491 44.2969 148.177C43.5059 147.005 43.1104 145.906 43.1104 144.881ZM63.501 145.188V133.675C63.5303 132.239 64.1895 130.833 65.4785 129.456C67.0605 127.815 68.9941 126.98 71.2793 126.951V132.488C70.4297 132.488 69.8438 132.854 69.5215 133.587C69.4336 133.763 69.3896 133.924 69.3896 134.07V136.268H75.9375V134.114C75.9082 133.03 75.1465 132.488 73.6523 132.488V126.951C75.791 126.951 77.666 127.684 79.2773 129.148C80.6836 130.438 81.4014 131.932 81.4307 133.631V141.937H69.3896V145.188C69.5947 146.038 70.2393 146.507 71.3232 146.595V152C68.5693 152 66.3867 150.872 64.7754 148.616C63.9258 147.415 63.501 146.272 63.501 145.188ZM73.6523 152V146.639C75.2344 146.609 76.2451 145.862 76.6846 144.397L81.4746 146.199C81.0352 148.074 79.9219 149.583 78.1348 150.726C76.7578 151.575 75.2637 152 73.6523 152ZM95.5371 152V130.379H95.8887L101.733 139.783V152H95.5371ZM95.5371 125.281V121.238H100.591L115.093 144.617V152H112.148L95.5371 125.281ZM108.896 130.115V121.238H115.093V139.52H114.741L108.896 130.115ZM118.608 145.188V133.719C118.608 132.283 119.238 130.877 120.498 129.5C122.08 127.83 124.087 126.98 126.519 126.951V132.664C125.2 132.781 124.497 133.338 124.409 134.334V144.573C124.468 145.716 125.171 146.302 126.519 146.331V152.044C123.647 152.044 121.421 150.887 119.839 148.572C119.019 147.371 118.608 146.243 118.608 145.188ZM128.54 152.044V146.331C129.771 146.185 130.444 145.628 130.562 144.661L130.518 134.334C130.312 133.279 129.639 132.723 128.496 132.664V126.951C131.25 126.951 133.403 128.064 134.956 130.291C135.776 131.492 136.187 132.635 136.187 133.719V145.188C136.187 146.653 135.557 148.089 134.297 149.495C132.773 151.165 130.854 152.015 128.54 152.044ZM138.472 132.62V126.951H141.548V120.535H147.437V126.951H150.337V132.664H147.437V144.31C147.495 145.364 148.037 145.906 149.062 145.936H150.337L151.655 152H149.019C145.181 152 142.837 150.55 141.987 147.649C141.694 146.595 141.548 145.335 141.548 143.87V132.62H138.472ZM164.487 151.956V121.238H180.483V127.391H170.684V133.631H176.353V139.827H170.684V151.956H164.487ZM183.296 145.188V133.719C183.296 132.283 183.926 130.877 185.186 129.5C186.768 127.83 188.774 126.98 191.206 126.951V132.664C189.888 132.781 189.185 133.338 189.097 134.334V144.573C189.155 145.716 189.858 146.302 191.206 146.331V152.044C188.335 152.044 186.108 150.887 184.526 148.572C183.706 147.371 183.296 146.243 183.296 145.188ZM193.228 152.044V146.331C194.458 146.185 195.132 145.628 195.249 144.661L195.205 134.334C195 133.279 194.326 132.723 193.184 132.664V126.951C195.938 126.951 198.091 128.064 199.644 130.291C200.464 131.492 200.874 132.635 200.874 133.719V145.188C200.874 146.653 200.244 148.089 198.984 149.495C197.461 151.165 195.542 152.015 193.228 152.044ZM204.214 145.364V126.951H210.19V144.661C210.249 145.774 210.923 146.346 212.212 146.375V152.22C209.341 152.22 207.1 151.092 205.488 148.836C204.639 147.635 204.214 146.478 204.214 145.364ZM214.233 152.22V146.375C215.493 146.229 216.182 145.657 216.299 144.661V126.951H222.275V145.364C222.275 146.741 221.631 148.133 220.342 149.539C218.701 151.297 216.665 152.19 214.233 152.22ZM225.615 152V133.763C225.615 132.298 226.274 130.862 227.593 129.456C229.204 127.786 231.211 126.937 233.613 126.907V132.752C232.383 132.898 231.709 133.47 231.592 134.466V152H225.615ZM235.635 132.752V126.907C238.477 126.907 240.718 128.035 242.358 130.291C243.237 131.521 243.677 132.679 243.677 133.763V152H237.7V134.466C237.7 133.499 237.158 132.942 236.074 132.796C235.928 132.767 235.781 132.752 235.635 132.752ZM246.665 145.188V133.763C246.694 132.386 247.295 131.009 248.467 129.632C249.932 127.962 251.748 127.112 253.916 127.083H255.366V132.752H253.916C253.066 132.84 252.554 133.25 252.378 133.982V145.101C252.378 145.423 252.583 145.73 252.993 146.023C253.286 146.199 253.623 146.287 254.004 146.287H255.366V152H254.004C251.338 152 249.258 150.813 247.764 148.44C247.031 147.269 246.665 146.185 246.665 145.188ZM257.695 152V120.535H263.804L263.76 152H257.695Z" fill="#4B3C2F"/>
</svg>
