<svg width="60" height="60" viewBox="0 0 60 60" fill="none" xmlns="http://www.w3.org/2000/svg">
<rect width="60" height="60" rx="30" fill="#4B3C2F" fill-opacity="0.9"/>
<g clip-path="url(#clip0_188_226)">
<path d="M20.9393 29.2341C20.7362 29.4373 20.6221 29.7128 20.6221 30C20.6221 30.2873 20.7362 30.5628 20.9393 30.766L27.0677 36.8944C27.1676 36.9978 27.2871 37.0804 27.4193 37.1371C27.5515 37.1939 27.6936 37.2238 27.8375 37.2251C27.9813 37.2263 28.124 37.1989 28.2571 37.1444C28.3903 37.09 28.5112 37.0095 28.6129 36.9078C28.7147 36.8061 28.7951 36.6851 28.8496 36.552C28.904 36.4188 28.9314 36.2762 28.9302 36.1324C28.9289 35.9885 28.8991 35.8464 28.8423 35.7142C28.7855 35.582 28.703 35.4625 28.5995 35.3625L24.3203 31.0834H38.6669C38.9542 31.0834 39.2298 30.9692 39.433 30.7661C39.6361 30.5629 39.7503 30.2874 39.7503 30C39.7503 29.7127 39.6361 29.4372 39.433 29.234C39.2298 29.0308 38.9542 28.9167 38.6669 28.9167H24.3203L28.5995 24.6375C28.7968 24.4332 28.906 24.1596 28.9036 23.8755C28.9011 23.5915 28.7872 23.3198 28.5863 23.1189C28.3855 22.918 28.1137 22.8041 27.8297 22.8016C27.5456 22.7992 27.272 22.9084 27.0677 23.1057L20.9393 29.2341Z" fill="white" fill-opacity="0.8"/>
</g>
<defs>
<clipPath id="clip0_188_226">
<rect x="17" y="43" width="26" height="26" rx="5" transform="rotate(-90 17 43)" fill="white"/>
</clipPath>
</defs>
</svg>
