<svg width="20" height="20" viewBox="0 0 20 20" fill="none" xmlns="http://www.w3.org/2000/svg">
<g clip-path="url(#clip0_432_883)">
<path d="M12.4998 8.33317L11.4723 8.1615C11.4474 8.31076 11.4553 8.46366 11.4954 8.60956C11.5356 8.75546 11.607 8.89086 11.7048 9.00635C11.8026 9.12183 11.9244 9.21461 12.0617 9.27825C12.199 9.34189 12.3485 9.37485 12.4998 9.37484V8.33317ZM3.33317 8.33317V7.2915C2.75817 7.2915 2.2915 7.75817 2.2915 8.33317H3.33317ZM4.99984 17.7082H14.4665V15.6248H4.99984V17.7082ZM15.4665 7.2915H12.4998V9.37484H15.4665V7.2915ZM13.5273 8.50484L14.199 4.47484L12.144 4.13234L11.4723 8.16234L13.5273 8.50484ZM12.3498 2.2915H12.1715V4.37484H12.3498V2.2915ZM9.22484 3.869L7.12817 7.01317L8.8615 8.169L10.9582 5.024L9.22484 3.869ZM6.60817 7.2915H3.33317V9.37484H6.60817V7.2915ZM2.2915 8.33317V14.9998H4.37484V8.33317H2.2915ZM17.1223 15.5307L18.1223 10.5307L16.0798 10.1223L15.0798 15.1223L17.1223 15.5307ZM7.12817 7.01317C7.0711 7.09878 6.99378 7.16898 6.90307 7.21753C6.81236 7.26609 6.71106 7.2915 6.60817 7.2915V9.37484C7.054 9.37484 7.49293 9.26477 7.88601 9.05442C8.2791 8.84407 8.61417 8.53993 8.8615 8.169L7.12817 7.01317ZM14.199 4.47484C14.2438 4.20618 14.2295 3.931 14.1572 3.66842C14.0848 3.40584 13.9561 3.16218 13.7801 2.95438C13.604 2.74659 13.3847 2.57964 13.1376 2.46517C12.8905 2.35069 12.6222 2.29143 12.3498 2.2915V4.37484C12.3196 4.37476 12.289 4.36812 12.2616 4.35537C12.2342 4.34262 12.2099 4.32407 12.1904 4.301C12.1709 4.27793 12.1567 4.2509 12.1487 4.22178C12.1406 4.19265 12.1391 4.16213 12.144 4.13234L14.199 4.47484ZM15.4665 9.37484C15.559 9.37477 15.6504 9.39524 15.734 9.43476C15.8176 9.47428 15.8915 9.53188 15.9501 9.60339C16.0088 9.6749 16.0509 9.75854 16.0733 9.84829C16.0957 9.93803 16.098 10.0316 16.0798 10.1223L18.1223 10.5307C18.2009 10.1378 18.1913 9.73247 18.0942 9.34379C17.9972 8.95511 17.8151 8.5928 17.5612 8.28297C17.3072 7.97314 16.9877 7.72351 16.6256 7.55206C16.2635 7.38061 15.8679 7.29162 15.4673 7.2915L15.4665 9.37484ZM14.4665 17.7082C15.0927 17.7082 15.6995 17.4912 16.1837 17.0942C16.6679 16.6972 16.9996 16.1447 17.1223 15.5307L15.0798 15.1223C15.0515 15.2641 14.9749 15.3917 14.8631 15.4833C14.7512 15.5749 14.6111 15.6249 14.4665 15.6248V17.7082ZM12.1715 2.2915C11.5884 2.29158 11.0144 2.4356 10.5004 2.71079C9.98634 2.98598 9.5482 3.38382 9.22484 3.869L10.9582 5.024C11.0914 4.8243 11.2718 4.66055 11.4835 4.54731C11.6951 4.43407 11.9315 4.37482 12.1715 4.37484V2.2915ZM4.99984 15.6248C4.83408 15.6248 4.67511 15.559 4.5579 15.4418C4.44069 15.3246 4.37484 15.1656 4.37484 14.9998H2.2915C2.2915 15.7181 2.57685 16.407 3.08476 16.9149C3.59267 17.4228 4.28154 17.7082 4.99984 17.7082V15.6248Z" fill="#4B3C2F"/>
<path d="M6.6665 8.3335V16.6668" stroke="#4B3C2F" stroke-width="1.5"/>
<path fill-rule="evenodd" clip-rule="evenodd" d="M9.3975 3.98417C9.70198 3.52751 10.1145 3.1531 10.5985 2.89419C11.0824 2.63528 11.6228 2.49987 12.1717 2.5H12.3492C12.5913 2.49997 12.8304 2.55268 13.0501 2.65446C13.2697 2.75624 13.4646 2.90465 13.6211 3.08936C13.7775 3.27408 13.8919 3.49066 13.9562 3.72406C14.0205 3.95745 14.0332 4.20205 13.9933 4.44083L13.4833 7.5H15.4667C15.8365 7.49998 16.2018 7.58202 16.5361 7.74022C16.8705 7.89843 17.1655 8.12884 17.4 8.41485C17.6346 8.70087 17.8027 9.03535 17.8923 9.3942C17.9819 9.75304 17.9908 10.1273 17.9183 10.49L16.9183 15.49C16.805 16.0568 16.4988 16.5668 16.0518 16.9333C15.6049 17.2998 15.0447 17.5 14.4667 17.5H5C4.33696 17.5 3.70107 17.2366 3.23223 16.7678C2.76339 16.2989 2.5 15.663 2.5 15V8.33333C2.5 8.11232 2.5878 7.90036 2.74408 7.74408C2.90036 7.5878 3.11232 7.5 3.33333 7.5H6.60833C6.74549 7.50002 6.88054 7.46619 7.00149 7.4015C7.12243 7.33681 7.22554 7.24326 7.30167 7.12917L9.3975 3.98417ZM5.83333 9.16667H4.16667V15C4.16667 15.221 4.25446 15.433 4.41074 15.5893C4.56702 15.7455 4.77899 15.8333 5 15.8333H5.83333V9.16667Z" fill="#4B3C2F"/>
</g>
<defs>
<clipPath id="clip0_432_883">
<rect width="20" height="20" fill="white"/>
</clipPath>
</defs>
</svg>
