<svg width="20" height="20" viewBox="0 0 20 20" fill="none" xmlns="http://www.w3.org/2000/svg">
<g clip-path="url(#clip0_327_1924)">
<path fill-rule="evenodd" clip-rule="evenodd" d="M19.5071 1.9069C19.6947 1.71935 19.8001 1.46499 19.8001 1.19976C19.8001 0.934528 19.6947 0.680161 19.5071 0.492615C19.3196 0.305069 19.0652 0.199707 18.8 0.199707C18.5348 0.199707 18.2804 0.305069 18.0929 0.492615L10 8.58547L1.90715 0.492615C1.7196 0.305069 1.46523 0.199707 1.2 0.199707C0.934772 0.199707 0.680405 0.305069 0.492859 0.492615C0.305313 0.680161 0.199951 0.934528 0.199951 1.19976C0.199951 1.46499 0.305313 1.71935 0.492859 1.9069L8.58572 9.99976L0.492859 18.0926C0.305313 18.2802 0.199951 18.5345 0.199951 18.7998C0.199951 19.065 0.305313 19.3194 0.492859 19.5069C0.680405 19.6944 0.934772 19.7998 1.2 19.7998C1.46523 19.7998 1.7196 19.6944 1.90715 19.5069L10 11.414L18.0929 19.5069C18.2804 19.6944 18.5348 19.7998 18.8 19.7998C19.0652 19.7998 19.3196 19.6944 19.5071 19.5069C19.6947 19.3194 19.8001 19.065 19.8001 18.7998C19.8001 18.5345 19.6947 18.2802 19.5071 18.0926L11.4143 9.99976L19.5071 1.9069Z" fill="#4B3C2F"/>
</g>
<defs>
<clipPath id="clip0_327_1924">
<rect width="20" height="20" fill="white"/>
</clipPath>
</defs>
</svg>
