<svg width="20" height="20" viewBox="0 0 20 20" fill="none" xmlns="http://www.w3.org/2000/svg">
<path d="M1.07152 15.74V4.89717L2.86294 6.33145C3.76723 7.05431 4.89152 7.4486 6.04866 7.4486H10.0001L11.8458 3.75717C12.0582 3.33395 12.384 2.97803 12.7868 2.72907C13.1896 2.48012 13.6537 2.3479 14.1272 2.34717H15.1015V5.53574L18.9287 6.81145V8.08717C18.9287 9.49574 17.7858 10.6372 16.3772 10.6372H13.8287V15.74C13.8356 15.9957 13.7913 16.2502 13.6983 16.4885C13.6053 16.7268 13.4654 16.944 13.2871 17.1273C13.1087 17.3106 12.8954 17.4563 12.6597 17.5558C12.4241 17.6553 12.1709 17.7066 11.9151 17.7066C11.6593 17.7066 11.4061 17.6553 11.1705 17.5558C10.9348 17.4563 10.7215 17.3106 10.5431 17.1273C10.3647 16.944 10.2249 16.7268 10.1319 16.4885C10.0389 16.2502 9.99453 15.9957 10.0015 15.74V15.1015C10.0015 14.3972 9.43009 13.8272 8.7258 13.8272H6.17294C5.46866 13.8272 4.89866 14.3986 4.89866 15.1015V15.74C4.90564 15.9957 4.86132 16.2502 4.76829 16.4885C4.67527 16.7268 4.53544 16.944 4.35705 17.1273C4.17867 17.3106 3.96536 17.4563 3.72971 17.5558C3.49407 17.6553 3.24088 17.7066 2.98509 17.7066C2.7293 17.7066 2.4761 17.6553 2.24046 17.5558C2.00482 17.4563 1.7915 17.3106 1.61312 17.1273C1.43474 16.944 1.2949 16.7268 1.20188 16.4885C1.10886 16.2502 1.06453 15.9957 1.07152 15.74Z" stroke="#4B3C2F" stroke-linecap="round" stroke-linejoin="round"/>
<path d="M10.0171 7.28149C10.2671 8.30578 11.4457 10.4172 14.1528 10.6744" stroke="#4B3C2F" stroke-linecap="round" stroke-linejoin="round"/>
</svg>
