<svg width="21" height="21" viewBox="0 0 21 21" fill="none" xmlns="http://www.w3.org/2000/svg">
<path d="M18.5937 10.5H7.78312M3.96725 10.5H2.40625M3.96725 10.5C3.96725 9.99413 4.16822 9.50895 4.52594 9.15122C4.88367 8.79349 5.36885 8.59253 5.87475 8.59253C6.38065 8.59253 6.86583 8.79349 7.22356 9.15122C7.58128 9.50895 7.78225 9.99413 7.78225 10.5C7.78225 11.0059 7.58128 11.4911 7.22356 11.8488C6.86583 12.2066 6.38065 12.4075 5.87475 12.4075C5.36885 12.4075 4.88367 12.2066 4.52594 11.8488C4.16822 11.4911 3.96725 11.0059 3.96725 10.5ZM18.5937 16.2812H13.5642M13.5642 16.2812C13.5642 16.7872 13.3628 17.2729 13.005 17.6307C12.6472 17.9885 12.1619 18.1895 11.6559 18.1895C11.15 18.1895 10.6648 17.9877 10.3071 17.63C9.94934 17.2722 9.74837 16.7871 9.74837 16.2812M13.5642 16.2812C13.5642 15.7751 13.3628 15.2903 13.005 14.9325C12.6472 14.5747 12.1619 14.3737 11.6559 14.3737C11.15 14.3737 10.6648 14.5746 10.3071 14.9323C9.94934 15.2901 9.74837 15.7753 9.74837 16.2812M9.74837 16.2812H2.40625M18.5937 4.7189H15.8769M12.061 4.7189H2.40625M12.061 4.7189C12.061 4.213 12.262 3.72782 12.6197 3.3701C12.9774 3.01237 13.4626 2.8114 13.9685 2.8114C14.219 2.8114 14.467 2.86074 14.6985 2.9566C14.9299 3.05246 15.1402 3.19297 15.3173 3.3701C15.4944 3.54722 15.6349 3.7575 15.7308 3.98893C15.8267 4.22036 15.876 4.4684 15.876 4.7189C15.876 4.9694 15.8267 5.21744 15.7308 5.44887C15.6349 5.6803 15.4944 5.89058 15.3173 6.06771C15.1402 6.24484 14.9299 6.38534 14.6985 6.4812C14.467 6.57706 14.219 6.6264 13.9685 6.6264C13.4626 6.6264 12.9774 6.42543 12.6197 6.06771C12.262 5.70998 12.061 5.2248 12.061 4.7189Z" stroke="#A8AEB2" stroke-width="1.5" stroke-miterlimit="10" stroke-linecap="round"/>
</svg>
