<svg width="63" height="12" viewBox="0 0 63 12" fill="none" xmlns="http://www.w3.org/2000/svg">
<path d="M0.219727 2.76758V0.746094H6.5625V2.76758H4.42383V11H2.3584V2.76758H0.219727ZM7.33887 8.72949V4.8916C7.34863 4.41309 7.56836 3.94434 7.99805 3.48535C8.52539 2.93848 9.16992 2.66016 9.93164 2.65039V4.49609C9.64844 4.49609 9.45312 4.61816 9.3457 4.8623C9.31641 4.9209 9.30176 4.97461 9.30176 5.02344V5.75586H11.4844V5.03809C11.4746 4.67676 11.2207 4.49609 10.7227 4.49609V2.65039C11.4355 2.65039 12.0605 2.89453 12.5977 3.38281C13.0664 3.8125 13.3057 4.31055 13.3154 4.87695V7.64551H9.30176V8.72949C9.37012 9.0127 9.58496 9.16895 9.94629 9.19824V11C9.02832 11 8.30078 10.624 7.76367 9.87207C7.48047 9.47168 7.33887 9.09082 7.33887 8.72949ZM10.7227 11V9.21289C11.25 9.20312 11.5869 8.9541 11.7334 8.46582L13.3301 9.06641C13.1836 9.69141 12.8125 10.1943 12.2168 10.5752C11.7578 10.8584 11.2598 11 10.7227 11ZM14.4434 11V4.9209C14.4434 4.43262 14.6582 3.95898 15.0879 3.5C15.6348 2.93359 16.3037 2.64551 17.0947 2.63574V4.58398C16.7041 4.64258 16.4844 4.83789 16.4355 5.16992V11H14.4434ZM17.7686 4.58398V2.63574C18.4326 2.64551 18.999 2.82617 19.4678 3.17773C19.917 2.81641 20.4785 2.63574 21.1523 2.63574V4.58398C20.7031 4.59375 20.4736 4.78906 20.4639 5.16992V11H18.4717V5.16992C18.4521 4.78906 18.2178 4.59375 17.7686 4.58398ZM21.8115 4.58398V2.63574C22.7588 2.63574 23.5059 3.01172 24.0527 3.76367C24.3457 4.17383 24.4922 4.55957 24.4922 4.9209V11H22.5V5.16992C22.4805 4.78906 22.251 4.59375 21.8115 4.58398ZM25.6641 11V0.511719H27.6855V11H25.6641ZM28.4619 11V9.0957H28.9893C29.0479 9.0957 29.1016 9.09082 29.1504 9.08105C29.209 9.06152 29.2578 9.04199 29.2969 9.02246C29.3359 9.00293 29.3701 8.97852 29.3994 8.94922C29.4287 8.91992 29.4482 8.89062 29.458 8.86133C29.4775 8.83203 29.4922 8.80762 29.502 8.78809C29.5117 8.75879 29.5215 8.73438 29.5312 8.71484V8.7002V4.9502C29.5312 4.83301 29.458 4.73047 29.3115 4.64258C29.2236 4.59375 29.1211 4.56445 29.0039 4.55469H28.4619V2.65039H28.9893C29.8682 2.65039 30.5566 3.03613 31.0547 3.80762C31.2988 4.18848 31.4258 4.5498 31.4355 4.8916V8.72949C31.4355 9.16895 31.2451 9.62305 30.8643 10.0918C30.3662 10.6875 29.7412 10.9902 28.9893 11H28.4619ZM32.4316 8.72949V4.8916C32.4414 4.41309 32.6611 3.94434 33.0908 3.48535C33.6182 2.93848 34.2627 2.66016 35.0244 2.65039V4.49609C34.7412 4.49609 34.5459 4.61816 34.4385 4.8623C34.4092 4.9209 34.3945 4.97461 34.3945 5.02344V5.75586H36.5771V5.03809C36.5674 4.67676 36.3135 4.49609 35.8154 4.49609V2.65039C36.5283 2.65039 37.1533 2.89453 37.6904 3.38281C38.1592 3.8125 38.3984 4.31055 38.4082 4.87695V7.64551H34.3945V8.72949C34.4629 9.0127 34.6777 9.16895 35.0391 9.19824V11C34.1211 11 33.3936 10.624 32.8564 9.87207C32.5732 9.47168 32.4316 9.09082 32.4316 8.72949ZM35.8154 11V9.21289C36.3428 9.20312 36.6797 8.9541 36.8262 8.46582L38.4229 9.06641C38.2764 9.69141 37.9053 10.1943 37.3096 10.5752C36.8506 10.8584 36.3525 11 35.8154 11ZM39.5947 11V2.65039H41.5869V3.57324C41.9287 3.13379 42.3926 2.83105 42.9785 2.66504C43.1836 2.60645 43.3887 2.57715 43.5938 2.57715H44.1211L43.667 4.54004C43.0518 4.5498 42.5195 4.81836 42.0703 5.3457C41.748 5.72656 41.5869 6.12207 41.5869 6.53223V11H39.5947ZM44.707 11V0.746094H46.7578V11H44.707ZM47.5635 11V9.19824H47.6367C48.2227 9.19824 48.6133 8.9541 48.8086 8.46582C48.877 8.30957 48.9111 8.14844 48.9111 7.98242C48.9111 7.49414 48.7158 7.14258 48.3252 6.92773C48.1299 6.82031 47.915 6.7666 47.6807 6.7666H47.5635V4.97949H47.6807C48.2275 4.97949 48.6035 4.74512 48.8086 4.27637C48.877 4.11035 48.9111 3.93945 48.9111 3.76367C48.9111 3.28516 48.7109 2.93359 48.3105 2.70898C48.1055 2.60156 47.8809 2.54785 47.6367 2.54785H47.5635V0.746094H47.915C49.1846 0.746094 50.0781 1.20996 50.5957 2.1377C50.8398 2.58691 50.9619 3.08008 50.9619 3.61719C50.9619 4.4668 50.7031 5.15527 50.1855 5.68262C50.1074 5.75098 50.0342 5.81445 49.9658 5.87305C50.5322 6.29297 50.8594 6.93262 50.9473 7.79199C50.957 7.90918 50.9619 8.02148 50.9619 8.12891C50.9619 9.07617 50.6299 9.81836 49.9658 10.3555C49.4189 10.7852 48.7354 11 47.915 11H47.5635ZM51.9727 8.72949V4.90625C51.9727 4.42773 52.1826 3.95898 52.6025 3.5C53.1299 2.94336 53.7988 2.66016 54.6094 2.65039V4.55469C54.1699 4.59375 53.9355 4.7793 53.9062 5.11133V8.52441C53.9258 8.90527 54.1602 9.10059 54.6094 9.11035V11.0146C53.6523 11.0146 52.9102 10.6289 52.3828 9.85742C52.1094 9.45703 51.9727 9.08105 51.9727 8.72949ZM55.2832 11.0146V9.11035C55.6934 9.06152 55.918 8.87598 55.957 8.55371L55.9424 5.11133C55.874 4.75977 55.6494 4.57422 55.2686 4.55469V2.65039C56.1865 2.65039 56.9043 3.02148 57.4219 3.76367C57.6953 4.16406 57.832 4.54492 57.832 4.90625V8.72949C57.832 9.21777 57.6221 9.69629 57.2021 10.165C56.6943 10.7217 56.0547 11.0049 55.2832 11.0146ZM58.5938 4.54004V2.65039H59.6191V0.511719H61.582V2.65039H62.5488V4.55469H61.582V8.43652C61.6016 8.78809 61.7822 8.96875 62.124 8.97852H62.5488L62.9883 11H62.1094C60.8301 11 60.0488 10.5166 59.7656 9.5498C59.668 9.19824 59.6191 8.77832 59.6191 8.29004V4.54004H58.5938Z" fill="#4B3C2F"/>
</svg>
