<svg width="84" height="15" viewBox="0 0 84 15" fill="none" xmlns="http://www.w3.org/2000/svg">
<path d="M0.292969 3.02344V0.328125H8.75V3.02344H5.89844V14H3.14453V3.02344H0.292969ZM9.78516 10.9727V5.85547C9.79818 5.21745 10.0911 4.59245 10.6641 3.98047C11.3672 3.2513 12.2266 2.88021 13.2422 2.86719V5.32812C12.8646 5.32812 12.6042 5.49089 12.4609 5.81641C12.4219 5.89453 12.4023 5.96615 12.4023 6.03125V7.00781H15.3125V6.05078C15.2995 5.56901 14.9609 5.32812 14.2969 5.32812V2.86719C15.2474 2.86719 16.0807 3.19271 16.7969 3.84375C17.4219 4.41667 17.7409 5.08073 17.7539 5.83594V9.52734H12.4023V10.9727C12.4935 11.3503 12.7799 11.5586 13.2617 11.5977V14C12.0378 14 11.0677 13.4987 10.3516 12.4961C9.97396 11.9622 9.78516 11.4544 9.78516 10.9727ZM14.2969 14V11.6172C15 11.6042 15.4492 11.2721 15.6445 10.6211L17.7734 11.4219C17.5781 12.2552 17.0833 12.9258 16.2891 13.4336C15.6771 13.8112 15.013 14 14.2969 14ZM19.2578 14V5.89453C19.2578 5.24349 19.5443 4.61198 20.1172 4C20.8464 3.24479 21.7383 2.86068 22.793 2.84766V5.44531C22.2721 5.52344 21.9792 5.78385 21.9141 6.22656V14H19.2578ZM23.6914 5.44531V2.84766C24.5768 2.86068 25.332 3.10156 25.957 3.57031C26.556 3.08854 27.3047 2.84766 28.2031 2.84766V5.44531C27.6042 5.45833 27.2982 5.71875 27.2852 6.22656V14H24.6289V6.22656C24.6029 5.71875 24.2904 5.45833 23.6914 5.44531ZM29.082 5.44531V2.84766C30.3451 2.84766 31.3411 3.34896 32.0703 4.35156C32.4609 4.89844 32.6562 5.41276 32.6562 5.89453V14H30V6.22656C29.974 5.71875 29.668 5.45833 29.082 5.44531ZM34.2188 14V0.015625H36.9141V14H34.2188ZM37.9492 14V11.4609H38.6523C38.7305 11.4609 38.8021 11.4544 38.8672 11.4414C38.9453 11.4154 39.0104 11.3893 39.0625 11.3633C39.1146 11.3372 39.1602 11.3047 39.1992 11.2656C39.2383 11.2266 39.2643 11.1875 39.2773 11.1484C39.3034 11.1094 39.3229 11.0768 39.3359 11.0508C39.349 11.0117 39.362 10.9792 39.375 10.9531V10.9336V5.93359C39.375 5.77734 39.2773 5.64062 39.082 5.52344C38.9648 5.45833 38.8281 5.41927 38.6719 5.40625H37.9492V2.86719H38.6523C39.8242 2.86719 40.7422 3.38151 41.4062 4.41016C41.7318 4.91797 41.901 5.39974 41.9141 5.85547V10.9727C41.9141 11.5586 41.6602 12.1641 41.1523 12.7891C40.4883 13.5833 39.6549 13.987 38.6523 14H37.9492ZM43.2422 10.9727V5.85547C43.2552 5.21745 43.5482 4.59245 44.1211 3.98047C44.8242 3.2513 45.6836 2.88021 46.6992 2.86719V5.32812C46.3216 5.32812 46.0612 5.49089 45.918 5.81641C45.8789 5.89453 45.8594 5.96615 45.8594 6.03125V7.00781H48.7695V6.05078C48.7565 5.56901 48.418 5.32812 47.7539 5.32812V2.86719C48.7044 2.86719 49.5378 3.19271 50.2539 3.84375C50.8789 4.41667 51.1979 5.08073 51.2109 5.83594V9.52734H45.8594V10.9727C45.9505 11.3503 46.237 11.5586 46.7188 11.5977V14C45.4948 14 44.5247 13.4987 43.8086 12.4961C43.431 11.9622 43.2422 11.4544 43.2422 10.9727ZM47.7539 14V11.6172C48.457 11.6042 48.9062 11.2721 49.1016 10.6211L51.2305 11.4219C51.0352 12.2552 50.5404 12.9258 49.7461 13.4336C49.1341 13.8112 48.4701 14 47.7539 14ZM52.793 14V2.86719H55.4492V4.09766C55.9049 3.51172 56.5234 3.10807 57.3047 2.88672C57.5781 2.80859 57.8516 2.76953 58.125 2.76953H58.8281L58.2227 5.38672C57.4023 5.39974 56.6927 5.75781 56.0938 6.46094C55.6641 6.96875 55.4492 7.49609 55.4492 8.04297V14H52.793ZM59.6094 14V0.328125H62.3438V14H59.6094ZM63.418 14V11.5977H63.5156C64.2969 11.5977 64.8177 11.2721 65.0781 10.6211C65.1693 10.4128 65.2148 10.1979 65.2148 9.97656C65.2148 9.32552 64.9544 8.85677 64.4336 8.57031C64.1732 8.42708 63.8867 8.35547 63.5742 8.35547H63.418V5.97266H63.5742C64.3034 5.97266 64.8047 5.66016 65.0781 5.03516C65.1693 4.8138 65.2148 4.58594 65.2148 4.35156C65.2148 3.71354 64.9479 3.24479 64.4141 2.94531C64.1406 2.80208 63.8411 2.73047 63.5156 2.73047H63.418V0.328125H63.8867C65.5794 0.328125 66.7708 0.946615 67.4609 2.18359C67.7865 2.78255 67.9492 3.4401 67.9492 4.15625C67.9492 5.28906 67.6042 6.20703 66.9141 6.91016C66.8099 7.0013 66.7122 7.08594 66.6211 7.16406C67.3763 7.72396 67.8125 8.57682 67.9297 9.72266C67.9427 9.87891 67.9492 10.0286 67.9492 10.1719C67.9492 11.4349 67.5065 12.4245 66.6211 13.1406C65.8919 13.7135 64.9805 14 63.8867 14H63.418ZM69.2969 10.9727V5.875C69.2969 5.23698 69.5768 4.61198 70.1367 4C70.8398 3.25781 71.7318 2.88021 72.8125 2.86719V5.40625C72.2266 5.45833 71.9141 5.70573 71.875 6.14844V10.6992C71.901 11.207 72.2135 11.4674 72.8125 11.4805V14.0195C71.5365 14.0195 70.5469 13.5052 69.8438 12.4766C69.4792 11.9427 69.2969 11.4414 69.2969 10.9727ZM73.7109 14.0195V11.4805C74.2578 11.4154 74.5573 11.168 74.6094 10.7383L74.5898 6.14844C74.4987 5.67969 74.1992 5.43229 73.6914 5.40625V2.86719C74.9154 2.86719 75.8724 3.36198 76.5625 4.35156C76.9271 4.88542 77.1094 5.39323 77.1094 5.875V10.9727C77.1094 11.6237 76.8294 12.2617 76.2695 12.8867C75.5924 13.6289 74.7396 14.0065 73.7109 14.0195ZM78.125 5.38672V2.86719H79.4922V0.015625H82.1094V2.86719H83.3984V5.40625H82.1094V10.582C82.1354 11.0508 82.3763 11.2917 82.832 11.3047H83.3984L83.9844 14H82.8125C81.1068 14 80.0651 13.3555 79.6875 12.0664C79.5573 11.5977 79.4922 11.0378 79.4922 10.3867V5.38672H78.125Z" fill="white"/>
</svg>
