<svg width="20" height="20" viewBox="0 0 20 20" fill="none" xmlns="http://www.w3.org/2000/svg">
<path d="M11.2575 2.61562C10.7142 1.62813 9.28419 1.62813 8.74002 2.61562C8.02442 3.91595 7.43453 5.28158 6.97835 6.69396C6.95684 6.74922 6.91899 6.7966 6.86986 6.82981C6.82073 6.86301 6.76265 6.88044 6.70335 6.87979C5.48082 6.91157 4.26227 7.033 3.05752 7.24313C1.94335 7.43729 1.45252 8.77396 2.29919 9.60146C2.40585 9.7059 2.51363 9.80979 2.62252 9.91313C3.4382 10.6855 4.30186 11.4055 5.20835 12.069C5.24953 12.0963 5.28073 12.1363 5.29726 12.1828C5.31379 12.2294 5.31476 12.2801 5.30002 12.3273C4.84238 13.7004 4.51538 15.1136 4.32335 16.5481C4.16502 17.7348 5.42169 18.4631 6.40252 17.9598C7.59325 17.3495 8.73181 16.6424 9.80669 15.8456C9.86298 15.8058 9.93023 15.7844 9.99919 15.7844C10.0681 15.7844 10.1354 15.8058 10.1917 15.8456C11.2659 16.6434 12.4046 17.3505 13.5959 17.9598C14.5767 18.4631 15.8334 17.7348 15.675 16.5481C15.4833 15.1136 15.1565 13.7004 14.6992 12.3273C14.6844 12.2801 14.6854 12.2294 14.7019 12.1828C14.7185 12.1363 14.7497 12.0963 14.7909 12.069C15.8179 11.3172 16.7899 10.4929 17.6992 9.60229C18.5459 8.77396 18.055 7.43729 16.9409 7.24313C15.7358 7.03296 14.517 6.91153 13.2942 6.87979C13.235 6.88027 13.1771 6.86276 13.1282 6.82957C13.0792 6.79638 13.0415 6.74908 13.02 6.69396C12.5653 5.28104 11.9745 3.91527 11.2575 2.61562Z" fill="#FFDF77"/>
</svg>
