<svg width="16" height="16" viewBox="0 0 16 16" fill="none" xmlns="http://www.w3.org/2000/svg">
<g clip-path="url(#clip0_327_1964)">
<path d="M12.9997 5V5.286C12.9997 7.50933 13.8583 8.096 15.6663 9V12.3333H13.9997M12.9997 5H14.333V4.66667C14.333 4.66667 13.333 4 12.9997 3H0.333008V12.3333H1.66634M12.9997 5H9.66634V7.66667H13.679M13.9997 12.3333C13.9997 12.7754 13.8241 13.1993 13.5115 13.5118C13.199 13.8244 12.775 14 12.333 14C11.891 14 11.4671 13.8244 11.1545 13.5118C10.8419 13.1993 10.6663 12.7754 10.6663 12.3333M13.9997 12.3333C13.9997 11.8913 13.8241 11.4674 13.5115 11.1548C13.199 10.8423 12.775 10.6667 12.333 10.6667C11.891 10.6667 11.4671 10.8423 11.1545 11.1548C10.8419 11.4674 10.6663 11.8913 10.6663 12.3333M1.66634 12.3333C1.66634 12.7754 1.84194 13.1993 2.1545 13.5118C2.46706 13.8244 2.89098 14 3.33301 14C3.77504 14 4.19896 13.8244 4.51152 13.5118C4.82408 13.1993 4.99967 12.7754 4.99967 12.3333M1.66634 12.3333C1.66634 11.8913 1.84194 11.4674 2.1545 11.1548C2.46706 10.8423 2.89098 10.6667 3.33301 10.6667C3.77504 10.6667 4.19896 10.8423 4.51152 11.1548C4.82408 11.4674 4.99967 11.8913 4.99967 12.3333M10.6663 12.3333H4.99967M7.66634 7.66667V5H2.33301V7.66667H7.66634Z" stroke="white" stroke-opacity="0.3"/>
</g>
<defs>
<clipPath id="clip0_327_1964">
<rect width="16" height="16" fill="white"/>
</clipPath>
</defs>
</svg>
