<svg width="16" height="16" viewBox="0 0 16 16" fill="none" xmlns="http://www.w3.org/2000/svg">
<g clip-path="url(#clip0_279_8734)">
<path d="M12.333 12.3333H15.9997M12.333 12.3333V3H2.33301C2.33301 3 0.333008 6 0.333008 11.0773V12.3333H4.66634M12.333 12.3333H7.99967M4.66634 12.3333C4.66634 12.7754 4.84194 13.1993 5.1545 13.5118C5.46706 13.8244 5.89098 14 6.33301 14C6.77504 14 7.19896 13.8244 7.51152 13.5118C7.82408 13.1993 7.99967 12.7754 7.99967 12.3333M4.66634 12.3333C4.66634 11.8913 4.84194 11.4674 5.1545 11.1548C5.46706 10.8423 5.89098 10.6667 6.33301 10.6667C6.77504 10.6667 7.19896 10.8423 7.51152 11.1548C7.82408 11.4674 7.99967 11.8913 7.99967 12.3333M13.9997 13.6667H15.9997M6.66634 5V7.66667M2.66634 7.66667C2.84896 6.7568 3.11039 5.86455 3.44767 5H10.333V7.66667H2.66634Z" stroke="white"/>
</g>
<defs>
<clipPath id="clip0_279_8734">
<rect width="16" height="16" fill="white"/>
</clipPath>
</defs>
</svg>
