<svg width="16" height="16" viewBox="0 0 16 16" fill="none" xmlns="http://www.w3.org/2000/svg">
<path d="M0.857017 12.592V3.91769L2.29016 5.06511C3.01359 5.6434 3.91302 5.95883 4.83873 5.95883H7.99987L9.47645 3.00569C9.64639 2.66711 9.90701 2.38237 10.2293 2.18321C10.5515 1.98404 10.9228 1.87827 11.3016 1.87769H12.081V4.42854L15.1427 5.44911V6.46968C15.1427 7.59654 14.2284 8.50969 13.1016 8.50969H11.0627V12.592C11.0683 12.7965 11.0329 13.0001 10.9584 13.1907C10.884 13.3814 10.7722 13.5551 10.6294 13.7018C10.4867 13.8485 10.3161 13.965 10.1276 14.0446C9.93906 14.1242 9.73651 14.1652 9.53187 14.1652C9.32724 14.1652 9.12469 14.1242 8.93617 14.0446C8.74766 13.965 8.57701 13.8485 8.4343 13.7018C8.29159 13.5551 8.17973 13.3814 8.10531 13.1907C8.03089 13.0001 7.99543 12.7965 8.00102 12.592V12.0811C8.00102 11.5177 7.54387 11.0617 6.98045 11.0617H4.93816C4.37473 11.0617 3.91873 11.5188 3.91873 12.0811V12.592C3.92432 12.7965 3.88886 13.0001 3.81444 13.1907C3.74002 13.3814 3.62815 13.5551 3.48545 13.7018C3.34274 13.8485 3.17209 13.965 2.98358 14.0446C2.79506 14.1242 2.5925 14.1652 2.38787 14.1652C2.18324 14.1652 1.98069 14.1242 1.79217 14.0446C1.60366 13.965 1.43301 13.8485 1.2903 13.7018C1.14759 13.5551 1.03573 13.3814 0.961309 13.1907C0.886889 13.0001 0.851427 12.7965 0.857017 12.592Z" stroke="white" stroke-opacity="0.3" stroke-linecap="round" stroke-linejoin="round"/>
<path d="M8.01367 5.8252C8.21367 6.64462 9.15653 8.33377 11.3222 8.53948" stroke="white" stroke-opacity="0.3" stroke-linecap="round" stroke-linejoin="round"/>
</svg>
