<svg width="16" height="14" viewBox="0 0 16 14" fill="none" xmlns="http://www.w3.org/2000/svg">
<path d="M0.857017 11.592V2.91769L2.29016 4.06511C3.01359 4.6434 3.91302 4.95883 4.83873 4.95883H7.99987L9.47645 2.00569C9.64639 1.66711 9.90701 1.38237 10.2293 1.18321C10.5515 0.984044 10.9228 0.878274 11.3016 0.877686H12.081V3.42854L15.1427 4.44911V5.46968C15.1427 6.59654 14.2284 7.50969 13.1016 7.50969H11.0627V11.592C11.0683 11.7965 11.0329 12.0001 10.9584 12.1907C10.884 12.3814 10.7722 12.5551 10.6294 12.7018C10.4867 12.8485 10.3161 12.965 10.1276 13.0446C9.93906 13.1242 9.73651 13.1652 9.53187 13.1652C9.32724 13.1652 9.12469 13.1242 8.93617 13.0446C8.74766 12.965 8.57701 12.8485 8.4343 12.7018C8.29159 12.5551 8.17973 12.3814 8.10531 12.1907C8.03089 12.0001 7.99543 11.7965 8.00102 11.592V11.0811C8.00102 10.5177 7.54387 10.0617 6.98045 10.0617H4.93816C4.37473 10.0617 3.91873 10.5188 3.91873 11.0811V11.592C3.92432 11.7965 3.88886 12.0001 3.81444 12.1907C3.74002 12.3814 3.62815 12.5551 3.48545 12.7018C3.34274 12.8485 3.17209 12.965 2.98358 13.0446C2.79506 13.1242 2.5925 13.1652 2.38787 13.1652C2.18324 13.1652 1.98069 13.1242 1.79217 13.0446C1.60366 12.965 1.43301 12.8485 1.2903 12.7018C1.14759 12.5551 1.03573 12.3814 0.961309 12.1907C0.886889 12.0001 0.851427 11.7965 0.857017 11.592Z" stroke="white" stroke-linecap="round" stroke-linejoin="round"/>
<path d="M8.01367 4.8252C8.21367 5.64462 9.15653 7.33377 11.3222 7.53948" stroke="white" stroke-linecap="round" stroke-linejoin="round"/>
</svg>
