<svg width="30" height="30" viewBox="0 0 30 30" fill="none" xmlns="http://www.w3.org/2000/svg">
<path fill-rule="evenodd" clip-rule="evenodd" d="M23.3298 18.8217C23.6302 18.7142 23.9602 18.7257 24.2524 18.8537C24.5446 18.9818 24.7768 19.2167 24.9015 19.5103C25.0261 19.804 25.0337 20.1342 24.9228 20.4333C24.8118 20.7324 24.5908 20.9778 24.3048 21.1192L24.1698 21.1767L18.716 23.1242L24.1698 25.0717C24.4716 25.1777 24.7213 25.3955 24.8674 25.6801C25.0135 25.9647 25.045 26.2944 24.9553 26.6015C24.8656 26.9086 24.6615 27.1696 24.3852 27.3308C24.1088 27.4919 23.7812 27.541 23.4698 27.4679L23.3298 27.4267L14.9998 24.4517L6.66978 27.4267C6.3694 27.5341 6.03931 27.5227 5.74711 27.3946C5.45491 27.2666 5.22272 27.0317 5.09809 26.738C4.97347 26.4444 4.96584 26.1142 5.07677 25.8151C5.18771 25.516 5.4088 25.2706 5.69478 25.1292L5.82978 25.0717L11.2835 23.1242L5.82978 21.1767C5.52795 21.0706 5.27828 20.8529 5.13215 20.5683C4.98603 20.2837 4.95458 19.9539 5.04429 19.6469C5.13399 19.3398 5.33802 19.0788 5.61436 18.9176C5.89071 18.7564 6.21833 18.7073 6.52978 18.7804L6.66978 18.8217L14.9998 21.7967L23.3298 18.8217ZM14.0373 3.61419L14.921 3.03919L15.196 2.87294C15.8085 2.52669 16.4835 2.29794 17.0673 2.80544C17.4173 3.10794 17.5335 3.53419 17.471 3.96794L17.421 4.22419L17.4023 4.39919C17.3939 4.50586 17.3973 4.63377 17.4123 4.78294C17.5198 5.74669 18.176 6.43544 18.856 7.05919L19.4273 7.57919L19.8548 7.98294C20.8698 8.97294 21.9898 10.3079 22.461 12.1954C23.0285 14.4629 22.4685 16.4967 20.9835 17.9292C19.551 19.3142 17.401 19.9992 14.9998 19.9992C11.0385 19.9992 7.49978 17.4342 7.49978 13.1242C7.49978 9.75419 9.72728 7.09294 11.6773 5.38669C12.4251 4.74475 13.2143 4.15264 14.0398 3.61419M15.2773 11.5792L14.9998 11.2492L14.7235 11.5792L14.4273 11.9554L14.1935 12.2704L13.9435 12.6254C13.261 13.6242 12.4998 14.9954 12.4998 16.1454C12.4998 17.5829 13.6198 18.7492 14.9998 18.7492C16.3798 18.7492 17.4998 17.5829 17.4998 16.1454C17.4998 14.9954 16.7385 13.6242 16.056 12.6254L15.806 12.2704L15.5723 11.9554L15.2773 11.5792Z" fill="white"/>
</svg>
