<svg width="30" height="30" viewBox="0 0 30 30" fill="none" xmlns="http://www.w3.org/2000/svg">
<path fill-rule="evenodd" clip-rule="evenodd" d="M23.3298 18.8227C23.6302 18.7152 23.9602 18.7267 24.2524 18.8547C24.5446 18.9827 24.7768 19.2176 24.9015 19.5113C25.0261 19.805 25.0337 20.1352 24.9228 20.4343C24.8118 20.7334 24.5908 20.9788 24.3048 21.1202L24.1698 21.1777L18.716 23.1252L24.1698 25.0727C24.4716 25.1787 24.7213 25.3964 24.8674 25.681C25.0135 25.9656 25.045 26.2954 24.9553 26.6025C24.8656 26.9096 24.6615 27.1706 24.3852 27.3317C24.1088 27.4929 23.7812 27.542 23.4698 27.4689L23.3298 27.4277L14.9998 24.4527L6.66978 27.4277C6.3694 27.5351 6.03931 27.5236 5.74711 27.3956C5.45491 27.2676 5.22272 27.0327 5.09809 26.739C4.97347 26.4453 4.96584 26.1151 5.07677 25.816C5.18771 25.5169 5.4088 25.2716 5.69478 25.1302L5.82978 25.0727L11.2835 23.1252L5.82978 21.1777C5.52795 21.0716 5.27828 20.8539 5.13215 20.5693C4.98603 20.2847 4.95458 19.9549 5.04429 19.6478C5.13399 19.3408 5.33802 19.0798 5.61436 18.9186C5.89071 18.7574 6.21833 18.7083 6.52978 18.7814L6.66978 18.8227L14.9998 21.7977L23.3298 18.8227ZM14.0373 3.61517L14.921 3.04017L15.196 2.87392C15.8085 2.52767 16.4835 2.29892 17.0673 2.80642C17.4173 3.10892 17.5335 3.53517 17.471 3.96892L17.421 4.22517L17.4023 4.40017C17.3939 4.50683 17.3973 4.63475 17.4123 4.78392C17.5198 5.74767 18.176 6.43642 18.856 7.06017L19.4273 7.58017L19.8548 7.98392C20.8698 8.97392 21.9898 10.3089 22.461 12.1964C23.0285 14.4639 22.4685 16.4977 20.9835 17.9302C19.551 19.3152 17.401 20.0002 14.9998 20.0002C11.0385 20.0002 7.49978 17.4352 7.49978 13.1252C7.49978 9.75517 9.72728 7.09392 11.6773 5.38767C12.4251 4.74573 13.2143 4.15362 14.0398 3.61517M15.2773 11.5802L14.9998 11.2502L14.7235 11.5802L14.4273 11.9564L14.1935 12.2714L13.9435 12.6264C13.261 13.6252 12.4998 14.9964 12.4998 16.1464C12.4998 17.5839 13.6198 18.7502 14.9998 18.7502C16.3798 18.7502 17.4998 17.5839 17.4998 16.1464C17.4998 14.9964 16.7385 13.6252 16.056 12.6264L15.806 12.2714L15.5723 11.9564L15.2773 11.5802Z" fill="#4B3C2F"/>
</svg>
