<svg width="30" height="30" viewBox="0 0 30 30" fill="none" xmlns="http://www.w3.org/2000/svg">
<path d="M14.4508 1.07678C13.7584 1.06781 13.0493 1.58115 12.7296 2.3915C12.3361 3.38877 12.6798 4.45869 13.4968 4.78096C14.3138 5.10334 15.2951 4.55701 15.6886 3.55969C16.0821 2.56242 15.7384 1.4925 14.9214 1.17023C14.7716 1.11057 14.6121 1.07889 14.4508 1.07678H14.4508ZM18.8307 2.01064C18.1879 2.01099 17.4981 2.36361 17.0272 2.99935C16.3094 3.96814 16.3709 5.22943 17.1644 5.81736C17.958 6.40535 19.1823 6.09592 19.9 5.12713C20.6178 4.15834 20.5563 2.89705 19.7627 2.30912C19.49 2.10697 19.1673 2.01047 18.8307 2.0107L18.8307 2.01064ZM22.7711 4.20967C22.1655 4.20222 21.5089 4.45945 20.9857 4.96594C20.0559 5.8664 19.9003 7.21265 20.6379 7.97437C21.3755 8.73609 22.7274 8.62394 23.6573 7.72359C24.5872 6.82301 24.7428 5.47681 24.0052 4.7151C23.6825 4.3817 23.2421 4.21547 22.771 4.20967H22.7711ZM13.6048 6.08836C12.2859 6.07195 11.0045 6.49224 9.8841 7.49461C6.30772 10.6942 2.82385 15.2938 1.65713 22.6741C0.294418 31.295 10.9136 29.7378 9.86219 25.1331C8.51911 19.251 11.862 16.8649 16.1903 17.8583C18.1144 18.3001 20.0891 17.5712 21.2294 15.489C22.6006 12.9851 20.7941 9.23021 17.5453 7.30787C16.2791 6.55846 14.9238 6.10471 13.6049 6.0883L13.6048 6.08836ZM26.3344 7.85168C25.718 7.85297 25.0656 8.01691 24.4539 8.35705C22.8228 9.26408 22.1014 11.0822 22.8443 12.4184C23.5874 13.7544 25.5127 14.1018 27.1437 13.1947C28.7747 12.2877 29.4944 10.4695 28.7514 9.13342C28.287 8.29834 27.3617 7.84963 26.3344 7.85168H26.3344Z" fill="#4B3C2F"/>
</svg>
