<svg width="30" height="30" viewBox="0 0 30 30" fill="none" xmlns="http://www.w3.org/2000/svg">
<path d="M23.3911 6.59735C22.2885 5.49185 20.9786 4.61465 19.5365 4.01597C18.0945 3.41729 16.5485 3.10888 14.9871 3.1084C13.4257 3.10791 11.8795 3.41536 10.4371 4.01315C8.99462 4.61093 7.68422 5.48731 6.58088 6.59213C5.47754 7.69695 4.60292 9.00852 4.00706 10.4518C3.41121 11.895 3.10584 13.4416 3.10841 15.003C3.11099 16.5644 3.42147 18.11 4.02208 19.5512C4.62269 20.9925 5.50164 22.3012 6.60862 23.4024C8.83861 25.6206 11.8576 26.8636 15.003 26.8584C18.1484 26.8532 21.1633 25.6003 23.3859 23.3747C25.6086 21.149 26.8574 18.1325 26.8584 14.9871C26.8594 11.8417 25.6124 8.82436 23.3911 6.59735ZM23.3911 6.59735L18.7211 11.2686M23.3911 23.3811L18.7211 18.7099M11.2786 18.7099L6.60862 23.3811M11.2786 11.2686L6.60862 6.59735M14.9999 20.2674C13.6 20.2662 12.258 19.709 11.269 18.7183C10.2799 17.7277 9.72496 16.3847 9.72612 14.9849C9.72728 13.585 10.2845 12.243 11.2751 11.2539C12.2658 10.2649 13.6088 9.70994 15.0086 9.7111C16.4085 9.71226 17.7505 10.2695 18.7395 11.2601C19.7286 12.2508 20.2835 13.5938 20.2824 14.9936C20.2812 16.3934 19.724 17.7355 18.7334 18.7245C17.7427 19.7135 16.3997 20.2685 14.9999 20.2674Z" stroke="#4B3C2F" stroke-width="2.5" stroke-linecap="round" stroke-linejoin="round"/>
</svg>
