<svg width="30" height="30" viewBox="0 0 30 30" fill="none" xmlns="http://www.w3.org/2000/svg">
<path d="M15 2.5C8.09625 2.5 2.5 8.10375 2.5 15.0175C2.5 21.615 7.5975 27.02 14.0625 27.5V19.9237C13.0876 19.7087 12.2155 19.1672 11.5903 18.3889C10.9652 17.6105 10.6246 16.642 10.625 15.6438V15.0175C10.6248 14.8532 10.657 14.6906 10.7198 14.5388C10.7825 14.387 10.8746 14.249 10.9907 14.1328C11.1068 14.0166 11.2446 13.9244 11.3964 13.8615C11.5481 13.7986 11.7107 13.7662 11.875 13.7662H12.1875V11.2625C12.1875 11.0139 12.2863 10.7754 12.4621 10.5996C12.6379 10.4238 12.8764 10.325 13.125 10.325C13.3736 10.325 13.6121 10.4238 13.7879 10.5996C13.9637 10.7754 14.0625 11.0139 14.0625 11.2625V13.765H15.9375V11.2625C15.9375 11.0139 16.0363 10.7754 16.2121 10.5996C16.3879 10.4238 16.6264 10.325 16.875 10.325C17.1236 10.325 17.3621 10.4238 17.5379 10.5996C17.7137 10.7754 17.8125 11.0139 17.8125 11.2625V13.765H18.125C18.2894 13.765 18.4521 13.7974 18.6039 13.8604C18.7558 13.9234 18.8937 14.0157 19.0098 14.132C19.1259 14.2483 19.2179 14.3864 19.2806 14.5384C19.3432 14.6903 19.3753 14.8531 19.375 15.0175V15.6425C19.3757 16.641 19.0352 17.6098 18.4101 18.3884C17.7849 19.167 16.9126 19.7087 15.9375 19.9237V27.5C22.4025 27.02 27.5 21.615 27.5 15.0175C27.5 8.105 21.9037 2.5 15 2.5Z" fill="#4B3C2F"/>
</svg>
